<svg width="15" height="16" viewBox="0 0 15 16" fill="none" xmlns="http://www.w3.org/2000/svg">
<path d="M14.9559 4.9208C14.9475 4.28965 14.8293 3.66478 14.6067 3.07413C14.4137 2.57592 14.1188 2.12346 13.741 1.74566C13.3632 1.36785 12.9108 1.07301 12.4126 0.879964C11.8295 0.661095 11.2135 0.542749 10.5909 0.529964C9.78922 0.494131 9.53506 0.484131 7.50006 0.484131C5.46506 0.484131 5.20423 0.484131 4.40839 0.529964C3.78602 0.542843 3.17035 0.661188 2.58756 0.879964C2.08927 1.07287 1.63674 1.36767 1.25892 1.74549C0.881096 2.12331 0.5863 2.57585 0.393392 3.07413C0.174084 3.65674 0.0559946 4.27256 0.0442253 4.89496C0.00839192 5.69746 -0.00244141 5.95163 -0.00244141 7.98663C-0.00244141 10.0216 -0.00244141 10.2816 0.0442253 11.0783C0.0567253 11.7016 0.174225 12.3166 0.393392 12.9008C0.586623 13.3989 0.881639 13.8513 1.25959 14.2289C1.63754 14.6066 2.09011 14.9013 2.58839 15.0941C3.16959 15.3218 3.78537 15.4486 4.40923 15.4691C5.21173 15.505 5.46589 15.5158 7.50089 15.5158C9.53589 15.5158 9.79673 15.5158 10.5926 15.4691C11.2152 15.4569 11.8312 15.3388 12.4142 15.12C12.9123 14.9267 13.3646 14.6318 13.7424 14.254C14.1202 13.8762 14.4151 13.4239 14.6084 12.9258C14.8276 12.3425 14.9451 11.7275 14.9576 11.1033C14.9934 10.3016 15.0042 10.0475 15.0042 8.01163C15.0026 5.97663 15.0026 5.7183 14.9559 4.9208ZM7.49506 11.835C5.36673 11.835 3.64256 10.1108 3.64256 7.98246C3.64256 5.85413 5.36673 4.12996 7.49506 4.12996C8.51681 4.12996 9.4967 4.53585 10.2192 5.25834C10.9417 5.98082 11.3476 6.96072 11.3476 7.98246C11.3476 9.00421 10.9417 9.98411 10.2192 10.7066C9.4967 11.4291 8.51681 11.835 7.49506 11.835ZM11.5009 4.8858C11.3829 4.88591 11.266 4.86275 11.157 4.81764C11.0479 4.77253 10.9489 4.70637 10.8654 4.62293C10.782 4.53949 10.7158 4.44041 10.6707 4.33137C10.6256 4.22233 10.6024 4.10547 10.6026 3.98746C10.6026 3.86955 10.6258 3.75279 10.6709 3.64385C10.716 3.53491 10.7822 3.43592 10.8656 3.35254C10.9489 3.26916 11.0479 3.20302 11.1569 3.1579C11.2658 3.11277 11.3826 3.08955 11.5005 3.08955C11.6184 3.08955 11.7352 3.11277 11.8441 3.1579C11.953 3.20302 12.052 3.26916 12.1354 3.35254C12.2188 3.43592 12.2849 3.53491 12.33 3.64385C12.3752 3.75279 12.3984 3.86955 12.3984 3.98746C12.3984 4.48413 11.9967 4.8858 11.5009 4.8858Z" fill="url(#paint0_linear_3761_9391)"/>
<defs>
<linearGradient id="paint0_linear_3761_9391" x1="5.08571e-05" y1="8" x2="15.0001" y2="8" gradientUnits="userSpaceOnUse">
<stop stop-color="#FB7BA2"/>
<stop offset="1" stop-color="#FCE043"/>
</linearGradient>
</defs>
</svg>
