<svg width="17" height="18" viewBox="0 0 17 18" fill="none" xmlns="http://www.w3.org/2000/svg">
<path d="M8.50071 0.668213C3.89905 0.668213 0.168213 4.39905 0.168213 9.00071C0.168213 13.159 3.21488 16.6057 7.19905 17.2332V11.4099H5.08238V9.00071H7.19905V7.16488C7.19905 5.07488 8.44321 3.92238 10.3457 3.92238C11.2574 3.92238 12.2124 4.08488 12.2124 4.08488V6.13405H11.159C10.1257 6.13405 9.80238 6.77738 9.80238 7.43655V8.99905H12.1115L11.7424 11.4082H9.80238V17.2315C13.7865 16.6074 16.8332 13.1599 16.8332 9.00071C16.8332 4.39905 13.1024 0.668213 8.50071 0.668213Z" fill="url(#paint0_linear_3761_9396)"/>
<defs>
<linearGradient id="paint0_linear_3761_9396" x1="0.166534" y1="8.99992" x2="16.8332" y2="8.99992" gradientUnits="userSpaceOnUse">
<stop stop-color="#FB7BA2"/>
<stop offset="1" stop-color="#FCE043"/>
</linearGradient>
</defs>
</svg>
