<svg width="17" height="18" viewBox="0 0 17 18" fill="none" xmlns="http://www.w3.org/2000/svg">
<path d="M8.50008 0.666748C3.89925 0.666748 0.166748 4.39758 0.166748 9.00008C0.166748 13.6009 3.89925 17.3334 8.50008 17.3334C13.1009 17.3334 16.8334 13.6009 16.8334 9.00008C16.8334 4.39758 13.1009 0.666748 8.50008 0.666748ZM13.3826 10.1084C13.3926 10.2301 13.3926 10.3526 13.3826 10.4742C13.3826 12.3409 11.2084 13.8592 8.52425 13.8592C5.84008 13.8592 3.66591 12.3426 3.66591 10.4742C3.65591 10.3525 3.65591 10.2302 3.66591 10.1084C3.49045 10.0279 3.33665 9.90682 3.21724 9.75513C3.09783 9.60343 3.01623 9.4255 2.97918 9.23604C2.94213 9.04657 2.95071 8.85101 3.00419 8.66552C3.05767 8.48002 3.15452 8.30991 3.28675 8.16925C3.3961 8.05278 3.52734 7.95902 3.67297 7.89333C3.8186 7.82765 3.97576 7.79133 4.13544 7.78645C4.29513 7.78157 4.4542 7.80824 4.60357 7.86491C4.75294 7.92159 4.88966 8.00717 5.00591 8.11675C5.96601 7.46589 7.09531 7.10964 8.25508 7.09175L8.87425 4.20008V4.19675C8.88958 4.12991 8.93062 4.07179 8.98848 4.03498C9.04634 3.99818 9.11637 3.98564 9.18341 4.00008L11.2242 4.40841C11.3243 4.23706 11.4821 4.10698 11.6695 4.04153C11.8568 3.97608 12.0613 3.97954 12.2463 4.05129C12.4313 4.12304 12.5846 4.25839 12.6788 4.43302C12.773 4.60766 12.8019 4.81016 12.7602 5.00415C12.7185 5.19815 12.6091 5.37094 12.4515 5.49151C12.2939 5.61208 12.0985 5.67252 11.9004 5.662C11.7022 5.65147 11.5143 5.57066 11.3704 5.43407C11.2265 5.29748 11.136 5.11407 11.1151 4.91675L9.33341 4.54175L8.79258 7.14175C9.93856 7.16647 11.0529 7.52247 12.0009 8.16675C12.1703 8.00448 12.383 7.89463 12.6133 7.85043C12.8437 7.80623 13.0819 7.82957 13.2993 7.91762C13.5167 8.00568 13.7041 8.1547 13.8387 8.34675C13.9734 8.5388 14.0497 8.76568 14.0584 9.00008C14.0667 9.46925 13.8026 9.90008 13.3826 10.1084Z" fill="url(#paint0_linear_3761_9400)"/>
<defs>
<linearGradient id="paint0_linear_3761_9400" x1="0.298991" y1="9.11442" x2="16.9657" y2="9.11442" gradientUnits="userSpaceOnUse">
<stop stop-color="#FB7BA2"/>
<stop offset="1" stop-color="#FCE043"/>
</linearGradient>
</defs>
</svg>
