<svg width="17" height="18" viewBox="0 0 17 18" fill="none" xmlns="http://www.w3.org/2000/svg">
<path d="M8.50008 0.666748C3.90508 0.666748 0.166748 4.40508 0.166748 9.00008C0.166748 13.5951 3.90508 17.3334 8.50008 17.3334C13.0951 17.3334 16.8334 13.5951 16.8334 9.00008C16.8334 4.40508 13.0951 0.666748 8.50008 0.666748ZM15.1092 8.16675H12.8059C12.7031 6.34279 12.1928 4.56505 11.3126 2.96425C12.3328 3.44096 13.2158 4.16791 13.8796 5.07751C14.5434 5.9871 14.9664 7.04979 15.1092 8.16675ZM8.94175 2.35591C9.80425 3.49258 10.9642 5.50591 11.1309 8.16675H6.02508C6.14091 6.00341 6.85341 3.97675 8.06758 2.35508C8.21091 2.34675 8.35425 2.33341 8.50008 2.33341C8.64925 2.33341 8.79508 2.34675 8.94175 2.35591ZM5.74008 2.93925C4.92008 4.51508 4.44675 6.30175 4.35841 8.16675H1.89091C2.03489 7.03995 2.46394 5.9685 3.13749 5.05376C3.81104 4.13902 4.70682 3.41124 5.74008 2.93925ZM1.89091 9.83341H4.36925C4.48258 11.8159 4.92341 13.5651 5.66591 15.0251C4.65107 14.5467 3.77319 13.8202 3.11338 12.9128C2.45357 12.0054 2.03313 10.9463 1.89091 9.83341ZM8.04175 15.6442C6.87425 14.2292 6.18508 12.2467 6.03425 9.83341H11.1284C10.9551 12.1442 10.1976 14.1634 8.95925 15.6434C8.80758 15.6534 8.65591 15.6667 8.50008 15.6667C8.34508 15.6667 8.19425 15.6534 8.04175 15.6442ZM11.3842 15.0009C12.1801 13.5059 12.6659 11.7501 12.7934 9.83341H15.1084C14.9678 10.937 14.5534 11.9878 13.9029 12.8904C13.2525 13.7929 12.3867 14.5184 11.3842 15.0009Z" fill="url(#paint0_linear_3761_9389)"/>
<defs>
<linearGradient id="paint0_linear_3761_9389" x1="0.166748" y1="9.00008" x2="16.8334" y2="9.00008" gradientUnits="userSpaceOnUse">
<stop stop-color="#FB7BA2"/>
<stop offset="1" stop-color="#FCE043"/>
</linearGradient>
</defs>
</svg>
