<svg width="17" height="14" viewBox="0 0 17 14" fill="none" xmlns="http://www.w3.org/2000/svg">
<path d="M14.8609 3.66412C14.8717 3.80995 14.8717 3.95496 14.8717 4.09996C14.8717 8.53745 11.4942 13.6508 5.32175 13.6508C3.42008 13.6508 1.65341 13.1 0.166748 12.1433C0.436748 12.1741 0.696748 12.185 0.977581 12.185C2.48841 12.1886 3.95645 11.6834 5.14508 10.7508C4.4446 10.7381 3.76556 10.507 3.20278 10.0897C2.64 9.67247 2.22157 9.08987 2.00591 8.42329C2.21341 8.45412 2.42175 8.47496 2.64008 8.47496C2.94091 8.47496 3.24341 8.43329 3.52425 8.36079C2.76405 8.2073 2.08048 7.79525 1.58976 7.19469C1.09905 6.59414 0.831492 5.84216 0.832581 5.06662V5.02495C1.28008 5.27412 1.79925 5.42995 2.34925 5.45079C1.88849 5.14461 1.51068 4.72914 1.24953 4.24145C0.988381 3.75375 0.852009 3.209 0.852581 2.65579C0.852581 2.03245 1.01841 1.46079 1.30925 0.962455C2.1527 1.99997 3.20467 2.84876 4.39703 3.45384C5.58939 4.05892 6.89555 4.4068 8.23091 4.47496C8.17925 4.22495 8.14758 3.96579 8.14758 3.70579C8.14736 3.26492 8.23404 2.82834 8.40265 2.42099C8.57126 2.01364 8.8185 1.64352 9.13024 1.33178C9.44198 1.02004 9.8121 0.772797 10.2194 0.604186C10.6268 0.435576 11.0634 0.348902 11.5042 0.349122C12.4709 0.349122 13.3434 0.754121 13.9567 1.40912C14.7082 1.2638 15.4289 0.989473 16.0867 0.598288C15.8363 1.37397 15.3115 2.03171 14.6109 2.44829C15.2774 2.37227 15.9288 2.197 16.5434 1.92829C16.0844 2.59754 15.5155 3.18441 14.8609 3.66412Z" fill="url(#paint0_linear_3761_9394)"/>
<defs>
<linearGradient id="paint0_linear_3761_9394" x1="0.166748" y1="6.99992" x2="16.8334" y2="6.99992" gradientUnits="userSpaceOnUse">
<stop stop-color="#FB7BA2"/>
<stop offset="1" stop-color="#FCE043"/>
</linearGradient>
</defs>
</svg>
