<svg width="17" height="12" viewBox="0 0 17 12" fill="none" xmlns="http://www.w3.org/2000/svg">
<path d="M16.4942 2.00259C16.3993 1.65042 16.2138 1.32926 15.9562 1.07106C15.6986 0.812863 15.3778 0.626638 15.0259 0.530921C13.7209 0.172588 8.50003 0.166754 8.50003 0.166754C8.50003 0.166754 3.28003 0.160921 1.9742 0.503421C1.62247 0.603543 1.30238 0.792402 1.04467 1.05187C0.786955 1.31133 0.600269 1.63269 0.502531 1.98509C0.158364 3.29009 0.155031 5.99675 0.155031 5.99675C0.155031 5.99675 0.151697 8.71675 0.493364 10.0084C0.685031 10.7226 1.24753 11.2868 1.96253 11.4793C3.28086 11.8376 8.48753 11.8434 8.48753 11.8434C8.48753 11.8434 13.7084 11.8493 15.0134 11.5076C15.3654 11.412 15.6865 11.2262 15.9447 10.9686C16.203 10.7109 16.3895 10.3903 16.4859 10.0384C16.8309 8.73425 16.8334 6.02842 16.8334 6.02842C16.8334 6.02842 16.85 3.30759 16.4942 2.00259ZM6.83003 8.50425L6.8342 3.50425L11.1734 6.00842L6.83003 8.50425Z" fill="url(#paint0_linear_3761_9387)"/>
<defs>
<linearGradient id="paint0_linear_3761_9387" x1="8.49426" y1="0.166748" x2="8.49426" y2="11.8434" gradientUnits="userSpaceOnUse">
<stop stop-color="#FB7BA2"/>
<stop offset="1" stop-color="#FCE043"/>
</linearGradient>
</defs>
</svg>
