<svg width="25" height="18" viewBox="0 0 25 18" fill="none" xmlns="http://www.w3.org/2000/svg">
<path d="M7.80742 9.03355C10.2371 9.03355 12.0701 7.09134 12.0701 4.51678C12.0701 1.94221 10.2371 0 7.80742 0C5.3777 0 3.54476 1.94221 3.54476 4.51678C3.54476 7.09134 5.3777 9.03355 7.80742 9.03355ZM9.02532 10.257H6.58952C3.23176 10.257 0.5 13.1516 0.5 16.7095V18H15.1148V16.7095C15.1148 13.1516 12.3831 10.257 9.02532 10.257ZM22.7803 4.18124L17.5433 9.7201L15.9698 8.05277L14.2477 9.87755L17.5433 13.3671L24.5 6.0086L22.7803 4.18124Z" fill="#FFA4C0"/>
</svg>
