<svg width="16" height="15" viewBox="0 0 16 15" fill="none" xmlns="http://www.w3.org/2000/svg">
<path d="M1.54358 8.32837L7.41654 14.3971C7.45671 14.4386 7.4768 14.4594 7.49474 14.4756C7.7813 14.7359 8.2187 14.7359 8.50526 14.4756C8.5232 14.4594 8.54329 14.4386 8.58346 14.3971L14.4564 8.32837C15.932 6.8036 16.1148 4.44501 14.8918 2.71107L14.4328 2.06022C12.8683 -0.157895 9.4793 0.19056 8.3989 2.68063C8.24747 3.02964 7.75253 3.02964 7.6011 2.68063C6.5207 0.190561 3.13174 -0.157896 1.56724 2.06022L1.10818 2.71107C-0.114818 4.44501 0.0679966 6.8036 1.54358 8.32837Z" fill="#FFA4C0"/>
</svg>
