<svg width="20" height="19" viewBox="0 0 20 19" fill="none" xmlns="http://www.w3.org/2000/svg">
<path d="M1.00146 10.5V11.5C1.00146 13.7092 2.79233 15.5 5.00148 15.5V15.5C6.65834 15.5 8.00149 14.1569 8.00149 12.5V11.5C8.00149 10.3954 8.89693 9.5 10.0015 9.5V9.5C11.1061 9.5 12.0015 10.3954 12.0015 11.5V12.5C12.0015 14.1569 13.3447 15.5 15.0015 15.5V15.5C17.2107 15.5 19.0015 13.7092 19.0015 11.5V10.5" stroke="#FFA4C0" stroke-width="2.00001" stroke-linecap="round"/>
<path d="M12.0019 10.5H19.002L16.3268 2.47456C16.1269 1.875 15.612 1.43502 14.9886 1.33112V1.33112C13.9486 1.15779 13.0019 1.95978 13.0019 3.01412V3.50001" stroke="#FFA4C0" stroke-width="2.00001" stroke-linecap="round" stroke-linejoin="round"/>
<path d="M8.00149 10.5H1.00146L3.67662 2.47456C3.87648 1.875 4.39138 1.43502 5.01478 1.33112V1.33112C6.05477 1.15779 7.00149 1.95978 7.00149 3.01412V3.50001" stroke="#FFA4C0" stroke-width="2.00001" stroke-linecap="round" stroke-linejoin="round"/>
<path d="M7.5 12.9995C7.5 13.4865 7.22451 13.9745 6.68425 14.3604C6.14496 14.7456 5.3743 14.9995 4.5 14.9995C3.6257 14.9995 2.85504 14.7456 2.31575 14.3604C1.77549 13.9745 1.5 13.4865 1.5 12.9995C1.5 12.5125 1.77549 12.0245 2.31575 11.6386C2.85504 11.2534 3.6257 10.9995 4.5 10.9995C5.3743 10.9995 6.14496 11.2534 6.68425 11.6386C7.22451 12.0245 7.5 12.5125 7.5 12.9995Z" fill="#FFA4C0" stroke="#FFA4C0"/>
<path d="M18.5 12.4995C18.5 12.9865 18.2245 13.4745 17.6843 13.8604C17.145 14.2456 16.3743 14.4995 15.5 14.4995C14.6257 14.4995 13.855 14.2456 13.3157 13.8604C12.7755 13.4745 12.5 12.9865 12.5 12.4995C12.5 12.0125 12.7755 11.5245 13.3157 11.1386C13.855 10.7534 14.6257 10.4995 15.5 10.4995C16.3743 10.4995 17.145 10.7534 17.6843 11.1386C18.2245 11.5245 18.5 12.0125 18.5 12.4995Z" fill="#FFA4C0" stroke="#FFA4C0"/>
</svg>
