<svg width="19" height="18" viewBox="0 0 19 18" fill="none" xmlns="http://www.w3.org/2000/svg">
<path fill-rule="evenodd" clip-rule="evenodd" d="M9.5 18C14.4706 18 18.5 13.9706 18.5 9C18.5 4.02944 14.4706 0 9.5 0C4.52944 0 0.5 4.02944 0.5 9C0.5 13.9706 4.52944 18 9.5 18ZM6.9874 10.5H9.19293C9.33768 10.5 9.41006 10.5 9.45503 10.545C9.5 10.5899 9.5 10.6623 9.5 10.8071V15.1992C9.5 15.7138 9.5 15.9711 9.61826 15.999C9.73652 16.027 9.85159 15.7968 10.0817 15.3366L13.1112 9.27758C13.5096 8.48088 13.7087 8.08253 13.5287 7.79127C13.3487 7.5 12.9033 7.5 12.0126 7.5H9.80707C9.66232 7.5 9.58994 7.5 9.54497 7.45503C9.5 7.41006 9.5 7.33768 9.5 7.19293V2.80077C9.5 2.28617 9.5 2.02887 9.38174 2.00096C9.26348 1.97304 9.14841 2.20317 8.91828 2.66344L5.88879 8.72242C5.49044 9.51912 5.29127 9.91746 5.47128 10.2087C5.65129 10.5 6.09666 10.5 6.9874 10.5Z" fill="#FFA4C0"/>
</svg>
