<svg width="15" height="14" viewBox="0 0 15 14" fill="none" xmlns="http://www.w3.org/2000/svg">
<path fill-rule="evenodd" clip-rule="evenodd" d="M14.2501 6.99852V6.99854V6.99855C14.2501 9.09528 14.2501 10.1436 13.9076 10.9706C13.4508 12.0732 12.5748 12.9493 11.4722 13.406C10.6452 13.7485 9.59685 13.7485 7.50012 13.7485H7.50011H5.25011C3.12878 13.7485 2.06812 13.7485 1.40911 13.0895C0.750105 12.4305 0.750105 11.3699 0.750105 9.24854V6.99854C0.750105 4.9018 0.750105 3.85343 1.09265 3.02646C1.54937 1.92383 2.4254 1.0478 3.52803 0.591077C4.355 0.248535 5.40337 0.248535 7.50011 0.248535C9.59684 0.248535 10.6452 0.248535 11.4722 0.591077C12.5748 1.0478 13.4508 1.92383 13.9076 3.02646C14.2501 3.85343 14.2501 4.90179 14.2501 6.99852ZM4.24982 5.49886C4.24982 4.94658 4.69753 4.49886 5.24982 4.49886H9.74982C10.3021 4.49886 10.7498 4.94658 10.7498 5.49886C10.7498 6.05115 10.3021 6.49886 9.74982 6.49886H5.24982C4.69753 6.49886 4.24982 6.05115 4.24982 5.49886ZM4.24982 8.49944C4.24982 7.94716 4.69753 7.49944 5.24982 7.49944L7.49982 7.49944C8.0521 7.49944 8.49982 7.94715 8.49982 8.49944C8.49982 9.05172 8.0521 9.49944 7.49982 9.49944H5.24982C4.69753 9.49944 4.24982 9.05172 4.24982 8.49944Z" fill="#FFA4C0"/>
</svg>
