<svg width="22" height="18" viewBox="0 0 22 18" fill="none" xmlns="http://www.w3.org/2000/svg">
<g clip-path="url(#clip0_3882_10547)">
<path d="M11 6.75C10.5666 6.75 10.1375 6.8373 9.73714 7.00691C9.33677 7.17652 8.97298 7.42512 8.66655 7.73851C8.36011 8.05191 8.11704 8.42397 7.9512 8.83344C7.78536 9.24292 7.7 9.68179 7.7 10.125C7.7 10.5682 7.78536 11.0071 7.9512 11.4166C8.11704 11.826 8.36011 12.1981 8.66655 12.5115C8.97298 12.8249 9.33677 13.0735 9.73714 13.2431C10.1375 13.4127 10.5666 13.5 11 13.5C11.8752 13.5 12.7146 13.1444 13.3335 12.5115C13.9523 11.8786 14.3 11.0201 14.3 10.125C14.3 9.22989 13.9523 8.37145 13.3335 7.73851C12.7146 7.10558 11.8752 6.75 11 6.75ZM19.8 3.375H17.16C16.97 3.36614 16.7867 3.30074 16.6325 3.18682C16.4783 3.07291 16.36 2.91545 16.2921 2.73375L15.609 0.640125C15.5406 0.458631 15.422 0.301442 15.2677 0.187764C15.1133 0.0740857 14.93 0.00884047 14.74 0H7.26C6.897 0 6.5054 0.288 6.3921 0.639L5.7079 2.73375C5.63987 2.91537 5.52153 3.07275 5.36738 3.18665C5.21324 3.30054 5.02996 3.366 4.84 3.375H2.2C0.99 3.375 0 4.3875 0 5.625V15.75C0 16.9875 0.99 18 2.2 18H19.8C21.01 18 22 16.9875 22 15.75V5.625C22 4.3875 21.01 3.375 19.8 3.375ZM11 15.75C9.54131 15.75 8.14236 15.1574 7.11091 14.1025C6.07946 13.0476 5.5 11.6168 5.5 10.125C5.5 8.63316 6.07946 7.20242 7.11091 6.14752C8.14236 5.09263 9.54131 4.5 11 4.5C12.4587 4.5 13.8576 5.09263 14.8891 6.14752C15.9205 7.20242 16.5 8.63316 16.5 10.125C16.5 11.6168 15.9205 13.0476 14.8891 14.1025C13.8576 15.1574 12.4587 15.75 11 15.75ZM19.25 6.975C19.0458 6.975 18.8499 6.89203 18.7055 6.74435C18.5611 6.59666 18.48 6.39636 18.48 6.1875C18.48 5.97864 18.5611 5.77834 18.7055 5.63065C18.8499 5.48297 19.0458 5.4 19.25 5.4C19.4542 5.4 19.6501 5.48297 19.7945 5.63065C19.9389 5.77834 20.02 5.97864 20.02 6.1875C20.02 6.39636 19.9389 6.59666 19.7945 6.74435C19.6501 6.89203 19.4542 6.975 19.25 6.975Z" fill="#FFA4C0"/>
</g>
<defs>
<clipPath id="clip0_3882_10547">
<rect width="22" height="18" fill="white"/>
</clipPath>
</defs>
</svg>
