<svg width="19" height="18" viewBox="0 0 19 18" fill="none" xmlns="http://www.w3.org/2000/svg">
<g clip-path="url(#clip0_3882_10521)">
<rect x="0.5" width="18" height="18" rx="9" fill="#FFA4C0"/>
<g clip-path="url(#clip1_3882_10521)">
<path d="M9.5 1.66016C8.82437 1.66016 8.27669 2.20785 8.27669 2.88347V7.77671H3.38345C2.70783 7.77671 2.16014 8.32439 2.16014 9.00002C2.16014 9.67565 2.70783 10.2233 3.38345 10.2233H8.27669V15.1166C8.27669 15.7922 8.82437 16.3399 9.5 16.3399C10.1756 16.3399 10.7233 15.7922 10.7233 15.1166V10.2233H15.6166C16.2922 10.2233 16.8399 9.67565 16.8399 9.00002C16.8399 8.32439 16.2922 7.77671 15.6166 7.77671H10.7233V2.88347C10.7233 2.20785 10.1756 1.66016 9.5 1.66016Z" fill="white"/>
</g>
</g>
<defs>
<clipPath id="clip0_3882_10521">
<rect x="0.5" width="18" height="18" rx="9" fill="white"/>
</clipPath>
<clipPath id="clip1_3882_10521">
<rect width="14.6797" height="14.6797" fill="white" transform="translate(2.16014 1.66016)"/>
</clipPath>
</defs>
</svg>
