<svg width="17" height="18" viewBox="0 0 17 18" fill="none" xmlns="http://www.w3.org/2000/svg">
<path d="M8.5 8C9.56087 8 10.5783 7.57857 11.3284 6.82843C12.0786 6.07828 12.5 5.06087 12.5 4C12.5 2.93913 12.0786 1.92172 11.3284 1.17157C10.5783 0.421427 9.56087 0 8.5 0C7.43913 0 6.42172 0.421427 5.67157 1.17157C4.92143 1.92172 4.5 2.93913 4.5 4C4.5 5.06087 4.92143 6.07828 5.67157 6.82843C6.42172 7.57857 7.43913 8 8.5 8ZM8.5 10C6.94734 9.99883 5.41581 10.3598 4.02707 11.0541C2.63833 11.7485 1.43066 12.7572 0.5 14C1.43066 15.2428 2.63833 16.2515 4.02707 16.9459C5.41581 17.6402 6.94734 18.0012 8.5 18C10.0527 18.0012 11.5842 17.6402 12.9729 16.9459C14.3617 16.2515 15.5693 15.2428 16.5 14C15.5693 12.7572 14.3617 11.7485 12.9729 11.0541C11.5842 10.3598 10.0527 9.99883 8.5 10Z" fill="url(#paint0_linear_2287_8815)"/>
<defs>
<linearGradient id="paint0_linear_2287_8815" x1="0.5" y1="9.45996" x2="16.5" y2="9.45996" gradientUnits="userSpaceOnUse">
<stop stop-color="#FB7BA2"/>
<stop offset="1" stop-color="#FCE043"/>
</linearGradient>
</defs>
</svg>
