<svg width="20" height="20" viewBox="0 0 20 20" fill="none" xmlns="http://www.w3.org/2000/svg">
<path d="M6.28002 0.455721C6.91002 0.474881 7.52002 0.584881 8.11102 0.785881H8.17002C8.21002 0.804881 8.24002 0.825881 8.26002 0.844881C8.48102 0.915881 8.69002 0.995881 8.89002 1.10588L9.27002 1.27588C9.42002 1.35588 9.60002 1.50488 9.70002 1.56588C9.80002 1.62488 9.91002 1.68588 10 1.75488C11.111 0.905881 12.46 0.445881 13.85 0.455721C14.481 0.455721 15.111 0.544881 15.71 0.745881C19.401 1.94588 20.731 5.99588 19.62 9.53588C18.99 11.3449 17.96 12.9959 16.611 14.3449C14.68 16.2149 12.561 17.8749 10.28 19.3049L10.03 19.4559L9.77002 19.2949C7.48102 17.8749 5.35002 16.2149 3.40102 14.3349C2.06102 12.9859 1.03002 11.3449 0.390017 9.53588C-0.739983 5.99588 0.590017 1.94588 4.32102 0.724881C4.61102 0.624881 4.91002 0.554881 5.21002 0.515881H5.33002C5.61102 0.474881 5.89002 0.455721 6.17002 0.455721H6.28002ZM15.19 3.61588C14.78 3.47488 14.33 3.69588 14.18 4.11588C14.04 4.53588 14.26 4.99588 14.68 5.14488C15.321 5.38488 15.75 6.01588 15.75 6.71488V6.74588C15.731 6.97488 15.8 7.19588 15.94 7.36588C16.08 7.53588 16.29 7.63488 16.51 7.65588C16.92 7.64488 17.27 7.31588 17.3 6.89488V6.77588C17.33 5.37488 16.481 4.10588 15.19 3.61588Z" fill="url(#paint0_linear_3252_9299)"/>
<defs>
<linearGradient id="paint0_linear_3252_9299" x1="-3.50694e-07" y1="9.91553" x2="20" y2="9.91553" gradientUnits="userSpaceOnUse">
<stop stop-color="#FB7BA2"/>
<stop offset="1" stop-color="#FCE043"/>
</linearGradient>
</defs>
</svg>
