<svg width="20" height="20" viewBox="0 0 20 20" fill="none" xmlns="http://www.w3.org/2000/svg">
<path d="M14.3556 11.259C14.9116 10.207 15.2116 9.03098 15.2116 7.803C15.2116 5.827 14.4396 3.96699 13.0436 2.56699C10.1556 -0.320996 5.45562 -0.320996 2.5676 2.56699C-0.320386 5.45501 -0.320386 10.155 2.5676 13.043C4.01162 14.487 5.90762 15.207 7.80361 15.207C8.99561 15.207 10.1836 14.923 11.2636 14.355L14.5836 17.675L17.6756 14.579L14.3556 11.259ZM3.13562 12.475C0.559619 9.899 0.559619 5.71099 3.13562 3.13499C4.42361 1.847 6.11162 1.203 7.80361 1.203C9.49561 1.203 11.1876 1.847 12.4756 3.13499C13.7236 4.379 14.4116 6.03899 14.4116 7.803C14.4116 9.571 13.7236 11.231 12.4756 12.475C9.89961 15.051 5.71162 15.051 3.13562 12.475ZM18.9596 15.863L18.2396 15.143L15.1476 18.239L15.8676 18.959C16.2916 19.383 16.8516 19.599 17.4116 19.599C17.9716 19.599 18.5316 19.383 18.9596 18.959C19.8116 18.107 19.8116 16.715 18.9596 15.863Z" fill="url(#paint0_linear_2287_10227)"/>
<defs>
<linearGradient id="paint0_linear_2287_10227" x1="0.500114" y1="7.50012" x2="17.5001" y2="7.50012" gradientUnits="userSpaceOnUse">
<stop stop-color="#FB7BA2"/>
<stop offset="1" stop-color="#FCE043"/>
</linearGradient>
</defs>
</svg>
