<svg width="20" height="20" viewBox="0 0 20 20" fill="none" xmlns="http://www.w3.org/2000/svg">
<path d="M15.5 16H13.5C12.7044 16 11.9413 16.3161 11.3787 16.8787C10.8161 17.4413 10.5 18.2043 10.5 19C10.5 19.2652 10.6054 19.5196 10.7929 19.7071C10.9804 19.8946 11.2348 20 11.5 20C11.7652 20 12.0196 19.8946 12.2071 19.7071C12.3946 19.5196 12.5 19.2652 12.5 19C12.5 18.7348 12.6054 18.4804 12.7929 18.2929C12.9804 18.1054 13.2348 18 13.5 18H15.5C15.7652 18 16.0196 18.1054 16.2071 18.2929C16.3946 18.4804 16.5 18.7348 16.5 19C16.5 19.2652 16.6054 19.5196 16.7929 19.7071C16.9804 19.8946 17.2348 20 17.5 20C17.7652 20 18.0196 19.8946 18.2071 19.7071C18.3946 19.5196 18.5 19.2652 18.5 19C18.5 18.2043 18.1839 17.4413 17.6213 16.8787C17.0587 16.3161 16.2956 16 15.5 16ZM5.5 16H3.5C2.70435 16 1.94129 16.3161 1.37868 16.8787C0.816071 17.4413 0.5 18.2043 0.5 19C0.5 19.2652 0.605357 19.5196 0.792893 19.7071C0.98043 19.8946 1.23478 20 1.5 20C1.76522 20 2.01957 19.8946 2.20711 19.7071C2.39464 19.5196 2.5 19.2652 2.5 19C2.5 18.7348 2.60536 18.4804 2.79289 18.2929C2.98043 18.1054 3.23478 18 3.5 18H5.5C5.76522 18 6.01957 18.1054 6.20711 18.2929C6.39464 18.4804 6.5 18.7348 6.5 19C6.5 19.2652 6.60536 19.5196 6.79289 19.7071C6.98043 19.8946 7.23478 20 7.5 20C7.76522 20 8.01957 19.8946 8.20711 19.7071C8.39464 19.5196 8.5 19.2652 8.5 19C8.5 18.2043 8.18393 17.4413 7.62132 16.8787C7.05871 16.3161 6.29565 16 5.5 16ZM4.5 15C5.09334 15 5.67336 14.824 6.16671 14.4944C6.66006 14.1648 7.04458 13.6962 7.27164 13.148C7.4987 12.5999 7.55811 11.9967 7.44236 11.4147C7.3266 10.8328 7.04088 10.2982 6.62132 9.87868C6.20176 9.45912 5.66721 9.1734 5.08527 9.05764C4.50333 8.94188 3.90013 9.00129 3.35195 9.22836C2.80377 9.45542 2.33524 9.83994 2.00559 10.3333C1.67595 10.8266 1.5 11.4067 1.5 12C1.5 12.7956 1.81607 13.5587 2.37868 14.1213C2.94129 14.6839 3.70435 15 4.5 15ZM4.5 11C4.69778 11 4.89112 11.0586 5.05557 11.1685C5.22002 11.2784 5.34819 11.4346 5.42388 11.6173C5.49957 11.8 5.51937 12.0011 5.48079 12.1951C5.4422 12.3891 5.34696 12.5673 5.20711 12.7071C5.06725 12.847 4.88907 12.9422 4.69509 12.9808C4.50111 13.0194 4.30004 12.9996 4.11732 12.9239C3.93459 12.8482 3.77841 12.72 3.66853 12.5556C3.55865 12.3911 3.5 12.1978 3.5 12C3.5 11.7348 3.60536 11.4804 3.79289 11.2929C3.98043 11.1054 4.23478 11 4.5 11ZM13.96 6C14.2805 5.62303 14.5231 5.1862 14.6736 4.71483C14.8241 4.24345 14.8795 3.7469 14.8367 3.25394C14.7939 2.76098 14.6538 2.2814 14.4243 1.84301C14.1949 1.40461 13.8807 1.0161 13.5 0.699996C12.9258 0.246066 12.2098 0.00923485 11.4781 0.0311847C10.7465 0.0531345 10.046 0.332458 9.5 0.819996C8.954 0.332458 8.25353 0.0531345 7.52186 0.0311847C6.7902 0.00923485 6.07425 0.246066 5.5 0.699996C5.11932 1.0161 4.80515 1.40461 4.57569 1.84301C4.34623 2.2814 4.20605 2.76098 4.16327 3.25394C4.12048 3.7469 4.17594 4.24345 4.32644 4.71483C4.47693 5.1862 4.71947 5.62303 5.04 6H5.12L8.79 9.67C8.88296 9.76372 8.99356 9.83812 9.11542 9.88889C9.23728 9.93966 9.36799 9.96579 9.5 9.96579C9.63201 9.96579 9.76272 9.93966 9.88458 9.88889C10.0064 9.83812 10.117 9.76372 10.21 9.67L13.88 6H13.96ZM12.42 4.67L9.5 7.59L6.58 4.67C6.28528 4.32637 6.13608 3.8814 6.16409 3.42957C6.1921 2.97773 6.3951 2.5546 6.73 2.25C7.3 1.79 8.03 2.01 8.73 2.86C8.82383 2.97324 8.94149 3.06439 9.07458 3.12695C9.20768 3.18951 9.35293 3.22195 9.5 3.22195C9.64707 3.22195 9.79232 3.18951 9.92542 3.12695C10.0585 3.06439 10.1762 2.97324 10.27 2.86C10.97 2.01 11.7 1.79 12.27 2.25C12.6049 2.5546 12.8079 2.97773 12.8359 3.42957C12.8639 3.8814 12.7147 4.32637 12.42 4.67ZM19.21 9.29L18.91 9C18.5353 8.62749 18.0284 8.41841 17.5 8.41841C16.9716 8.41841 16.4647 8.62749 16.09 9L15.79 9.29C15.3869 9.0986 14.9462 8.99952 14.5 9C13.9067 9 13.3266 9.17594 12.8333 9.50559C12.3399 9.83523 11.9554 10.3038 11.7284 10.8519C11.5013 11.4001 11.4419 12.0033 11.5576 12.5853C11.6734 13.1672 11.9591 13.7018 12.3787 14.1213C12.7982 14.5409 13.3328 14.8266 13.9147 14.9424C14.4967 15.0581 15.0999 14.9987 15.6481 14.7716C16.1962 14.5446 16.6648 14.1601 16.9944 13.6667C17.3241 13.1734 17.5 12.5933 17.5 12C17.4974 11.553 17.3949 11.1123 17.2 10.71L17.49 10.41L17.78 10.71C17.873 10.8037 17.9836 10.8781 18.1054 10.9289C18.2273 10.9797 18.358 11.0058 18.49 11.0058C18.622 11.0058 18.7527 10.9797 18.8746 10.9289C18.9964 10.8781 19.107 10.8037 19.2 10.71C19.2944 10.6177 19.3696 10.5076 19.4212 10.3861C19.4728 10.2646 19.4999 10.1341 19.5008 10.0021C19.5017 9.87007 19.4765 9.73918 19.4266 9.61696C19.3767 9.49474 19.3031 9.38362 19.21 9.29ZM14.5 13C14.3022 13 14.1089 12.9413 13.9444 12.8315C13.78 12.7216 13.6518 12.5654 13.5761 12.3827C13.5004 12.2 13.4806 11.9989 13.5192 11.8049C13.5578 11.6109 13.653 11.4327 13.7929 11.2929C13.9327 11.153 14.1109 11.0578 14.3049 11.0192C14.4989 10.9806 14.7 11.0004 14.8827 11.0761C15.0654 11.1518 15.2216 11.28 15.3315 11.4444C15.4414 11.6089 15.5 11.8022 15.5 12C15.5 12.2652 15.3946 12.5196 15.2071 12.7071C15.0196 12.8946 14.7652 13 14.5 13Z" fill="url(#paint0_linear_3211_9010)"/>
<defs>
<linearGradient id="paint0_linear_3211_9010" x1="0.5" y1="9.97264" x2="19.5006" y2="9.97264" gradientUnits="userSpaceOnUse">
<stop stop-color="#FB7BA2"/>
<stop offset="1" stop-color="#FCE043"/>
</linearGradient>
</defs>
</svg>
