<svg width="24" height="24" viewBox="0 0 24 24" fill="none" xmlns="http://www.w3.org/2000/svg">
<path d="M16.24 7.76001L14.436 13.171C14.3378 13.4656 14.1724 13.7333 13.9528 13.9528C13.7333 14.1724 13.4656 14.3378 13.171 14.436L7.76001 16.24L9.56401 10.829C9.66219 10.5344 9.82762 10.2668 10.0472 10.0472C10.2668 9.82762 10.5344 9.66219 10.829 9.56401L16.24 7.76001Z" stroke="url(#paint0_linear_3937_1177)" stroke-width="2" stroke-linecap="round" stroke-linejoin="round"/>
<path d="M12 22C17.5228 22 22 17.5228 22 12C22 6.47715 17.5228 2 12 2C6.47715 2 2 6.47715 2 12C2 17.5228 6.47715 22 12 22Z" stroke="url(#paint1_linear_3937_1177)" stroke-width="2" stroke-linecap="round" stroke-linejoin="round"/>
<defs>
<linearGradient id="paint0_linear_3937_1177" x1="12" y1="7.76001" x2="12" y2="16.24" gradientUnits="userSpaceOnUse">
<stop stop-color="#FB7BA2"/>
<stop offset="1" stop-color="#FCE043"/>
</linearGradient>
<linearGradient id="paint1_linear_3937_1177" x1="2" y1="2" x2="22" y2="23.5" gradientUnits="userSpaceOnUse">
<stop stop-color="#FB7BA2"/>
<stop offset="1" stop-color="#FCE043"/>
</linearGradient>
</defs>
</svg>
