<svg width="20" height="19" viewBox="0 0 20 19" fill="none" xmlns="http://www.w3.org/2000/svg">
<path d="M6.28002 0.000154665C6.91002 0.0193143 7.52002 0.129314 8.11102 0.330314H8.17002C8.21002 0.349314 8.24002 0.370314 8.26002 0.389314C8.48102 0.460314 8.69002 0.540314 8.89002 0.650314L9.27002 0.820314C9.42002 0.900314 9.60002 1.04931 9.70002 1.11031C9.80002 1.16931 9.91002 1.23031 10 1.29931C11.111 0.450314 12.46 -0.00968566 13.85 0.000154665C14.481 0.000154665 15.111 0.0893143 15.71 0.290314C19.401 1.49031 20.731 5.54031 19.62 9.08031C18.99 10.8893 17.96 12.5403 16.611 13.8893C14.68 15.7593 12.561 17.4193 10.28 18.8493L10.03 19.0003L9.77002 18.8393C7.48102 17.4193 5.35002 15.7593 3.40102 13.8793C2.06102 12.5303 1.03002 10.8893 0.390017 9.08031C-0.739983 5.54031 0.590017 1.49031 4.32102 0.269314C4.61102 0.169314 4.91002 0.0993143 5.21002 0.0603143H5.33002C5.61102 0.0193143 5.89002 0.000154665 6.17002 0.000154665H6.28002ZM15.19 3.16031C14.78 3.01931 14.33 3.24031 14.18 3.66031C14.04 4.08031 14.26 4.54031 14.68 4.68931C15.321 4.92931 15.75 5.56031 15.75 6.25931V6.29031C15.731 6.51931 15.8 6.74031 15.94 6.91031C16.08 7.08031 16.29 7.17931 16.51 7.20031C16.92 7.18931 17.27 6.86031 17.3 6.43931V6.32031C17.33 4.91931 16.481 3.65031 15.19 3.16031Z" fill="#200E32" fill-opacity="0.25"/>
</svg>
