<svg width="20" height="21" viewBox="0 0 20 21" fill="none" xmlns="http://www.w3.org/2000/svg">
<path d="M14.3556 11.7144C14.9116 10.6624 15.2116 9.48643 15.2116 8.25845C15.2116 6.28245 14.4396 4.42244 13.0436 3.02244C10.1556 0.134448 5.45562 0.134448 2.5676 3.02244C-0.320386 5.91045 -0.320386 10.6104 2.5676 13.4984C4.01162 14.9424 5.90762 15.6624 7.80361 15.6624C8.99561 15.6624 10.1836 15.3784 11.2636 14.8104L14.5836 18.1304L17.6756 15.0344L14.3556 11.7144ZM3.13562 12.9304C0.559619 10.3544 0.559619 6.16643 3.13562 3.59043C4.42361 2.30244 6.11162 1.65845 7.80361 1.65845C9.49561 1.65845 11.1876 2.30244 12.4756 3.59043C13.7236 4.83445 14.4116 6.49443 14.4116 8.25845C14.4116 10.0264 13.7236 11.6864 12.4756 12.9304C9.89961 15.5064 5.71162 15.5064 3.13562 12.9304ZM18.9596 16.3184L18.2396 15.5984L15.1476 18.6944L15.8676 19.4144C16.2916 19.8384 16.8516 20.0544 17.4116 20.0544C17.9716 20.0544 18.5316 19.8384 18.9596 19.4144C19.8116 18.5624 19.8116 17.1704 18.9596 16.3184Z" fill="#200E32" fill-opacity="0.25"/>
</svg>
