<svg width="19" height="20" viewBox="0 0 19 20" fill="none" xmlns="http://www.w3.org/2000/svg">
<path d="M15 16H13C12.2044 16 11.4413 16.3161 10.8787 16.8787C10.3161 17.4413 10 18.2043 10 19C10 19.2652 10.1054 19.5196 10.2929 19.7071C10.4804 19.8946 10.7348 20 11 20C11.2652 20 11.5196 19.8946 11.7071 19.7071C11.8946 19.5196 12 19.2652 12 19C12 18.7348 12.1054 18.4804 12.2929 18.2929C12.4804 18.1054 12.7348 18 13 18H15C15.2652 18 15.5196 18.1054 15.7071 18.2929C15.8946 18.4804 16 18.7348 16 19C16 19.2652 16.1054 19.5196 16.2929 19.7071C16.4804 19.8946 16.7348 20 17 20C17.2652 20 17.5196 19.8946 17.7071 19.7071C17.8946 19.5196 18 19.2652 18 19C18 18.2043 17.6839 17.4413 17.1213 16.8787C16.5587 16.3161 15.7956 16 15 16ZM5 16H3C2.20435 16 1.44129 16.3161 0.87868 16.8787C0.316071 17.4413 0 18.2043 0 19C0 19.2652 0.105357 19.5196 0.292893 19.7071C0.48043 19.8946 0.734784 20 1 20C1.26522 20 1.51957 19.8946 1.70711 19.7071C1.89464 19.5196 2 19.2652 2 19C2 18.7348 2.10536 18.4804 2.29289 18.2929C2.48043 18.1054 2.73478 18 3 18H5C5.26522 18 5.51957 18.1054 5.70711 18.2929C5.89464 18.4804 6 18.7348 6 19C6 19.2652 6.10536 19.5196 6.29289 19.7071C6.48043 19.8946 6.73478 20 7 20C7.26522 20 7.51957 19.8946 7.70711 19.7071C7.89464 19.5196 8 19.2652 8 19C8 18.2043 7.68393 17.4413 7.12132 16.8787C6.55871 16.3161 5.79565 16 5 16ZM4 15C4.59334 15 5.17336 14.824 5.66671 14.4944C6.16006 14.1648 6.54458 13.6962 6.77164 13.148C6.9987 12.5999 7.05811 11.9967 6.94236 11.4147C6.8266 10.8328 6.54088 10.2982 6.12132 9.87868C5.70176 9.45912 5.16721 9.1734 4.58527 9.05764C4.00333 8.94188 3.40013 9.00129 2.85195 9.22836C2.30377 9.45542 1.83524 9.83994 1.50559 10.3333C1.17595 10.8266 1 11.4067 1 12C1 12.7956 1.31607 13.5587 1.87868 14.1213C2.44129 14.6839 3.20435 15 4 15ZM4 11C4.19778 11 4.39112 11.0586 4.55557 11.1685C4.72002 11.2784 4.84819 11.4346 4.92388 11.6173C4.99957 11.8 5.01937 12.0011 4.98079 12.1951C4.9422 12.3891 4.84696 12.5673 4.70711 12.7071C4.56725 12.847 4.38907 12.9422 4.19509 12.9808C4.00111 13.0194 3.80004 12.9996 3.61732 12.9239C3.43459 12.8482 3.27841 12.72 3.16853 12.5556C3.05865 12.3911 3 12.1978 3 12C3 11.7348 3.10536 11.4804 3.29289 11.2929C3.48043 11.1054 3.73478 11 4 11ZM13.46 6C13.7805 5.62303 14.0231 5.1862 14.1736 4.71483C14.3241 4.24345 14.3795 3.7469 14.3367 3.25394C14.2939 2.76098 14.1538 2.2814 13.9243 1.84301C13.6949 1.40461 13.3807 1.0161 13 0.699996C12.4258 0.246066 11.7098 0.00923485 10.9781 0.0311847C10.2465 0.0531345 9.546 0.332458 9 0.819996C8.454 0.332458 7.75353 0.0531345 7.02186 0.0311847C6.2902 0.00923485 5.57425 0.246066 5 0.699996C4.61932 1.0161 4.30515 1.40461 4.07569 1.84301C3.84623 2.2814 3.70605 2.76098 3.66327 3.25394C3.62048 3.7469 3.67594 4.24345 3.82644 4.71483C3.97693 5.1862 4.21947 5.62303 4.54 6H4.62L8.29 9.67C8.38296 9.76372 8.49356 9.83812 8.61542 9.88889C8.73728 9.93966 8.86799 9.96579 9 9.96579C9.13201 9.96579 9.26272 9.93966 9.38458 9.88889C9.50644 9.83812 9.61704 9.76372 9.71 9.67L13.38 6H13.46ZM11.92 4.67L9 7.59L6.08 4.67C5.78528 4.32637 5.63608 3.8814 5.66409 3.42957C5.6921 2.97773 5.8951 2.5546 6.23 2.25C6.8 1.79 7.53 2.01 8.23 2.86C8.32383 2.97324 8.44149 3.06439 8.57458 3.12695C8.70768 3.18951 8.85293 3.22195 9 3.22195C9.14707 3.22195 9.29232 3.18951 9.42542 3.12695C9.55851 3.06439 9.67617 2.97324 9.77 2.86C10.47 2.01 11.2 1.79 11.77 2.25C12.1049 2.5546 12.3079 2.97773 12.3359 3.42957C12.3639 3.8814 12.2147 4.32637 11.92 4.67ZM18.71 9.29L18.41 9C18.0353 8.62749 17.5284 8.41841 17 8.41841C16.4716 8.41841 15.9647 8.62749 15.59 9L15.29 9.29C14.8869 9.0986 14.4462 8.99952 14 9C13.4067 9 12.8266 9.17594 12.3333 9.50559C11.8399 9.83523 11.4554 10.3038 11.2284 10.8519C11.0013 11.4001 10.9419 12.0033 11.0576 12.5853C11.1734 13.1672 11.4591 13.7018 11.8787 14.1213C12.2982 14.5409 12.8328 14.8266 13.4147 14.9424C13.9967 15.0581 14.5999 14.9987 15.1481 14.7716C15.6962 14.5446 16.1648 14.1601 16.4944 13.6667C16.8241 13.1734 17 12.5933 17 12C16.9974 11.553 16.8949 11.1123 16.7 10.71L16.99 10.41L17.28 10.71C17.373 10.8037 17.4836 10.8781 17.6054 10.9289C17.7273 10.9797 17.858 11.0058 17.99 11.0058C18.122 11.0058 18.2527 10.9797 18.3746 10.9289C18.4964 10.8781 18.607 10.8037 18.7 10.71C18.7944 10.6177 18.8696 10.5076 18.9212 10.3861C18.9728 10.2646 18.9999 10.1341 19.0008 10.0021C19.0017 9.87007 18.9765 9.73918 18.9266 9.61696C18.8767 9.49474 18.8031 9.38362 18.71 9.29ZM14 13C13.8022 13 13.6089 12.9413 13.4444 12.8315C13.28 12.7216 13.1518 12.5654 13.0761 12.3827C13.0004 12.2 12.9806 11.9989 13.0192 11.8049C13.0578 11.6109 13.153 11.4327 13.2929 11.2929C13.4327 11.153 13.6109 11.0578 13.8049 11.0192C13.9989 10.9806 14.2 11.0004 14.3827 11.0761C14.5654 11.1518 14.7216 11.28 14.8315 11.4444C14.9414 11.6089 15 11.8022 15 12C15 12.2652 14.8946 12.5196 14.7071 12.7071C14.5196 12.8946 14.2652 13 14 13Z" fill="#200E32" fill-opacity="0.25"/>
</svg>
