<svg width="49" height="49" viewBox="0 0 49 49" fill="none" xmlns="http://www.w3.org/2000/svg">
<rect width="48" height="48" transform="translate(0.5 0.643066)" fill="white"/>
<g clip-path="url(#clip0_3212_13038)">
<rect x="12.5" y="12.6431" width="24" height="24" rx="12" fill="url(#paint0_linear_3212_13038)"/>
<g clip-path="url(#clip1_3212_13038)">
<path d="M24.5 17.3032C23.8244 17.3032 23.2767 17.8509 23.2767 18.5265V23.4198H18.3834C17.7078 23.4198 17.1601 23.9675 17.1601 24.6431C17.1601 25.3187 17.7078 25.8664 18.3834 25.8664H23.2767V30.7596C23.2767 31.4353 23.8244 31.983 24.5 31.983C25.1756 31.983 25.7233 31.4353 25.7233 30.7596V25.8664H30.6165C31.2922 25.8664 31.8399 25.3187 31.8399 24.6431C31.8399 23.9675 31.2922 23.4198 30.6165 23.4198H25.7233V18.5265C25.7233 17.8509 25.1756 17.3032 24.5 17.3032Z" fill="white"/>
</g>
</g>
<rect x="12.9587" y="13.1018" width="23.0825" height="23.0825" rx="11.5413" stroke="url(#paint1_linear_3212_13038)" stroke-width="0.917483"/>
<defs>
<linearGradient id="paint0_linear_3212_13038" x1="12.5" y1="36.6431" x2="36.5" y2="12.6431" gradientUnits="userSpaceOnUse">
<stop stop-color="#FB7BA2"/>
<stop offset="1" stop-color="#FCE043"/>
</linearGradient>
<linearGradient id="paint1_linear_3212_13038" x1="36.5" y1="24.6431" x2="12.5" y2="24.6431" gradientUnits="userSpaceOnUse">
<stop stop-color="#FB7BA2"/>
<stop offset="1" stop-color="#FCE043"/>
</linearGradient>
<clipPath id="clip0_3212_13038">
<rect x="12.5" y="12.6431" width="24" height="24" rx="12" fill="white"/>
</clipPath>
<clipPath id="clip1_3212_13038">
<rect width="14.6797" height="14.6797" fill="white" transform="translate(17.1601 17.3032)"/>
</clipPath>
</defs>
</svg>
