<svg width="29" height="36" viewBox="0 0 29 36" fill="none" xmlns="http://www.w3.org/2000/svg">
<path d="M23.8763 19.2799C23.9252 24.5674 28.5152 26.3271 28.5659 26.3496C28.527 26.4734 27.8326 28.8573 26.148 31.319C24.6916 33.4475 23.1799 35.5682 20.7991 35.6126C18.4597 35.6554 17.7074 34.2249 15.0324 34.2249C12.3583 34.2249 11.5227 35.5682 9.30783 35.6554C7.00945 35.7425 5.25923 33.3533 3.79083 31.233C0.790451 26.895 -1.50258 18.9747 1.57626 13.6284C3.1057 10.9734 5.83945 9.29239 8.80636 9.24908C11.0631 9.20605 13.1933 10.7673 14.5728 10.7673C15.9515 10.7673 18.5401 8.88964 21.2615 9.16527C22.4009 9.2128 25.5987 9.62539 27.6521 12.6314C27.487 12.734 23.8366 14.8592 23.8763 19.2799ZM19.4795 6.29567C20.6996 4.81883 21.5208 2.76233 21.2969 0.716797C19.538 0.787391 17.4112 1.88877 16.1498 3.36505C15.0192 4.67202 14.0292 6.76452 14.2961 8.76955C16.2567 8.92142 18.2592 7.77336 19.4795 6.29567Z" fill="black"/>
</svg>
