<svg width="24" height="25" viewBox="0 0 24 25" fill="none" xmlns="http://www.w3.org/2000/svg">
<path d="M3.00122 14.5005V15.5005C3.00122 17.7096 4.79209 19.5005 7.00124 19.5005V19.5005C8.6581 19.5005 10.0013 18.1574 10.0013 16.5005V15.5005C10.0013 14.3959 10.8967 13.5005 12.0013 13.5005V13.5005C13.1058 13.5005 14.0013 14.3959 14.0013 15.5005V16.5005C14.0013 18.1574 15.3444 19.5005 17.0013 19.5005V19.5005C19.2104 19.5005 21.0013 17.7096 21.0013 15.5005V14.5005" stroke="black" stroke-width="2.00001" stroke-linecap="round"/>
<path d="M14.0016 14.5005H21.0016L18.3264 6.47505C18.1266 5.87549 17.6117 5.43551 16.9883 5.33161V5.33161C15.9483 5.15828 15.0016 5.96027 15.0016 7.0146V7.5005" stroke="black" stroke-width="2.00001" stroke-linecap="round" stroke-linejoin="round"/>
<path d="M10.0012 14.5005H3.00122L5.67638 6.47505C5.87623 5.87549 6.39114 5.43551 7.01453 5.33161V5.33161C8.05452 5.15828 9.00125 5.96027 9.00125 7.0146V7.5005" stroke="black" stroke-width="2.00001" stroke-linecap="round" stroke-linejoin="round"/>
<ellipse cx="6.49988" cy="17" rx="3.5" ry="2.5" fill="black"/>
<ellipse cx="17.4999" cy="16.5" rx="3.5" ry="2.5" fill="black"/>
</svg>
