<svg width="27" height="34" viewBox="0 0 27 34" fill="none" xmlns="http://www.w3.org/2000/svg">
<mask id="path-1-inside-1_3262_9066" fill="white">
<path fill-rule="evenodd" clip-rule="evenodd" d="M13.5001 27.7887C19.4832 27.7887 24.3334 22.9385 24.3334 16.9554C24.3334 10.9723 19.4832 6.12207 13.5001 6.12207C7.517 6.12207 2.66675 10.9723 2.66675 16.9554C2.66675 22.9385 7.517 27.7887 13.5001 27.7887ZM10.0059 18.9051H13.1933C13.3381 18.9051 13.4105 18.9051 13.4554 18.95C13.5004 18.995 13.5004 19.0674 13.5004 19.2121V25.3109C13.5004 25.8579 13.5004 26.1314 13.6209 26.1579C13.7414 26.1845 13.8563 25.9363 14.0861 25.4399L18.1095 16.7494C18.4729 15.9644 18.6546 15.572 18.4735 15.2885C18.2924 15.0051 17.8599 15.0051 16.9949 15.0051H13.8075C13.6627 15.0051 13.5903 15.0051 13.5454 14.9601C13.5004 14.9151 13.5004 14.8428 13.5004 14.698V8.59925C13.5004 8.05226 13.5004 7.77877 13.3799 7.75222C13.2594 7.72568 13.1445 7.97387 12.9147 8.47024L8.89129 17.1608C8.52789 17.9457 8.34619 18.3382 8.52732 18.6216C8.70845 18.9051 9.14094 18.9051 10.0059 18.9051Z"/>
</mask>
<path fill-rule="evenodd" clip-rule="evenodd" d="M13.5001 27.7887C19.4832 27.7887 24.3334 22.9385 24.3334 16.9554C24.3334 10.9723 19.4832 6.12207 13.5001 6.12207C7.517 6.12207 2.66675 10.9723 2.66675 16.9554C2.66675 22.9385 7.517 27.7887 13.5001 27.7887ZM10.0059 18.9051H13.1933C13.3381 18.9051 13.4105 18.9051 13.4554 18.95C13.5004 18.995 13.5004 19.0674 13.5004 19.2121V25.3109C13.5004 25.8579 13.5004 26.1314 13.6209 26.1579C13.7414 26.1845 13.8563 25.9363 14.0861 25.4399L18.1095 16.7494C18.4729 15.9644 18.6546 15.572 18.4735 15.2885C18.2924 15.0051 17.8599 15.0051 16.9949 15.0051H13.8075C13.6627 15.0051 13.5903 15.0051 13.5454 14.9601C13.5004 14.9151 13.5004 14.8428 13.5004 14.698V8.59925C13.5004 8.05226 13.5004 7.77877 13.3799 7.75222C13.2594 7.72568 13.1445 7.97387 12.9147 8.47024L8.89129 17.1608C8.52789 17.9457 8.34619 18.3382 8.52732 18.6216C8.70845 18.9051 9.14094 18.9051 10.0059 18.9051Z" fill="url(#paint0_linear_3262_9066)"/>
<path d="M13.4554 18.95L12.7483 19.6571L12.7483 19.6572L13.4554 18.95ZM14.0861 25.4399L14.9936 25.86L14.0861 25.4399ZM18.1095 16.7494L17.2021 16.3293V16.3293L18.1095 16.7494ZM18.4735 15.2885L19.3161 14.7501V14.7501L18.4735 15.2885ZM12.9147 8.47024L13.8221 8.89037V8.89037L12.9147 8.47024ZM8.89129 17.1608L7.98382 16.7406V16.7406L8.89129 17.1608ZM8.52732 18.6216L9.36997 18.0832L9.36997 18.0832L8.52732 18.6216ZM23.3334 16.9554C23.3334 22.3862 18.9309 26.7887 13.5001 26.7887V28.7887C20.0355 28.7887 25.3334 23.4908 25.3334 16.9554H23.3334ZM13.5001 7.12207C18.9309 7.12207 23.3334 11.5246 23.3334 16.9554H25.3334C25.3334 10.42 20.0355 5.12207 13.5001 5.12207V7.12207ZM3.66675 16.9554C3.66675 11.5246 8.06928 7.12207 13.5001 7.12207V5.12207C6.96471 5.12207 1.66675 10.42 1.66675 16.9554H3.66675ZM13.5001 26.7887C8.06928 26.7887 3.66675 22.3862 3.66675 16.9554H1.66675C1.66675 23.4908 6.96471 28.7887 13.5001 28.7887V26.7887ZM13.1933 17.9051H10.0059V19.9051H13.1933V17.9051ZM14.1626 18.2429C13.9233 18.0037 13.6478 17.9401 13.4951 17.9196C13.3711 17.903 13.2374 17.9051 13.1933 17.9051V19.9051C13.2332 19.9051 13.2512 19.9051 13.2638 19.9055C13.2769 19.9058 13.2598 19.906 13.2286 19.9018C13.1967 19.8975 13.1245 19.8855 13.0354 19.8488C12.9383 19.8089 12.8377 19.7465 12.7483 19.6571L14.1626 18.2429ZM14.5004 19.2121C14.5004 19.168 14.5025 19.0344 14.4859 18.9104C14.4653 18.7577 14.4018 18.4822 14.1625 18.2429L12.7483 19.6572C12.659 19.5678 12.5966 19.4672 12.5566 19.3701C12.52 19.281 12.508 19.2088 12.5037 19.1769C12.4995 19.1457 12.4997 19.1285 12.5 19.1417C12.5003 19.1543 12.5004 19.1722 12.5004 19.2121H14.5004ZM14.5004 25.3109V19.2121H12.5004V25.3109H14.5004ZM13.836 25.1813C14.0091 25.2195 14.1593 25.305 14.2742 25.4154C14.3805 25.5177 14.4366 25.6214 14.4642 25.6833C14.5126 25.7915 14.5142 25.864 14.5097 25.8227C14.507 25.7975 14.5039 25.7465 14.5021 25.652C14.5004 25.5601 14.5004 25.4505 14.5004 25.3109H12.5004C12.5004 25.5575 12.4989 25.8295 12.5212 26.0365C12.5318 26.1352 12.556 26.3152 12.6383 26.4993C12.7306 26.7059 12.9564 27.0355 13.4058 27.1345L13.836 25.1813ZM13.1787 25.0198C13.12 25.1465 13.0739 25.2459 13.0338 25.3286C12.9925 25.4136 12.9682 25.4585 12.9552 25.4803C12.9338 25.5159 12.9657 25.4508 13.0551 25.3729C13.1062 25.3284 13.2006 25.2578 13.3401 25.2097C13.4907 25.1577 13.6629 25.1432 13.836 25.1813L13.4058 27.1345C13.8553 27.2335 14.1986 27.0292 14.3692 26.8806C14.5212 26.7481 14.6188 26.5949 14.6699 26.5098C14.777 26.3313 14.89 26.0838 14.9936 25.86L13.1787 25.0198ZM17.2021 16.3293L13.1787 25.0198L14.9936 25.86L19.017 17.1695L17.2021 16.3293ZM17.6308 15.827C17.5702 15.7321 17.5469 15.6312 17.5446 15.557C17.5429 15.5003 17.5543 15.4876 17.5364 15.5485C17.5191 15.6073 17.4863 15.6961 17.4268 15.8342C17.3679 15.9709 17.2946 16.1294 17.2021 16.3293L19.017 17.1695C19.1847 16.8072 19.3609 16.4331 19.455 16.1133C19.554 15.7772 19.6388 15.2549 19.3161 14.7501L17.6308 15.827ZM16.9949 16.0051C17.2152 16.0051 17.3897 16.0052 17.5385 16.0091C17.6889 16.0132 17.7832 16.0207 17.8439 16.0297C17.9066 16.039 17.8903 16.0441 17.8396 16.0187C17.7733 15.9854 17.6915 15.9218 17.6308 15.827L19.3161 14.7501C18.9935 14.2452 18.484 14.1027 18.1374 14.0513C17.8077 14.0024 17.3941 14.0051 16.9949 14.0051V16.0051ZM13.8075 16.0051H16.9949V14.0051H13.8075V16.0051ZM12.8383 15.6672C13.0775 15.9065 13.3531 15.97 13.5058 15.9905C13.6297 16.0072 13.7634 16.0051 13.8075 16.0051V14.0051C13.7676 14.0051 13.7496 14.005 13.737 14.0047C13.7239 14.0044 13.741 14.0042 13.7723 14.0084C13.8041 14.0127 13.8763 14.0247 13.9654 14.0613C14.0625 14.1012 14.1631 14.1636 14.2525 14.253L12.8383 15.6672ZM12.5004 14.698C12.5004 14.7421 12.4983 14.8758 12.5149 14.9997C12.5355 15.1524 12.599 15.428 12.8383 15.6672L14.2525 14.253C14.3419 14.3424 14.4042 14.443 14.4442 14.5401C14.4808 14.6291 14.4928 14.7013 14.4971 14.7332C14.5013 14.7645 14.5011 14.7816 14.5008 14.7685C14.5005 14.7558 14.5004 14.7379 14.5004 14.698H12.5004ZM12.5004 8.59925V14.698H14.5004V8.59925H12.5004ZM13.1648 8.72882C12.9917 8.69069 12.8416 8.60518 12.7267 8.49472C12.6203 8.3925 12.5643 8.28876 12.5366 8.22687C12.4882 8.11861 12.4866 8.04616 12.4911 8.0875C12.4938 8.11269 12.497 8.16368 12.4987 8.25816C12.5004 8.35007 12.5004 8.45967 12.5004 8.59925H14.5004C14.5004 8.35264 14.5019 8.08064 14.4796 7.87364C14.469 7.77491 14.4448 7.59493 14.3625 7.41083C14.2702 7.20426 14.0445 6.87463 13.595 6.77563L13.1648 8.72882ZM13.8221 8.89037C13.8808 8.7637 13.9269 8.66426 13.967 8.58156C14.0083 8.49655 14.0326 8.45161 14.0456 8.42989C14.067 8.39425 14.0351 8.45933 13.9458 8.53724C13.8947 8.58178 13.8002 8.65237 13.6608 8.70046C13.5101 8.75242 13.3379 8.76694 13.1648 8.72882L13.595 6.77563C13.1455 6.67664 12.8022 6.88092 12.6316 7.02959C12.4796 7.16208 12.382 7.31526 12.3309 7.40039C12.2238 7.57889 12.1108 7.82633 12.0072 8.05012L13.8221 8.89037ZM9.79876 17.5809L13.8221 8.89037L12.0072 8.05012L7.98382 16.7406L9.79876 17.5809ZM9.36997 18.0832C9.43059 18.178 9.45389 18.279 9.45619 18.3532C9.45795 18.4098 9.44649 18.4225 9.46439 18.3617C9.48172 18.3028 9.51455 18.2141 9.57405 18.0759C9.63295 17.9392 9.70621 17.7808 9.79876 17.5809L7.98382 16.7406C7.8161 17.1029 7.63996 17.4771 7.54582 17.7968C7.44686 18.1329 7.36206 18.6552 7.68467 19.1601L9.36997 18.0832ZM10.0059 17.9051C9.78564 17.9051 9.61109 17.905 9.46227 17.901C9.31194 17.897 9.21757 17.8895 9.15689 17.8805C9.09417 17.8712 9.11051 17.8661 9.16119 17.8915C9.22753 17.9247 9.30936 17.9883 9.36997 18.0832L7.68467 19.1601C8.00728 19.6649 8.51685 19.8074 8.86346 19.8588C9.19315 19.9077 9.60669 19.9051 10.0059 19.9051V17.9051Z" fill="url(#paint1_linear_3262_9066)" mask="url(#path-1-inside-1_3262_9066)"/>
<defs>
<linearGradient id="paint0_linear_3262_9066" x1="1.50009" y1="16.9551" x2="24.5001" y2="16.9551" gradientUnits="userSpaceOnUse">
<stop stop-color="#FB7BA2"/>
<stop offset="1" stop-color="#FCE043"/>
</linearGradient>
<linearGradient id="paint1_linear_3262_9066" x1="4.50009" y1="16.9551" x2="24.5001" y2="16.9551" gradientUnits="userSpaceOnUse">
<stop stop-color="#FCE043"/>
<stop offset="1" stop-color="#FB7BA2"/>
</linearGradient>
</defs>
</svg>
