<svg width="48" height="49" viewBox="0 0 48 49" fill="none" xmlns="http://www.w3.org/2000/svg">
<mask id="path-1-inside-1_2287_12152" fill="white">
<path fill-rule="evenodd" clip-rule="evenodd" d="M24 35.4762C29.9831 35.4762 34.8333 30.626 34.8333 24.6429C34.8333 18.6598 29.9831 13.8096 24 13.8096C18.0169 13.8096 13.1667 18.6598 13.1667 24.6429C13.1667 30.626 18.0169 35.4762 24 35.4762ZM20.5058 26.5926H23.6933C23.838 26.5926 23.9104 26.5926 23.9554 26.6375C24.0003 26.6825 24.0003 26.7549 24.0003 26.8996V32.9984C24.0003 33.5454 24.0003 33.8189 24.1208 33.8454C24.2414 33.872 24.3563 33.6238 24.5861 33.1274L28.6094 24.4369C28.9728 23.6519 29.1545 23.2595 28.9734 22.976C28.7923 22.6926 28.3598 22.6926 27.4948 22.6926H24.3074C24.1626 22.6926 24.0903 22.6926 24.0453 22.6476C24.0003 22.6026 24.0003 22.5303 24.0003 22.3855V16.2868C24.0003 15.7398 24.0003 15.4663 23.8798 15.4397C23.7593 15.4132 23.6444 15.6614 23.4146 16.1577L19.3912 24.8483C19.0278 25.6332 18.8461 26.0257 19.0272 26.3091C19.2084 26.5926 19.6409 26.5926 20.5058 26.5926Z"/>
</mask>
<path fill-rule="evenodd" clip-rule="evenodd" d="M24 35.4762C29.9831 35.4762 34.8333 30.626 34.8333 24.6429C34.8333 18.6598 29.9831 13.8096 24 13.8096C18.0169 13.8096 13.1667 18.6598 13.1667 24.6429C13.1667 30.626 18.0169 35.4762 24 35.4762ZM20.5058 26.5926H23.6933C23.838 26.5926 23.9104 26.5926 23.9554 26.6375C24.0003 26.6825 24.0003 26.7549 24.0003 26.8996V32.9984C24.0003 33.5454 24.0003 33.8189 24.1208 33.8454C24.2414 33.872 24.3563 33.6238 24.5861 33.1274L28.6094 24.4369C28.9728 23.6519 29.1545 23.2595 28.9734 22.976C28.7923 22.6926 28.3598 22.6926 27.4948 22.6926H24.3074C24.1626 22.6926 24.0903 22.6926 24.0453 22.6476C24.0003 22.6026 24.0003 22.5303 24.0003 22.3855V16.2868C24.0003 15.7398 24.0003 15.4663 23.8798 15.4397C23.7593 15.4132 23.6444 15.6614 23.4146 16.1577L19.3912 24.8483C19.0278 25.6332 18.8461 26.0257 19.0272 26.3091C19.2084 26.5926 19.6409 26.5926 20.5058 26.5926Z" fill="url(#paint0_linear_2287_12152)"/>
<path d="M23.9554 26.6375L23.2482 27.3446L23.2483 27.3447L23.9554 26.6375ZM24.5861 33.1274L25.4935 33.5475L24.5861 33.1274ZM28.6094 24.4369L27.702 24.0168V24.0168L28.6094 24.4369ZM28.9734 22.976L29.8161 22.4376V22.4376L28.9734 22.976ZM23.4146 16.1577L24.3221 16.5779V16.5779L23.4146 16.1577ZM19.3912 24.8483L18.4837 24.4281V24.4281L19.3912 24.8483ZM19.0272 26.3091L19.8699 25.7707L19.8699 25.7707L19.0272 26.3091ZM33.8333 24.6429C33.8333 30.0737 29.4308 34.4762 24 34.4762V36.4762C30.5354 36.4762 35.8333 31.1783 35.8333 24.6429H33.8333ZM24 14.8096C29.4308 14.8096 33.8333 19.2121 33.8333 24.6429H35.8333C35.8333 18.1075 30.5354 12.8096 24 12.8096V14.8096ZM14.1667 24.6429C14.1667 19.2121 18.5692 14.8096 24 14.8096V12.8096C17.4646 12.8096 12.1667 18.1075 12.1667 24.6429H14.1667ZM24 34.4762C18.5692 34.4762 14.1667 30.0737 14.1667 24.6429H12.1667C12.1667 31.1783 17.4646 36.4762 24 36.4762V34.4762ZM23.6933 25.5926H20.5058V27.5926H23.6933V25.5926ZM24.6625 25.9304C24.4232 25.6912 24.1477 25.6276 23.995 25.6071C23.871 25.5905 23.7374 25.5926 23.6933 25.5926V27.5926C23.7332 27.5926 23.7511 27.5926 23.7637 27.593C23.7769 27.5933 23.7597 27.5935 23.7285 27.5893C23.6966 27.585 23.6244 27.573 23.5353 27.5363C23.4383 27.4964 23.3376 27.434 23.2482 27.3446L24.6625 25.9304ZM25.0003 26.8996C25.0003 26.8555 25.0025 26.7219 24.9858 26.5979C24.9653 26.4452 24.9017 26.1697 24.6625 25.9304L23.2483 27.3447C23.1589 27.2553 23.0965 27.1547 23.0566 27.0576C23.0199 26.9685 23.0079 26.8963 23.0036 26.8644C22.9994 26.8332 22.9996 26.816 22.9999 26.8292C23.0003 26.8418 23.0003 26.8597 23.0003 26.8996H25.0003ZM25.0003 32.9984V26.8996H23.0003V32.9984H25.0003ZM24.3359 32.8688C24.509 32.907 24.6592 32.9925 24.7741 33.1029C24.8804 33.2052 24.9365 33.3089 24.9641 33.3708C25.0125 33.479 25.0141 33.5515 25.0097 33.5102C25.007 33.485 25.0038 33.434 25.002 33.3395C25.0004 33.2476 25.0003 33.138 25.0003 32.9984H23.0003C23.0003 33.245 22.9989 33.517 23.0211 33.724C23.0317 33.8227 23.0559 34.0027 23.1382 34.1868C23.2305 34.3934 23.4563 34.723 23.9057 34.822L24.3359 32.8688ZM23.6786 32.7073C23.6199 32.834 23.5739 32.9334 23.5337 33.0161C23.4925 33.1011 23.4682 33.146 23.4551 33.1678C23.4337 33.2034 23.4656 33.1383 23.555 33.0604C23.6061 33.0159 23.7005 32.9453 23.84 32.8972C23.9907 32.8452 24.1628 32.8307 24.3359 32.8688L23.9057 34.822C24.3552 34.921 24.6986 34.7167 24.8691 34.5681C25.0211 34.4356 25.1187 34.2824 25.1698 34.1973C25.277 34.0188 25.3899 33.7713 25.4935 33.5475L23.6786 32.7073ZM27.702 24.0168L23.6786 32.7073L25.4935 33.5475L29.5169 24.857L27.702 24.0168ZM28.1308 23.5145C28.0701 23.4196 28.0468 23.3187 28.0445 23.2445C28.0428 23.1878 28.0543 23.1751 28.0363 23.236C28.019 23.2948 27.9862 23.3836 27.9267 23.5217C27.8678 23.6584 27.7945 23.8169 27.702 24.0168L29.5169 24.857C29.6846 24.4947 29.8608 24.1206 29.9549 23.8008C30.0539 23.4647 30.1387 22.9424 29.8161 22.4376L28.1308 23.5145ZM27.4948 23.6926C27.7151 23.6926 27.8896 23.6927 28.0385 23.6966C28.1888 23.7007 28.2832 23.7082 28.3439 23.7172C28.4066 23.7265 28.3902 23.7316 28.3396 23.7062C28.2732 23.6729 28.1914 23.6093 28.1308 23.5145L29.8161 22.4376C29.4935 21.9327 28.9839 21.7902 28.6373 21.7388C28.3076 21.6899 27.894 21.6926 27.4948 21.6926V23.6926ZM24.3074 23.6926H27.4948V21.6926H24.3074V23.6926ZM23.3382 23.3547C23.5774 23.594 23.853 23.6575 24.0057 23.678C24.1296 23.6947 24.2633 23.6926 24.3074 23.6926V21.6926C24.2675 21.6926 24.2496 21.6925 24.2369 21.6922C24.2238 21.6919 24.2409 21.6917 24.2722 21.6959C24.3041 21.7002 24.3763 21.7122 24.4653 21.7488C24.5624 21.7887 24.663 21.8511 24.7524 21.9405L23.3382 23.3547ZM23.0003 22.3855C23.0003 22.4296 22.9982 22.5633 23.0149 22.6872C23.0354 22.8399 23.0989 23.1155 23.3382 23.3547L24.7524 21.9405C24.8418 22.0299 24.9042 22.1305 24.9441 22.2276C24.9807 22.3166 24.9927 22.3888 24.997 22.4207C25.0012 22.452 25.001 22.4691 25.0007 22.456C25.0004 22.4433 25.0003 22.4254 25.0003 22.3855H23.0003ZM23.0003 16.2868V22.3855H25.0003V16.2868H23.0003ZM23.6647 16.4163C23.4916 16.3782 23.3415 16.2927 23.2266 16.1822C23.1202 16.08 23.0642 15.9763 23.0365 15.9144C22.9881 15.8061 22.9866 15.7337 22.991 15.775C22.9937 15.8002 22.9969 15.8512 22.9986 15.9457C23.0003 16.0376 23.0003 16.1472 23.0003 16.2868H25.0003C25.0003 16.0401 25.0018 15.7681 24.9795 15.5611C24.9689 15.4624 24.9447 15.2824 24.8625 15.0983C24.7701 14.8918 24.5444 14.5621 24.0949 14.4631L23.6647 16.4163ZM24.3221 16.5779C24.3807 16.4512 24.4268 16.3518 24.4669 16.2691C24.5082 16.184 24.5325 16.1391 24.5455 16.1174C24.5669 16.0817 24.5351 16.1468 24.4457 16.2247C24.3946 16.2693 24.3001 16.3399 24.1607 16.388C24.01 16.4399 23.8378 16.4544 23.6647 16.4163L24.0949 14.4631C23.6454 14.3641 23.3021 14.5684 23.1315 14.7171C22.9795 14.8496 22.882 15.0028 22.8309 15.0879C22.7237 15.2664 22.6107 15.5138 22.5071 15.7376L24.3221 16.5779ZM20.2987 25.2684L24.3221 16.5779L22.5071 15.7376L18.4837 24.4281L20.2987 25.2684ZM19.8699 25.7707C19.9305 25.8655 19.9538 25.9665 19.9561 26.0407C19.9579 26.0973 19.9464 26.11 19.9643 26.0492C19.9816 25.9903 20.0145 25.9016 20.074 25.7634C20.1329 25.6267 20.2061 25.4683 20.2987 25.2684L18.4837 24.4281C18.316 24.7904 18.1399 25.1646 18.0457 25.4843C17.9468 25.8204 17.862 26.3427 18.1846 26.8476L19.8699 25.7707ZM20.5058 25.5926C20.2856 25.5926 20.111 25.5925 19.9622 25.5885C19.8119 25.5845 19.7175 25.577 19.6568 25.568C19.5941 25.5587 19.6104 25.5536 19.6611 25.579C19.7274 25.6122 19.8093 25.6758 19.8699 25.7707L18.1846 26.8476C18.5072 27.3524 19.0168 27.4949 19.3634 27.5463C19.6931 27.5952 20.1066 27.5926 20.5058 27.5926V25.5926Z" fill="url(#paint1_linear_2287_12152)" mask="url(#path-1-inside-1_2287_12152)"/>
<defs>
<linearGradient id="paint0_linear_2287_12152" x1="12" y1="24.6426" x2="35" y2="24.6426" gradientUnits="userSpaceOnUse">
<stop stop-color="#FB7BA2"/>
<stop offset="1" stop-color="#FCE043"/>
</linearGradient>
<linearGradient id="paint1_linear_2287_12152" x1="15" y1="24.6426" x2="35" y2="24.6426" gradientUnits="userSpaceOnUse">
<stop stop-color="#FCE043"/>
<stop offset="1" stop-color="#FB7BA2"/>
</linearGradient>
</defs>
</svg>
