<svg width="49" height="49" viewBox="0 0 49 49" fill="none" xmlns="http://www.w3.org/2000/svg">
<path fill-rule="evenodd" clip-rule="evenodd" d="M22.0417 15.3876L19.4424 20.1531L25.1326 25.8433L23.8681 29.0045L28.2939 25.211L23.2359 20.1531L24.9449 18.0198C25.0361 17.9483 25.1126 17.8516 25.1639 17.7296C26.858 13.6959 32.2534 12.9487 34.98 16.3703L35.4709 16.9864C37.8176 19.9312 37.4168 24.2044 34.5634 26.6615L25.2184 34.7085C25.0031 34.894 24.8954 34.9867 24.779 35.0332C24.5999 35.1048 24.4001 35.1048 24.221 35.0332C24.1046 34.9867 23.9969 34.894 23.7816 34.7085L14.4366 26.6615C11.5832 24.2044 11.1824 19.9313 13.5291 16.9864L14.0201 16.3703C16.0855 13.7784 19.6824 13.5787 22.0417 15.3876Z" fill="url(#paint0_linear_2287_12163)"/>
<path d="M19.4424 20.1531L19.0035 19.9136L18.8243 20.2421L19.0889 20.5066L19.4424 20.1531ZM22.0417 15.3876L22.4807 15.6271L22.6857 15.2513L22.346 14.9909L22.0417 15.3876ZM25.1326 25.8433L25.5969 26.029L25.7193 25.7229L25.4862 25.4897L25.1326 25.8433ZM23.8681 29.0045L23.4039 28.8188L24.1935 29.3841L23.8681 29.0045ZM28.2939 25.211L28.6193 25.5907L29.0292 25.2393L28.6474 24.8575L28.2939 25.211ZM23.2359 20.1531L22.8457 19.8405L22.5657 20.19L22.8823 20.5066L23.2359 20.1531ZM24.9449 18.0198L24.6368 17.626L24.591 17.6618L24.5547 17.7071L24.9449 18.0198ZM25.1639 17.7296L25.6249 17.9232V17.9232L25.1639 17.7296ZM34.98 16.3703L35.371 16.0587V16.0587L34.98 16.3703ZM35.4709 16.9864L35.0799 17.298V17.298L35.4709 16.9864ZM34.5634 26.6615L34.8896 27.0404L34.5634 26.6615ZM25.2184 34.7085L24.8921 34.3297L24.8921 34.3297L25.2184 34.7085ZM24.779 35.0332L24.5934 34.5689L24.5934 34.5689L24.779 35.0332ZM24.221 35.0332L24.4066 34.5689L24.4066 34.5689L24.221 35.0332ZM23.7816 34.7085L24.1079 34.3297L24.1079 34.3297L23.7816 34.7085ZM14.4366 26.6615L14.7629 26.2826L14.4366 26.6615ZM13.5291 16.9864L13.9201 17.298L13.5291 16.9864ZM14.0201 16.3703L13.629 16.0587V16.0587L14.0201 16.3703ZM19.8814 20.3925L22.4807 15.6271L21.6028 15.1482L19.0035 19.9136L19.8814 20.3925ZM25.4862 25.4897L19.796 19.7995L19.0889 20.5066L24.7791 26.1968L25.4862 25.4897ZM24.3324 29.1902L25.5969 26.029L24.6684 25.6576L23.4039 28.8188L24.3324 29.1902ZM27.9685 24.8314L23.5427 28.6249L24.1935 29.3841L28.6193 25.5907L27.9685 24.8314ZM22.8823 20.5066L27.9403 25.5646L28.6474 24.8575L23.5894 19.7995L22.8823 20.5066ZM24.5547 17.7071L22.8457 19.8405L23.6261 20.4657L25.3351 18.3324L24.5547 17.7071ZM24.7029 17.536C24.6847 17.5793 24.6608 17.6071 24.6368 17.626L25.253 18.4135C25.4115 18.2896 25.5406 18.1239 25.6249 17.9232L24.7029 17.536ZM35.371 16.0587C32.4078 12.3402 26.5441 13.1521 24.7029 17.536L25.6249 17.9232C27.172 14.2396 32.099 13.5573 34.5889 16.6819L35.371 16.0587ZM35.8619 16.6748L35.371 16.0587L34.5889 16.6819L35.0799 17.298L35.8619 16.6748ZM34.8896 27.0404C37.9467 24.4079 38.3761 19.8298 35.8619 16.6748L35.0799 17.298C37.2591 20.0327 36.8869 24.0009 34.2371 26.2826L34.8896 27.0404ZM25.5447 35.0874L34.8896 27.0404L34.2371 26.2826L24.8921 34.3297L25.5447 35.0874ZM24.9647 35.4975C25.1776 35.4123 25.359 35.2473 25.5447 35.0874L24.8921 34.3297C24.6471 34.5406 24.6132 34.561 24.5934 34.5689L24.9647 35.4975ZM24.0353 35.4975C24.3336 35.6167 24.6664 35.6167 24.9647 35.4975L24.5934 34.5689C24.5334 34.5929 24.4666 34.5929 24.4066 34.5689L24.0353 35.4975ZM23.4554 35.0874C23.641 35.2473 23.8224 35.4123 24.0354 35.4975L24.4066 34.5689C24.3868 34.561 24.3529 34.5406 24.1079 34.3297L23.4554 35.0874ZM14.1104 27.0404L23.4554 35.0874L24.1079 34.3297L14.7629 26.2826L14.1104 27.0404ZM13.1381 16.6748C10.6239 19.8298 11.0533 24.4079 14.1104 27.0404L14.7629 26.2826C12.1131 24.0009 11.7409 20.0327 13.9201 17.298L13.1381 16.6748ZM13.629 16.0587L13.1381 16.6748L13.9201 17.298L14.4111 16.6819L13.629 16.0587ZM22.346 14.9909C19.7857 13.0278 15.8761 13.2389 13.629 16.0587L14.4111 16.6819C16.2949 14.3179 19.5791 14.1295 21.7375 15.7844L22.346 14.9909Z" fill="url(#paint1_linear_2287_12163)"/>
<defs>
<linearGradient id="paint0_linear_2287_12163" x1="12" y1="24.6431" x2="37" y2="24.6431" gradientUnits="userSpaceOnUse">
<stop stop-color="#FB7BA2"/>
<stop offset="1" stop-color="#FCE043"/>
</linearGradient>
<linearGradient id="paint1_linear_2287_12163" x1="37" y1="24.6431" x2="12" y2="24.6431" gradientUnits="userSpaceOnUse">
<stop stop-color="#FB7BA2"/>
<stop offset="1" stop-color="#FCE043"/>
</linearGradient>
</defs>
</svg>
