<svg width="21" height="17" viewBox="0 0 21 17" fill="none" xmlns="http://www.w3.org/2000/svg">
<path d="M16.0772 4.45505L16.0886 4.45557H16.1H18.5C19.3239 4.45557 20 5.13171 20 5.95557V14.9556C20 15.7794 19.3239 16.4556 18.5 16.4556H2.5C1.67614 16.4556 1 15.7794 1 14.9556V5.95557C1 5.13171 1.67614 4.45557 2.5 4.45557H4.9H4.91158L4.92315 4.45503C5.19297 4.44252 5.45329 4.35162 5.67224 4.19344C5.89119 4.03526 6.05927 3.81668 6.15591 3.56445L6.1598 3.5543L6.16324 3.54399L6.78524 1.68199L6.7858 1.68031C6.79789 1.64369 6.83703 1.58266 6.91243 1.5284C6.98772 1.47422 7.05923 1.45557 7.1 1.45557H13.8863C13.9588 1.46055 14.0285 1.48567 14.0875 1.52819C14.1465 1.57068 14.1924 1.6288 14.2201 1.6959L14.8367 3.54383L14.8401 3.55405L14.844 3.5641C14.9405 3.81655 15.1086 4.03533 15.3276 4.1936C15.5467 4.35187 15.8072 4.44273 16.0772 4.45505ZM9.54329 7.64587C9.84661 7.52023 10.1717 7.45557 10.5 7.45557C11.163 7.45557 11.7989 7.71896 12.2678 8.1878C12.7366 8.65664 13 9.29253 13 9.95557C13 10.6186 12.7366 11.2545 12.2678 11.7233C11.7989 12.1922 11.163 12.4556 10.5 12.4556C10.1717 12.4556 9.8466 12.3909 9.54329 12.2653C9.23998 12.1396 8.96438 11.9555 8.73223 11.7233C8.50009 11.4912 8.31594 11.2156 8.1903 10.9123C8.06466 10.609 8 10.2839 8 9.95557C8 9.62726 8.06466 9.30217 8.1903 8.99886C8.31594 8.69554 8.50009 8.41995 8.73223 8.1878C8.96438 7.95565 9.23998 7.7715 9.54329 7.64587ZM6.61091 13.8447C7.64236 14.8761 9.04131 15.4556 10.5 15.4556C11.9587 15.4556 13.3576 14.8761 14.3891 13.8447C15.4205 12.8132 16 11.4143 16 9.95557C16 8.49688 15.4205 7.09793 14.3891 6.06648C13.3576 5.03503 11.9587 4.45557 10.5 4.45557C9.04131 4.45557 7.64236 5.03503 6.61091 6.06648C5.57946 7.09793 5 8.49688 5 9.95557C5 11.4143 5.57946 12.8132 6.61091 13.8447ZM17.1515 7.30409C17.3765 7.52914 17.6817 7.65557 18 7.65557C18.3183 7.65557 18.6235 7.52914 18.8485 7.30409C19.0736 7.07905 19.2 6.77383 19.2 6.45557C19.2 6.1373 19.0736 5.83208 18.8485 5.60704C18.6235 5.38199 18.3183 5.25557 18 5.25557C17.6817 5.25557 17.3765 5.38199 17.1515 5.60704C16.9264 5.83208 16.8 6.1373 16.8 6.45557C16.8 6.77383 16.9264 7.07905 17.1515 7.30409Z" fill="url(#paint0_linear_3252_9502)" stroke="url(#paint1_linear_3252_9502)"/>
<defs>
<linearGradient id="paint0_linear_3252_9502" x1="1.45845e-07" y1="9.45557" x2="20" y2="9.45557" gradientUnits="userSpaceOnUse">
<stop stop-color="#FB7BA2"/>
<stop offset="1" stop-color="#FCE043"/>
</linearGradient>
<linearGradient id="paint1_linear_3252_9502" x1="20.5" y1="10.4556" x2="0.499999" y2="10.4556" gradientUnits="userSpaceOnUse">
<stop stop-color="#FB7BA2"/>
<stop offset="1" stop-color="#FCE043"/>
</linearGradient>
</defs>
</svg>
