<svg width="40" height="35" viewBox="0 0 40 35" fill="none" xmlns="http://www.w3.org/2000/svg">
<rect y="0.471191" width="40" height="34" rx="8" fill="url(#paint0_linear_3212_10759)"/>
<path d="M11.0015 19.9712V20.9712C11.0015 23.1803 12.7923 24.9712 15.0015 24.9712V24.9712C16.6583 24.9712 18.0015 23.6281 18.0015 21.9712V20.9712C18.0015 19.8666 18.8969 18.9712 20.0015 18.9712V18.9712C21.1061 18.9712 22.0015 19.8666 22.0015 20.9712V21.9712C22.0015 23.6281 23.3447 24.9712 25.0015 24.9712V24.9712C27.2107 24.9712 29.0015 23.1803 29.0015 20.9712V19.9712" stroke="white" stroke-width="2.00001" stroke-linecap="round"/>
<path d="M22.0019 19.9712H29.002L26.3268 11.9458C26.1269 11.3462 25.612 10.9062 24.9886 10.8023V10.8023C23.9486 10.629 23.0019 11.431 23.0019 12.4853V12.9712" stroke="white" stroke-width="2.00001" stroke-linecap="round" stroke-linejoin="round"/>
<path d="M18.0015 19.9712H11.0015L13.6766 11.9458C13.8765 11.3462 14.3914 10.9062 15.0148 10.8023V10.8023C16.0548 10.629 17.0015 11.431 17.0015 12.4853V12.9712" stroke="white" stroke-width="2.00001" stroke-linecap="round" stroke-linejoin="round"/>
<ellipse cx="14.5" cy="22.4707" rx="3.5" ry="2.5" fill="white"/>
<ellipse cx="25.5" cy="21.9707" rx="3.5" ry="2.5" fill="white"/>
<defs>
<linearGradient id="paint0_linear_3212_10759" x1="0.500001" y1="0.971191" x2="40.5" y2="34.9712" gradientUnits="userSpaceOnUse">
<stop stop-color="#FB7BA2"/>
<stop offset="1" stop-color="#FCE043"/>
</linearGradient>
</defs>
</svg>
