<svg width="17" height="18" viewBox="0 0 17 18" fill="none" xmlns="http://www.w3.org/2000/svg">
<path d="M14.3337 2.33317H13.5003V1.49984C13.5003 0.999837 13.167 0.666504 12.667 0.666504C12.167 0.666504 11.8337 0.999837 11.8337 1.49984V2.33317H5.16699V1.49984C5.16699 0.999837 4.83366 0.666504 4.33366 0.666504C3.83366 0.666504 3.50033 0.999837 3.50033 1.49984V2.33317H2.66699C1.25033 2.33317 0.166992 3.4165 0.166992 4.83317V5.6665H16.8337V4.83317C16.8337 3.4165 15.7503 2.33317 14.3337 2.33317ZM0.166992 14.8332C0.166992 16.2498 1.25033 17.3332 2.66699 17.3332H14.3337C15.7503 17.3332 16.8337 16.2498 16.8337 14.8332V7.33317H0.166992V14.8332ZM12.667 8.99984C13.167 8.99984 13.5003 9.33317 13.5003 9.83317C13.5003 10.3332 13.167 10.6665 12.667 10.6665C12.167 10.6665 11.8337 10.3332 11.8337 9.83317C11.8337 9.33317 12.167 8.99984 12.667 8.99984ZM12.667 12.3332C13.167 12.3332 13.5003 12.6665 13.5003 13.1665C13.5003 13.6665 13.167 13.9998 12.667 13.9998C12.167 13.9998 11.8337 13.6665 11.8337 13.1665C11.8337 12.6665 12.167 12.3332 12.667 12.3332ZM8.50033 8.99984C9.00033 8.99984 9.33366 9.33317 9.33366 9.83317C9.33366 10.3332 9.00033 10.6665 8.50033 10.6665C8.00033 10.6665 7.66699 10.3332 7.66699 9.83317C7.66699 9.33317 8.00033 8.99984 8.50033 8.99984ZM8.50033 12.3332C9.00033 12.3332 9.33366 12.6665 9.33366 13.1665C9.33366 13.6665 9.00033 13.9998 8.50033 13.9998C8.00033 13.9998 7.66699 13.6665 7.66699 13.1665C7.66699 12.6665 8.00033 12.3332 8.50033 12.3332ZM4.33366 8.99984C4.83366 8.99984 5.16699 9.33317 5.16699 9.83317C5.16699 10.3332 4.83366 10.6665 4.33366 10.6665C3.83366 10.6665 3.50033 10.3332 3.50033 9.83317C3.50033 9.33317 3.83366 8.99984 4.33366 8.99984ZM4.33366 12.3332C4.83366 12.3332 5.16699 12.6665 5.16699 13.1665C5.16699 13.6665 4.83366 13.9998 4.33366 13.9998C3.83366 13.9998 3.50033 13.6665 3.50033 13.1665C3.50033 12.6665 3.83366 12.3332 4.33366 12.3332Z" fill="url(#paint0_linear_1_3575)"/>
<defs>
<linearGradient id="paint0_linear_1_3575" x1="0.000320133" y1="9.99976" x2="17.0003" y2="10.4998" gradientUnits="userSpaceOnUse">
<stop stop-color="#FB7BA2"/>
<stop offset="1" stop-color="#FCE043"/>
</linearGradient>
</defs>
</svg>
