<svg width="24" height="25" viewBox="0 0 24 25" fill="none" xmlns="http://www.w3.org/2000/svg">
<path d="M7.9 20.5577C9.80858 21.5367 12.0041 21.8019 14.0909 21.3054C16.1777 20.809 18.0186 19.5835 19.2818 17.8498C20.545 16.1162 21.1474 13.9884 20.9806 11.8498C20.8137 9.71128 19.8886 7.70263 18.3718 6.18586C16.855 4.66908 14.8464 3.74392 12.7078 3.57708C10.5693 3.41025 8.44147 4.01271 6.70782 5.27591C4.97417 6.53911 3.74869 8.37997 3.25222 10.4668C2.75575 12.5536 3.02094 14.7491 4 16.6577L2 22.5577L7.9 20.5577Z" stroke="black" stroke-width="2" stroke-linecap="round" stroke-linejoin="round"/>
<path d="M15 9.55762L9 15.5576" stroke="black" stroke-width="2" stroke-linecap="round" stroke-linejoin="round"/>
<path d="M9 9.55762L15 15.5576" stroke="black" stroke-width="2" stroke-linecap="round" stroke-linejoin="round"/>
</svg>
