<svg width="33" height="32" viewBox="0 0 33 32" fill="none" xmlns="http://www.w3.org/2000/svg">
<path d="M16.5002 28.8C23.5694 28.8 29.3002 23.0693 29.3002 16C29.3002 8.93077 23.5694 3.20001 16.5002 3.20001C9.43095 3.20001 3.7002 8.93077 3.7002 16C3.7002 23.0693 9.43095 28.8 16.5002 28.8Z" fill="#ECB751"/>
<path d="M16.5002 3.20001C14.8193 3.20001 13.1548 3.5311 11.6018 4.17436C10.0489 4.81762 8.63783 5.76046 7.44924 6.94905C6.26065 8.13764 5.3178 9.54869 4.67454 11.1017C4.03128 12.6546 3.7002 14.3191 3.7002 16C3.70261 17.1029 3.84756 18.2009 4.13145 19.2667L19.7596 3.63855C18.6965 3.35283 17.601 3.20543 16.5002 3.20001ZM20.8887 3.99272L4.48874 20.3927C4.68486 20.9317 4.91698 21.4568 5.18353 21.9646L22.4648 4.68335C21.9555 4.41805 21.429 4.18732 20.8887 3.99272ZM28.57 11.7833L12.2835 28.0698C12.7404 28.2308 13.2061 28.3658 13.6783 28.474L28.97 13.1823C28.8633 12.7088 28.7297 12.2417 28.57 11.7833Z" fill="#FDEFB4"/>
<path d="M16.5 26.1334C22.0965 26.1334 26.6334 21.5965 26.6334 16C26.6334 10.4035 22.0965 5.8667 16.5 5.8667C10.9035 5.8667 6.3667 10.4035 6.3667 16C6.3667 21.5965 10.9035 26.1334 16.5 26.1334Z" fill="#FAD461"/>
<path d="M20.3718 6.63959C21.6804 7.57645 22.747 8.81151 23.4834 10.2425C24.2197 11.6736 24.6046 13.2594 24.6062 14.8688C24.6062 17.5563 23.5386 20.1337 21.6382 22.0341C19.7379 23.9345 17.1604 25.0021 14.4729 25.0021C13.1444 25.0007 11.8292 24.738 10.6021 24.2292C12.3209 25.4643 14.3834 26.1302 16.5 26.1333C19.1875 26.1333 21.7649 25.0657 23.6653 23.1654C25.5657 21.265 26.6333 18.6875 26.6333 16C26.6325 13.9954 26.0372 12.0361 24.9226 10.3699C23.808 8.70371 22.2243 7.40553 20.3718 6.63959Z" fill="#ECB751"/>
<path d="M16.5001 2.66669C9.1426 2.66669 3.16675 8.64254 3.16675 16C3.16675 23.3575 9.1426 29.3334 16.5001 29.3334C23.8576 29.3334 29.8334 23.3575 29.8334 16C29.8334 8.64254 23.8576 2.66669 16.5001 2.66669ZM16.5001 3.73335C23.2811 3.73335 28.7667 9.21901 28.7667 16C28.7667 22.781 23.2811 28.2667 16.5001 28.2667C9.71907 28.2667 4.23341 22.781 4.23341 16C4.23341 9.21901 9.71907 3.73335 16.5001 3.73335ZM16.5001 5.33335C10.6154 5.33335 5.83341 10.1153 5.83341 16C5.83341 18.3886 6.62047 20.5996 7.94904 22.3781C8.03371 22.4916 8.15998 22.5667 8.30005 22.587C8.44011 22.6073 8.58251 22.5712 8.69591 22.4865C8.80932 22.4018 8.88445 22.2755 8.90477 22.1355C8.92509 21.9954 8.88892 21.853 8.80425 21.7396C7.60807 20.1383 6.90008 18.1546 6.90008 16C6.90008 10.6918 11.1918 6.40002 16.5001 6.40002C21.8083 6.40002 26.1001 10.6918 26.1001 16C26.1001 21.3083 21.8083 25.6 16.5001 25.6C14.9517 25.6 13.4927 25.2349 12.199 24.5854C12.1365 24.554 12.0683 24.5351 11.9984 24.53C11.9285 24.5248 11.8583 24.5335 11.7918 24.5555C11.7253 24.5775 11.6638 24.6124 11.6108 24.6582C11.5577 24.704 11.5142 24.7598 11.4828 24.8223C11.4513 24.8849 11.4325 24.9531 11.4274 25.023C11.4222 25.0929 11.4309 25.1631 11.453 25.2296C11.475 25.2961 11.5099 25.3576 11.5557 25.4106C11.6015 25.4636 11.6573 25.5071 11.7199 25.5386C13.1578 26.2605 14.7836 26.6667 16.5001 26.6667C22.3848 26.6667 27.1667 21.8847 27.1667 16C27.1667 10.1153 22.3848 5.33335 16.5001 5.33335ZM16.4918 9.60523C16.3505 9.60743 16.2159 9.66561 16.1174 9.76696C16.019 9.86832 15.9648 10.0046 15.9667 10.1459V11.1209C15.8979 11.1331 15.8291 11.1382 15.7605 11.1552C15.7601 11.1552 15.7598 11.1552 15.7594 11.1552C14.5072 11.4661 13.599 12.541 13.599 13.7917C13.599 15.0381 14.5022 16.108 15.748 16.423C16.4894 16.6476 16.9326 16.5544 17.449 16.7646C18.1606 17.1559 18.4817 17.891 18.2771 18.598C18.0705 19.3117 17.3531 19.8386 16.5021 19.8386C15.6512 19.8386 14.9327 19.3117 14.7261 18.598C14.7066 18.5306 14.6741 18.4678 14.6303 18.4131C14.5865 18.3583 14.5324 18.3127 14.471 18.2789C14.4097 18.2451 14.3422 18.2237 14.2726 18.216C14.2029 18.2082 14.1324 18.2142 14.0651 18.2337C13.9978 18.2532 13.935 18.2858 13.8803 18.3296C13.8255 18.3734 13.78 18.4275 13.7462 18.4889C13.7124 18.5503 13.691 18.6177 13.6833 18.6874C13.6755 18.757 13.6816 18.8275 13.7011 18.8948C14.0004 19.929 14.8997 20.6659 15.9667 20.8542V21.8542C15.9657 21.9249 15.9788 21.995 16.0051 22.0606C16.0315 22.1262 16.0706 22.1859 16.1202 22.2362C16.1699 22.2866 16.229 22.3265 16.2942 22.3538C16.3594 22.3811 16.4294 22.3951 16.5 22.3951C16.5707 22.3951 16.6407 22.3811 16.7059 22.3538C16.7711 22.3265 16.8302 22.2866 16.8799 22.2362C16.9295 22.1859 16.9686 22.1262 16.995 22.0606C17.0213 21.995 17.0344 21.9249 17.0334 21.8542V20.8552C18.1021 20.6681 19.0024 19.9304 19.3021 18.8948C19.6505 17.6909 19.0683 16.4128 17.9375 15.8084C17.9236 15.8011 17.9094 15.7945 17.8948 15.7886C17.0942 15.4482 16.5564 15.5592 16.0459 15.4011C16.0362 15.398 16.0265 15.3953 16.0167 15.3928C15.1977 15.1894 14.6657 14.5263 14.6657 13.7917C14.6657 13.0568 15.1977 12.394 16.0167 12.1907C16.8357 11.9876 17.6949 12.3273 18.1 12.9771C18.1371 13.0366 18.1855 13.0882 18.2425 13.1289C18.2995 13.1697 18.364 13.1988 18.4322 13.2146C18.5005 13.2304 18.5712 13.2326 18.6403 13.2211C18.7094 13.2096 18.7756 13.1846 18.835 13.1476C18.8945 13.1105 18.946 13.0621 18.9868 13.0051C19.0275 12.9481 19.0566 12.8836 19.0724 12.8153C19.0882 12.7471 19.0904 12.6764 19.0789 12.6073C19.0674 12.5382 19.0423 12.472 19.0053 12.4126C18.565 11.7064 17.8371 11.2494 17.0334 11.1094V10.1459C17.0343 10.0745 17.021 10.0037 16.9941 9.9376C16.9672 9.8715 16.9273 9.81147 16.8768 9.76105C16.8263 9.71064 16.7662 9.67089 16.7001 9.64413C16.6339 9.61737 16.5631 9.60411 16.4918 9.60523ZM24.4355 17.8115C24.3787 17.815 24.3244 17.8366 24.2808 17.8731C24.2371 17.9097 24.2063 17.9593 24.1928 18.0146C23.8034 19.5016 22.9898 20.8476 21.8491 21.8844C21.822 21.9076 21.7998 21.936 21.7839 21.9679C21.7679 21.9998 21.7586 22.0346 21.7563 22.0702C21.7541 22.1058 21.759 22.1415 21.7708 22.1752C21.7826 22.2088 21.8011 22.2398 21.825 22.2662C21.849 22.2926 21.878 22.314 21.9104 22.329C21.9428 22.344 21.9778 22.3523 22.0135 22.3535C22.0491 22.3547 22.0846 22.3488 22.118 22.336C22.1513 22.3232 22.1817 22.3039 22.2074 22.2792C23.4248 21.1727 24.2939 19.7368 24.7095 18.15C24.7204 18.1112 24.7223 18.0704 24.7152 18.0307C24.708 17.991 24.6919 17.9534 24.6682 17.9209C24.6444 17.8883 24.6136 17.8615 24.5779 17.8425C24.5423 17.8236 24.5029 17.813 24.4626 17.8115C24.4536 17.811 24.4445 17.811 24.4355 17.8115ZM20.9574 22.6354C20.9065 22.6364 20.857 22.652 20.8147 22.6802C20.7041 22.7516 20.5909 22.8202 20.4761 22.8865C20.4148 22.9219 20.37 22.9801 20.3517 23.0485C20.3333 23.1169 20.3429 23.1897 20.3782 23.2511C20.4136 23.3124 20.4719 23.3572 20.5402 23.3755C20.6086 23.3939 20.6815 23.3844 20.7428 23.349C20.8652 23.2783 20.9852 23.2043 21.1032 23.1282C21.1526 23.0972 21.1905 23.051 21.2111 22.9965C21.2317 22.942 21.2339 22.8823 21.2174 22.8264C21.2009 22.7706 21.1665 22.7216 21.1195 22.6871C21.0726 22.6527 21.0156 22.6345 20.9574 22.6354ZM9.84593 23.0938C9.73535 23.0902 9.62639 23.1211 9.53416 23.1823C9.44193 23.2434 9.37099 23.3317 9.33117 23.4349C9.29134 23.5381 9.2846 23.6512 9.31188 23.7584C9.33916 23.8656 9.39911 23.9617 9.48343 24.0334C9.62045 24.1531 9.76014 24.2696 9.90322 24.3823C9.95804 24.4273 10.0213 24.4609 10.0893 24.4812C10.1572 24.5015 10.2286 24.508 10.2991 24.5004C10.3696 24.4927 10.4379 24.4711 10.5 24.4368C10.562 24.4024 10.6166 24.356 10.6605 24.3003C10.7045 24.2446 10.7368 24.1807 10.7557 24.1124C10.7747 24.044 10.7798 23.9726 10.7708 23.9022C10.7617 23.8319 10.7388 23.764 10.7032 23.7027C10.6676 23.6413 10.6202 23.5876 10.5636 23.5448C10.4348 23.4433 10.3089 23.3381 10.1855 23.2302C10.092 23.1461 9.97168 23.0978 9.84593 23.0938Z" fill="#2D3A66"/>
<path d="M9.79546 16.307C11.151 17.0896 13.1474 16.1696 14.2544 14.2521C15.3615 12.3346 15.1601 10.1457 13.8045 9.36305C12.449 8.58043 10.4526 9.50043 9.34556 11.4179C8.23849 13.3354 8.43992 15.5243 9.79546 16.307Z" fill="#FDEFB4"/>
<path d="M10.4739 19.9547C11.3437 19.9547 12.0488 19.4227 12.0488 18.7665C12.0488 18.1102 11.3437 17.5782 10.4739 17.5782C9.60405 17.5782 8.89893 18.1102 8.89893 18.7665C8.89893 19.4227 9.60405 19.9547 10.4739 19.9547Z" fill="#FDEFB4"/>
<path d="M14.9595 11.4886C14.1405 11.9747 13.5991 12.8289 13.5991 13.7917C13.5991 14.1724 13.6914 14.5323 13.8439 14.8636C13.9932 14.6701 14.1306 14.4654 14.2543 14.2521C14.7643 13.3678 15.0165 12.3795 14.9595 11.4886Z" fill="#8D8D81"/>
<path d="M14.9595 11.4886C14.1405 11.9747 13.5991 12.8289 13.5991 13.7917C13.5991 14.1724 13.6914 14.5323 13.8439 14.8636C13.9932 14.6701 14.1306 14.4654 14.2543 14.2521C14.7643 13.3678 15.0165 12.3795 14.9595 11.4886Z" fill="#8D8D81"/>
</svg>
