<svg width="22" height="21" viewBox="0 0 22 21" fill="none" xmlns="http://www.w3.org/2000/svg">
<path fill-rule="evenodd" clip-rule="evenodd" d="M7.0446 0.500488H6.3559C4.66164 0.500488 3.81452 0.500488 3.19074 0.971008C2.56695 1.44153 2.33423 2.25606 1.86878 3.88513L1.16928 6.33337H5.95093L7.0446 0.500488ZM0.639343 8.57821C0.642037 8.59784 0.645385 8.61734 0.649407 8.6368C0.707418 8.91762 0.896782 9.14907 1.27551 9.61196L7.97922 17.8054L5.98014 8.6667H1.08585C0.927689 8.6667 0.77688 8.63523 0.639343 8.57821ZM14.0258 17.8053L20.7295 9.61196C21.1082 9.14907 21.2976 8.91762 21.3556 8.6368C21.3596 8.61734 21.3629 8.59785 21.3656 8.57824C21.2281 8.63524 21.0773 8.6667 20.9192 8.6667H16.0249L14.0258 17.8053ZM20.8357 6.33337L20.1362 3.88512C19.6707 2.25606 19.438 1.44153 18.8142 0.971008C18.1905 0.500488 17.3433 0.500488 15.6491 0.500488H14.9604L16.0541 6.33337H20.8357ZM12.5864 0.500488H9.4186L8.32493 6.33337H13.6801L12.5864 0.500488ZM11.0025 20.7073L8.36864 8.6667H13.6364L11.0025 20.7073Z" fill="url(#paint0_linear_3900_2327)"/>
<defs>
<linearGradient id="paint0_linear_3900_2327" x1="1.00005" y1="8.50049" x2="21.0001" y2="8.50049" gradientUnits="userSpaceOnUse">
<stop stop-color="#FB7BA2"/>
<stop offset="1" stop-color="#FCE043"/>
</linearGradient>
</defs>
</svg>
