<svg width="33" height="32" viewBox="0 0 33 32" fill="none" xmlns="http://www.w3.org/2000/svg">
<path d="M21.557 11.311L16 10L10.498 11.3C7.51202 11.895 5.69702 12.936 5.69702 14.051C5.69702 15.836 10.348 17.304 16 17.304C21.652 17.304 26.303 15.835 26.303 14.051C26.303 12.943 24.511 11.909 21.557 11.311Z" fill="#FFCC5C"/>
<path d="M21.557 11.311L16 10L14.001 10.472L17.556 11.311C20.51 11.908 22.302 12.943 22.302 14.051C22.302 15.62 18.708 16.944 13.999 17.241C14.647 17.282 15.315 17.304 15.999 17.304C21.651 17.304 26.302 15.835 26.302 14.051C26.303 12.943 24.511 11.909 21.557 11.311Z" fill="#F7B546"/>
<path d="M20.648 6.66301C20.5785 6.3844 20.443 6.12659 20.2529 5.91133C20.0629 5.69606 19.8239 5.52965 19.556 5.42612C19.2882 5.32259 18.9994 5.28498 18.7139 5.31646C18.4285 5.34794 18.1548 5.4476 17.916 5.60701L17.491 5.89001C17.0495 6.18437 16.5307 6.34144 16 6.34144C15.4693 6.34144 14.9505 6.18437 14.509 5.89001L14.084 5.60701C13.8451 5.44783 13.5715 5.34837 13.2861 5.31701C13.0007 5.28565 12.712 5.3233 12.4443 5.4268C12.1765 5.5303 11.9375 5.69662 11.7474 5.91175C11.5573 6.12688 11.4217 6.38453 11.352 6.66301L10.177 13.48C10.177 14.496 12.784 15.319 16 15.319C19.216 15.319 21.823 14.496 21.823 13.48L20.648 6.66301Z" fill="#FFCC5C"/>
<path d="M20.648 6.66294C20.404 5.68794 19.438 5.16094 18.531 5.35794C18.575 5.45594 18.621 5.55294 18.648 5.66294L19.823 12.4799C19.823 13.4959 17.216 14.3189 14 14.3189C12.614 14.3189 11.343 14.1659 10.344 13.9099C10.958 14.7179 13.254 15.3189 16 15.3189C19.216 15.3189 21.823 14.4959 21.823 13.4799L20.648 6.66294Z" fill="#F7B546"/>
<path d="M21.495 11.578C21.446 12.524 19.006 13.286 16 13.286C12.994 13.286 10.554 12.524 10.505 11.578L10.177 13.48C10.177 14.496 12.784 15.319 16 15.319C19.216 15.319 21.823 14.496 21.823 13.48L21.495 11.578Z" fill="#4C6D86"/>
<path d="M21.495 11.578C21.469 12.071 20.785 12.511 19.718 12.822C19.209 13.674 16.845 14.319 13.999 14.319C12.613 14.319 11.342 14.166 10.343 13.91C10.571 14.21 11.032 14.481 11.661 14.703L11.703 14.717C11.908 14.788 12.129 14.854 12.366 14.915L12.388 14.92C12.6483 14.9847 12.9108 15.04 13.175 15.086C13.428 15.13 13.694 15.168 13.968 15.2L14.109 15.216C14.737 15.2842 15.3683 15.3179 16 15.317C19.216 15.317 21.823 14.494 21.823 13.478L21.495 11.578Z" fill="#41667D"/>
<path d="M14.592 24C14.799 23.419 15.349 23 16 23C16.651 23 17.201 23.419 17.408 24H18.45C18.218 22.86 17.208 22 16.001 22C14.794 22 13.784 22.86 13.552 24H14.592ZM20 21.304H12C11.8674 21.304 11.7402 21.2513 11.6464 21.1575C11.5527 21.0637 11.5 20.9366 11.5 20.804C11.5 20.6713 11.5527 20.5442 11.6464 20.4504C11.7402 20.3566 11.8674 20.304 12 20.304H20C20.1326 20.304 20.2598 20.3566 20.3536 20.4504C20.4473 20.5442 20.5 20.6713 20.5 20.804C20.5 20.9366 20.4473 21.0637 20.3536 21.1575C20.2598 21.2513 20.1326 21.304 20 21.304Z" fill="#D5E5F1"/>
<path d="M16.514 22.059C16.511 22.104 16.5 22.147 16.5 22.193V22.526C16.5 22.732 16.535 22.929 16.566 23.126C16.7593 23.2051 16.934 23.3237 17.0788 23.4742C17.2236 23.6247 17.3354 23.8037 17.407 24H18.449C18.3503 23.5233 18.1146 23.0857 17.7709 22.7409C17.4272 22.3962 16.9904 22.1592 16.514 22.059ZM16.732 21.304H20C20.1326 21.304 20.2598 21.2513 20.3536 21.1575C20.4473 21.0637 20.5 20.9366 20.5 20.804C20.5 20.6713 20.4473 20.5442 20.3536 20.4504C20.2598 20.3566 20.1326 20.304 20 20.304H18.389C17.669 20.304 17.051 20.712 16.732 21.304ZM11.5 20.804C11.5 20.9366 11.5527 21.0637 11.6464 21.1575C11.7402 21.2513 11.8674 21.304 12 21.304H15.268C15.1084 21.0027 14.8699 20.7505 14.5781 20.5744C14.2862 20.3982 13.9519 20.3047 13.611 20.304H12C11.8674 20.304 11.7402 20.3566 11.6464 20.4504C11.5527 20.5442 11.5 20.6713 11.5 20.804ZM13.551 24H14.593C14.736 23.599 15.049 23.285 15.44 23.123C15.471 22.927 15.5 22.731 15.5 22.526V22.193C15.5 22.147 15.49 22.104 15.486 22.059C15.0096 22.1592 14.5728 22.3962 14.2291 22.7409C13.8854 23.0857 13.6497 23.5233 13.551 24Z" fill="#99B5CE"/>
<path d="M20.778 26.304H22.445C22.9459 26.3037 23.4262 26.1046 23.7804 25.7504C24.1346 25.3962 24.3337 24.9159 24.334 24.415V21.563C24.3337 21.2291 24.201 20.909 23.9649 20.673C23.7289 20.4369 23.4088 20.3042 23.075 20.304H18.89C18.3891 20.3042 17.9087 20.5033 17.5545 20.8575C17.2003 21.2117 17.0012 21.692 17.001 22.193V22.526C17.001 23.669 17.509 24.694 18.311 25.386C18.9957 25.9795 19.8718 26.3056 20.778 26.304Z" fill="#3C3B42"/>
<path d="M24.833 22.1379H23.833C23.7004 22.1379 23.5732 22.0853 23.4795 21.9915C23.3857 21.8977 23.333 21.7705 23.333 21.6379C23.333 21.5053 23.3857 21.3782 23.4795 21.2844C23.5732 21.1906 23.7004 21.1379 23.833 21.1379H24.833C24.9656 21.1379 25.0928 21.1906 25.1866 21.2844C25.2803 21.3782 25.333 21.5053 25.333 21.6379C25.333 21.7705 25.2803 21.8977 25.1866 21.9915C25.0928 22.0853 24.9656 22.1379 24.833 22.1379Z" fill="#D5E5F1"/>
<path d="M18.15 20.454C18.0509 20.6877 17.9999 20.9391 18 21.193V21.526C18 22.528 18.398 23.4889 19.1066 24.1974C19.8151 24.9059 20.776 25.304 21.778 25.304H23.445C23.707 25.304 23.957 25.25 24.184 25.154C24.0389 25.4951 23.7966 25.786 23.4874 25.9904C23.1782 26.1949 22.8157 26.304 22.445 26.304H20.778C19.776 26.304 18.8151 25.9059 18.1066 25.1974C17.398 24.4889 17 23.528 17 22.526V22.193C17 21.8223 17.1091 21.4598 17.3135 21.1506C17.518 20.8414 17.8089 20.5991 18.15 20.454Z" fill="#2B2A2F"/>
<path d="M11.222 26.304H9.55599C9.05508 26.3037 8.57476 26.1046 8.22056 25.7504C7.86636 25.3962 7.66726 24.9159 7.66699 24.415V21.563C7.66726 21.2291 7.79999 20.909 8.03604 20.673C8.27209 20.4369 8.59217 20.3042 8.92599 20.304H13.111C13.6119 20.3042 14.0922 20.5033 14.4464 20.8575C14.8006 21.2117 14.9997 21.692 15 22.193V22.526C15.0001 23.0221 14.9025 23.5135 14.7127 23.9719C14.5229 24.4303 14.2446 24.8469 13.8937 25.1977C13.5429 25.5485 13.1264 25.8268 12.6679 26.0166C12.2095 26.2065 11.7182 26.3041 11.222 26.304Z" fill="#3C3B42"/>
<path d="M13.8499 20.454C13.9459 20.681 13.9999 20.93 13.9999 21.193V21.526C13.9999 22.528 13.6019 23.4889 12.8933 24.1974C12.1848 24.9059 11.2239 25.304 10.2219 25.304H8.55589C8.29389 25.304 8.04389 25.25 7.81689 25.154C7.96204 25.4951 8.20428 25.786 8.51349 25.9904C8.82269 26.1949 9.1852 26.304 9.55589 26.304H11.2229C11.719 26.304 12.2103 26.2063 12.6687 26.0164C13.127 25.8265 13.5435 25.5482 13.8943 25.1974C14.2452 24.8466 14.5234 24.4301 14.7133 23.9718C14.9032 23.5134 15.0009 23.0221 15.0009 22.526V22.193C15.0005 21.8222 14.8912 21.4598 14.6866 21.1506C14.482 20.8414 14.191 20.5992 13.8499 20.454Z" fill="#2B2A2F"/>
<path d="M8.16699 22.1379H7.16699C7.03438 22.1379 6.90721 22.0853 6.81344 21.9915C6.71967 21.8977 6.66699 21.7705 6.66699 21.6379C6.66699 21.5053 6.71967 21.3782 6.81344 21.2844C6.90721 21.1906 7.03438 21.1379 7.16699 21.1379H8.16699C8.2996 21.1379 8.42678 21.1906 8.52055 21.2844C8.61431 21.3782 8.66699 21.5053 8.66699 21.6379C8.66699 21.7705 8.61431 21.8977 8.52055 21.9915C8.42678 22.0853 8.2996 22.1379 8.16699 22.1379Z" fill="#D5E5F1"/>
<path d="M8.16699 21.1379H7.66699C7.7996 21.1379 7.92678 21.1906 8.02055 21.2844C8.11431 21.3782 8.16699 21.5053 8.16699 21.6379C8.16699 21.7705 8.11431 21.8977 8.02055 21.9915C7.92678 22.0853 7.7996 22.1379 7.66699 22.1379H8.16699C8.2996 22.1379 8.42678 22.0853 8.52055 21.9915C8.61431 21.8977 8.66699 21.7705 8.66699 21.6379C8.66699 21.5053 8.61431 21.3782 8.52055 21.2844C8.42678 21.1906 8.2996 21.1379 8.16699 21.1379ZM23.833 22.1379H24.333C24.2004 22.1379 24.0732 22.0853 23.9794 21.9915C23.8857 21.8977 23.833 21.7705 23.833 21.6379C23.833 21.5053 23.8857 21.3782 23.9794 21.2844C24.0732 21.1906 24.2004 21.1379 24.333 21.1379H23.833C23.7004 21.1379 23.5732 21.1906 23.4794 21.2844C23.3857 21.3782 23.333 21.5053 23.333 21.6379C23.333 21.7705 23.3857 21.8977 23.4794 21.9915C23.5732 22.0853 23.7004 22.1379 23.833 22.1379Z" fill="#99B5CE"/>
</svg>
