<svg width="74" height="123" viewBox="0 0 74 123" fill="none" xmlns="http://www.w3.org/2000/svg">
<g id="Heart">
<g id="Group 21">
<g id="Vector" filter="url(#filter0_d_3252_8981)">
<path fill-rule="evenodd" clip-rule="evenodd" d="M6.11276 57.9163L6.1126 36.8742C6.06772 36.9645 6.02349 37.0553 5.98007 37.1465C4.59499 40.0541 4.02891 43.2546 4.02891 46.5996C4.02891 50.2589 4.65713 54.0006 6.11276 57.9163ZM14.8191 40.9779L25.0989 61.5792H8.53926L14.8191 40.9779ZM25.0555 63.678L20.9576 78.9916L20.4947 78.5213C16.9027 74.8565 14.1106 71.6379 12.1205 68.869C10.8473 67.0974 9.74475 65.3693 8.79896 63.6781L25.0555 63.678ZM24.1675 82.1561L37.0727 86.6149V93.8037L36.8726 93.6321C32.0177 89.4626 27.7822 85.6364 24.1675 82.1561ZM26.6659 65.7243L35.7456 83.9374L22.9737 79.5243L26.6659 65.7243ZM8.19661 35.2501L13.0954 39.4816L8.19661 55.553V35.2501ZM23.5848 28.3148L35.21 38.0661H16.3858L23.5848 28.3148ZM21.7703 27.2556L14.1272 37.6079L8.79027 32.9985C10.5237 31.1435 12.7593 29.6383 15.5613 28.5351C17.5899 27.7365 19.6587 27.3091 21.7703 27.2556ZM37.0727 36.8973L37.0729 32.8631C33.2689 30.11 29.5963 28.3746 26.0433 27.6459L37.0727 36.8973Z" fill="url(#paint0_linear_3252_8981)"/>
<path d="M4.52891 46.5996C4.52891 44.0808 4.85533 41.6592 5.61262 39.3943L5.61274 54.7224C4.8636 51.9447 4.52891 49.2496 4.52891 46.5996ZM9.21438 61.0792L14.9316 42.3233L24.2906 61.0792H9.21438ZM12.5265 68.5772C11.4499 67.0792 10.4976 65.6142 9.66031 64.1781L24.4041 64.178L20.7008 78.0171C17.1917 74.4265 14.4686 71.2793 12.5265 68.5772ZM36.5727 86.9711V92.7144C32.7025 89.3773 29.2368 86.2652 26.1762 83.3791L36.5727 86.9711ZM23.577 79.2038L26.8076 67.1292L34.752 83.0651L23.577 79.2038ZM12.5222 39.6472L8.69661 52.1978V36.3427L12.5222 39.6472ZM23.6711 29.0397L33.8359 37.5661H17.3764L23.6711 29.0397ZM20.7367 27.8137L14.0455 36.8767L9.51723 32.9657C11.1414 31.3405 13.1968 30.0034 15.7445 29.0004C17.3836 28.3551 19.0467 27.9596 20.7367 27.8137ZM28.0648 28.6889C30.8112 29.5556 33.6452 31.0265 36.5729 33.1194L36.5728 35.8254L28.0648 28.6889Z" stroke="url(#paint1_linear_3252_8981)"/>
</g>
<g id="Vector_2" filter="url(#filter1_d_3252_8981)">
<path fill-rule="evenodd" clip-rule="evenodd" d="M67.8872 57.9163L67.8874 36.8742C67.9323 36.9645 67.9765 37.0553 68.0199 37.1465C69.405 40.0541 69.9711 43.2546 69.9711 46.5996C69.9711 50.2589 69.3429 54.0006 67.8872 57.9163ZM59.1809 40.9779L48.9011 61.5792H65.4607L59.1809 40.9779ZM48.9445 63.678L53.0424 78.9916L53.5053 78.5213C57.0973 74.8564 59.8894 71.6379 61.8795 68.869C63.1527 67.0974 64.2552 65.3693 65.201 63.6781L48.9445 63.678ZM49.8325 82.1561L36.9273 86.6149V93.8037L37.1274 93.6321C41.9823 89.4626 46.2178 85.6364 49.8325 82.1561ZM47.3341 65.7243L38.2544 83.9374L51.0264 79.5243L47.3341 65.7243ZM65.8034 35.2501L60.9046 39.4816L65.8034 55.553V35.2501ZM50.4152 28.3148L38.79 38.0661H57.6142L50.4152 28.3148ZM52.2297 27.2556L59.8728 37.6079L65.2097 32.9985C63.4763 31.1435 61.2407 29.6383 58.4387 28.5351C56.4101 27.7365 54.3413 27.3091 52.2297 27.2556ZM36.9273 36.8973L36.9271 32.8631C40.7311 30.11 44.4037 28.3746 47.9567 27.6459L36.9273 36.8973Z" fill="url(#paint2_linear_3252_8981)"/>
<path d="M69.4711 46.5996C69.4711 44.0808 69.1447 41.6592 68.3874 39.3943L68.3873 54.7224C69.1364 51.9447 69.4711 49.2496 69.4711 46.5996ZM64.7856 61.0792L59.0684 42.3233L49.7094 61.0792H64.7856ZM61.4735 68.5772C62.5501 67.0792 63.5024 65.6142 64.3397 64.1781L49.5959 64.178L53.2992 78.0171C56.8083 74.4265 59.5314 71.2793 61.4735 68.5772ZM37.4273 86.9711V92.7144C41.2975 89.3773 44.7632 86.2652 47.8238 83.3791L37.4273 86.9711ZM50.423 79.2038L47.1924 67.1292L39.248 83.0651L50.423 79.2038ZM61.4778 39.6472L65.3034 52.1978V36.3427L61.4778 39.6472ZM50.3289 29.0397L40.1641 37.5661H56.6236L50.3289 29.0397ZM58.2555 29.0004C56.6164 28.3551 54.9533 27.9596 53.2633 27.8137L59.9545 36.8767L64.4828 32.9657C62.8586 31.3405 60.8032 30.0034 58.2555 29.0004ZM45.9352 28.6889C43.1888 29.5556 40.3548 31.0265 37.4271 33.1194L37.4272 35.8254L45.9352 28.6889Z" stroke="url(#paint3_linear_3252_8981)"/>
</g>
</g>
</g>
<defs>
<filter id="filter0_d_3252_8981" x="0.0288086" y="27.2554" width="41.0439" height="74.5483" filterUnits="userSpaceOnUse" color-interpolation-filters="sRGB">
<feFlood flood-opacity="0" result="BackgroundImageFix"/>
<feColorMatrix in="SourceAlpha" type="matrix" values="0 0 0 0 0 0 0 0 0 0 0 0 0 0 0 0 0 0 127 0" result="hardAlpha"/>
<feOffset dy="4"/>
<feGaussianBlur stdDeviation="2"/>
<feComposite in2="hardAlpha" operator="out"/>
<feColorMatrix type="matrix" values="0 0 0 0 0.380392 0 0 0 0 0.45098 0 0 0 0 0.933333 0 0 0 1 0"/>
<feBlend mode="normal" in2="BackgroundImageFix" result="effect1_dropShadow_3252_8981"/>
<feBlend mode="normal" in="SourceGraphic" in2="effect1_dropShadow_3252_8981" result="shape"/>
</filter>
<filter id="filter1_d_3252_8981" x="32.9272" y="27.2554" width="41.0439" height="74.5483" filterUnits="userSpaceOnUse" color-interpolation-filters="sRGB">
<feFlood flood-opacity="0" result="BackgroundImageFix"/>
<feColorMatrix in="SourceAlpha" type="matrix" values="0 0 0 0 0 0 0 0 0 0 0 0 0 0 0 0 0 0 127 0" result="hardAlpha"/>
<feOffset dy="4"/>
<feGaussianBlur stdDeviation="2"/>
<feComposite in2="hardAlpha" operator="out"/>
<feColorMatrix type="matrix" values="0 0 0 0 0.380392 0 0 0 0 0.45098 0 0 0 0 0.933333 0 0 0 1 0"/>
<feBlend mode="normal" in2="BackgroundImageFix" result="effect1_dropShadow_3252_8981"/>
<feBlend mode="normal" in="SourceGraphic" in2="effect1_dropShadow_3252_8981" result="shape"/>
</filter>
<linearGradient id="paint0_linear_3252_8981" x1="20.5963" y1="25.2266" x2="20.5963" y2="97.4557" gradientUnits="userSpaceOnUse">
<stop stop-color="#FB7BA2"/>
<stop offset="1" stop-color="#FCE043"/>
</linearGradient>
<linearGradient id="paint1_linear_3252_8981" x1="2" y1="97.2266" x2="39" y2="25.2266" gradientUnits="userSpaceOnUse">
<stop stop-color="#FB7BA2"/>
<stop offset="1" stop-color="#FCE043"/>
</linearGradient>
<linearGradient id="paint2_linear_3252_8981" x1="53.4037" y1="25.2266" x2="53.4037" y2="97.4557" gradientUnits="userSpaceOnUse">
<stop stop-color="#FB7BA2"/>
<stop offset="1" stop-color="#FCE043"/>
</linearGradient>
<linearGradient id="paint3_linear_3252_8981" x1="72" y1="97.2266" x2="35" y2="25.2266" gradientUnits="userSpaceOnUse">
<stop stop-color="#FB7BA2"/>
<stop offset="1" stop-color="#FCE043"/>
</linearGradient>
</defs>
</svg>
