<svg width="33" height="33" viewBox="0 0 33 33" fill="none" xmlns="http://www.w3.org/2000/svg">
<path d="M5.16756 26.8333H3.4958C3.4717 25.5627 3.31237 20.835 2.26461 15.6091C3.58818 15.9558 4.87603 16.4268 6.11099 17.0158C5.88742 17.9622 5.19466 21.3304 5.16756 26.8333ZM28.6631 27.1667H20.8334C18.1483 27.1667 17.0699 25.7441 15.7046 23.9431C15.1242 23.1776 14.5241 22.386 13.7358 21.5976C11.7825 19.6443 9.13513 17.7529 6.65266 16.5368C6.6489 16.5349 6.64511 16.5331 6.64128 16.5313C4.49804 15.483 2.72356 15.0247 2.11713 14.8866C1.64782 12.479 2.00034 9.98361 3.11818 7.80027C3.5755 6.89546 4.15332 6.05678 4.83585 5.30713L20.2644 20.7357C20.898 21.3693 21.596 21.6419 22.3395 21.5457C23.7187 21.3671 24.8301 19.939 25.262 19.3025L30.0767 22.5968C30.5181 22.8988 30.8511 23.3341 31.0271 23.8391C31.2031 24.344 31.2128 24.892 31.0548 25.4029C30.8967 25.9138 30.5793 26.3606 30.1489 26.678C29.7186 26.9954 29.1979 27.1666 28.6631 27.1667Z" fill="url(#paint0_linear_2287_10067)"/>
<defs>
<linearGradient id="paint0_linear_2287_10067" x1="1.50009" y1="16.5" x2="31.5001" y2="16.5" gradientUnits="userSpaceOnUse">
<stop stop-color="#FB7BA2"/>
<stop offset="1" stop-color="#FCE043"/>
</linearGradient>
</defs>
</svg>
