<svg width="21" height="24" viewBox="0 0 21 24" fill="none" xmlns="http://www.w3.org/2000/svg">
<path d="M10.5 0C7.84875 0.0028586 5.30694 1.01523 3.43222 2.81501C1.5575 4.61478 0.502978 7.05498 0.5 9.60025C0.5 13.5064 3.45375 16.75 6.5825 20.1833C7.5725 21.2706 8.5975 22.395 9.51 23.5326C9.62677 23.678 9.77675 23.7958 9.94838 23.8768C10.12 23.9579 10.3087 24 10.5 24C10.6913 24 10.88 23.9579 11.0516 23.8768C11.2233 23.7958 11.3732 23.678 11.49 23.5326C12.4025 22.395 13.4275 21.2706 14.4175 20.1833C17.5462 16.75 20.5 13.5064 20.5 9.60025C20.497 7.05498 19.4425 4.61478 17.5678 2.81501C15.6931 1.01523 13.1513 0.0028586 10.5 0ZM10.5 13.2003C9.75832 13.2003 9.0333 12.9892 8.41661 12.5936C7.79993 12.198 7.31928 11.6358 7.03545 10.9779C6.75162 10.3201 6.67736 9.59626 6.82205 8.89791C6.96675 8.19956 7.3239 7.55808 7.84835 7.0546C8.3728 6.55112 9.04098 6.20824 9.76841 6.06933C10.4958 5.93042 11.2498 6.00171 11.9351 6.2742C12.6203 6.54668 13.206 7.00811 13.618 7.60014C14.0301 8.19218 14.25 8.88822 14.25 9.60025C14.25 10.5551 13.8549 11.4708 13.1517 12.1459C12.4484 12.821 11.4946 13.2003 10.5 13.2003Z" fill="url(#paint0_linear_2287_10786)"/>
<defs>
<linearGradient id="paint0_linear_2287_10786" x1="-0.125" y1="0.599723" x2="18.9273" y2="24.1664" gradientUnits="userSpaceOnUse">
<stop stop-color="#FB7BA2"/>
<stop offset="1" stop-color="#FCE043"/>
</linearGradient>
</defs>
</svg>
