<svg width="915" height="1163" viewBox="0 0 915 1163" fill="none" xmlns="http://www.w3.org/2000/svg">
<g clip-path="url(#clip0_4802_3352)">
<path d="M910.104 1059.84C882.262 1161.96 668.802 1161.96 589.915 1120.18C562.095 1105.45 518.638 1070.29 491.654 1040.37C472.233 1018.86 452.071 996.927 430.957 977.711C385.272 936.123 369.471 915.608 360.329 923.173C360.237 923.243 360.19 948.145 360.213 977.711C360.213 998.737 360.237 1022.06 360.237 1040.37C360.26 1059.26 360.26 1072.77 360.237 1072.79C362.557 1191.48 133.204 1194.03 134.364 1074.67C133.923 1062.84 133.482 1051.42 133.088 1040.37C132.252 1017.91 131.533 997.043 131.046 977.711C124.642 727.116 155.686 724.586 467.663 741.365C590.193 747.956 594.277 985.764 664.162 939.163C678.083 929.88 701.285 911.314 731.448 892.748C773.885 866.64 835.857 869.541 877.621 920.597C923.515 976.713 917.065 1034.31 910.104 1059.84Z" fill="#002147"/>
<path d="M727.596 779.635L701.123 753.549C758.362 693.558 793.514 612.308 793.514 522.866C793.514 338.296 643.929 188.677 459.403 188.677C345.921 188.677 245.641 245.281 185.246 331.798C190.884 313.302 193.9 293.668 193.9 273.339C193.9 268.976 193.761 264.636 193.483 260.319C260.885 191.021 354.9 147.739 458.219 147.739C470.493 147.739 482.674 148.389 494.809 149.573C494.925 149.573 495.041 149.573 495.157 149.596C580.147 156.233 663.21 191.741 727.596 256.188C871.171 399.773 871.171 636.026 727.596 779.635Z" fill="url(#paint0_linear_4802_3352)"/>
<path d="M459.403 627.3C517.066 627.3 563.812 580.543 563.812 522.866C563.812 465.189 517.066 418.432 459.403 418.432C401.739 418.432 354.993 465.189 354.993 522.866C354.993 580.543 401.739 627.3 459.403 627.3Z" fill="url(#paint1_linear_4802_3352)"/>
<path d="M709.986 501.979H667.711C647.618 406.573 563 334.955 461.653 334.955C360.306 334.955 275.711 406.573 255.618 501.979H208.819C208.819 375.939 321.93 272.225 459.403 272.225C596.875 272.225 709.986 375.939 709.986 501.979Z" fill="#F4860D"/>
<path d="M793.514 522.866C793.514 612.308 758.362 693.558 701.123 753.549L625.02 678.496C654.556 642.246 672.236 595.993 672.236 545.609C672.236 530.641 670.681 516.043 667.711 501.979H709.986C709.986 375.939 596.875 272.224 459.403 272.224C321.93 272.224 208.819 375.939 208.819 501.979H255.618C252.648 516.043 251.094 530.641 251.094 545.609C251.094 551.736 251.349 557.817 251.859 563.804C205.594 565.359 205.594 545.888 166.638 545.888C152.647 545.888 138.981 550.158 126.869 555.612C113.111 561.831 101.417 569.583 93.6671 574.387C90.6276 555.914 88.1914 536.164 88.1914 517.9C88.1914 493.439 90.6044 469.489 95.2449 446.328C115.477 434.329 133.412 418.919 148.285 400.841C164.805 380.72 177.52 357.35 185.246 331.798C245.641 245.28 345.921 188.677 459.403 188.677C643.929 188.677 793.514 338.296 793.514 522.866Z" fill="url(#paint2_linear_4802_3352)"/>
<path d="M856.159 1004.12C857.621 1116.93 662.978 1105.93 600.263 1061.17C575.785 1041.37 550.262 1012.27 523.278 982.352C503.858 960.839 483.695 938.908 462.581 919.692C416.896 878.104 368.984 862.88 310.746 865.154C310.63 865.177 310.607 890.125 310.63 919.692C310.63 940.718 310.654 964.042 310.654 982.352C310.677 1001.24 310.677 1014.75 310.654 1014.77C312.974 1133.46 127.705 1136.01 128.865 1016.65C128.424 1004.82 127.983 993.399 127.589 982.352C126.753 959.887 126.034 939.024 125.547 919.692C119.143 669.097 150.188 666.567 462.164 683.346C584.694 689.937 646.087 869.656 713.559 919.692C716.158 921.618 718.687 923.335 721.123 924.844C771.982 918.972 838.711 929.416 853.282 982.352C855.092 988.92 856.09 996.161 856.159 1004.12Z" fill="url(#paint3_linear_4802_3352)"/>
<path d="M190.258 109.284C190.258 115.782 189.701 122.141 188.68 128.338C185.153 128.384 181.673 128.593 178.216 128.941C127.171 134.302 86.1031 173.314 77.7039 223.442C76.6598 229.639 76.1262 235.998 76.1262 242.496C76.1262 281.809 95.9872 316.481 126.22 337.02C125.941 337.043 125.663 337.09 125.384 337.113C63.8522 343.193 7.91184 298.612 0.788784 237.204C-0.812164 223.28 0.0463159 209.727 3.0858 197.009C8.09746 175.844 18.3064 149.596 33.9911 142.169C48.7631 135.176 64.1538 125.932 80.1633 114.436C104.108 97.2396 114.154 64.9579 114.154 33.1636C114.154 21.6294 112.438 10.4898 109.259 0C156.127 14.1798 190.258 57.7404 190.258 109.284Z" fill="url(#paint4_linear_4802_3352)"/>
</g>
<defs>
<linearGradient id="paint0_linear_4802_3352" x1="725.926" y1="254.494" x2="416.871" y2="563.477" gradientUnits="userSpaceOnUse">
<stop stop-color="#FDB813"/>
<stop offset="0.25" stop-color="#F17310"/>
<stop offset="0.5" stop-color="#F17310"/>
<stop offset="0.75" stop-color="#E8380E"/>
<stop offset="1" stop-color="#9C2420"/>
</linearGradient>
<linearGradient id="paint1_linear_4802_3352" x1="459.403" y1="418.432" x2="459.403" y2="627.3" gradientUnits="userSpaceOnUse">
<stop stop-color="#FFE600"/>
<stop offset="0.4" stop-color="#F49A06"/>
<stop offset="0.81" stop-color="#EB530B"/>
<stop offset="1" stop-color="#E8380E"/>
</linearGradient>
<linearGradient id="paint2_linear_4802_3352" x1="709.383" y1="745.264" x2="236.854" y2="272.845" gradientUnits="userSpaceOnUse">
<stop stop-color="#FFE600"/>
<stop offset="0.25" stop-color="#F17310"/>
<stop offset="0.5" stop-color="#F17310"/>
<stop offset="0.75" stop-color="#E8380E"/>
<stop offset="1" stop-color="#9C2420"/>
</linearGradient>
<linearGradient id="paint3_linear_4802_3352" x1="686.134" y1="1207.74" x2="175.661" y2="697.39" gradientUnits="userSpaceOnUse">
<stop stop-color="#2E3FBD"/>
<stop offset="1" stop-color="#25F7A8"/>
</linearGradient>
<linearGradient id="paint4_linear_4802_3352" x1="95.1287" y1="337.647" x2="95.1287" y2="0" gradientUnits="userSpaceOnUse">
<stop stop-color="#E8380E"/>
<stop offset="0.99" stop-color="#FDB813"/>
</linearGradient>
<clipPath id="clip0_4802_3352">
<rect width="915" height="1163" fill="white"/>
</clipPath>
</defs>
</svg>
