<svg width="15" height="15" viewBox="0 0 15 15" fill="none" xmlns="http://www.w3.org/2000/svg">
<path d="M6.37264 12.0053C7.66146 12.0053 8.84996 11.5885 9.82237 10.894L13.4805 14.5521C13.6503 14.7218 13.8741 14.8067 14.1133 14.8067C14.6149 14.8067 14.9699 14.4209 14.9699 13.9269C14.9699 13.6954 14.8928 13.4716 14.723 13.3095L11.088 9.66687C11.8521 8.6636 12.3074 7.42108 12.3074 6.07051C12.3074 2.806 9.63714 0.135742 6.37264 0.135742C3.11584 0.135742 0.437866 2.79829 0.437866 6.07051C0.437866 9.33502 3.10813 12.0053 6.37264 12.0053ZM6.37264 10.7242C3.82586 10.7242 1.71897 8.61729 1.71897 6.07051C1.71897 3.52373 3.82586 1.41685 6.37264 1.41685C8.91942 1.41685 11.0263 3.52373 11.0263 6.07051C11.0263 8.61729 8.91942 10.7242 6.37264 10.7242Z" fill="#3C3C43" fill-opacity="0.6"/>
</svg>
