<svg width="25" height="24" viewBox="0 0 25 24" fill="none" xmlns="http://www.w3.org/2000/svg">
<path d="M12.5 6C13.6046 6 14.5 5.10457 14.5 4C14.5 2.89543 13.6046 2 12.5 2C11.3954 2 10.5 2.89543 10.5 4C10.5 5.10457 11.3954 6 12.5 6Z" fill="url(#paint0_linear_1_2684)"/>
<path d="M15.5 7H9.5C9.23478 7 8.98043 7.10536 8.79289 7.29289C8.60536 7.48043 8.5 7.73478 8.5 8V15H10.5V22H14.5V15H16.5V8C16.5 7.73478 16.3946 7.48043 16.2071 7.29289C16.0196 7.10536 15.7652 7 15.5 7Z" fill="url(#paint1_linear_1_2684)"/>
<defs>
<linearGradient id="paint0_linear_1_2684" x1="10.5" y1="4" x2="14.5" y2="4" gradientUnits="userSpaceOnUse">
<stop stop-color="#FB7BA2"/>
<stop offset="1" stop-color="#FCE043"/>
</linearGradient>
<linearGradient id="paint1_linear_1_2684" x1="8.5" y1="14.5" x2="16.5" y2="14.5" gradientUnits="userSpaceOnUse">
<stop stop-color="#FB7BA2"/>
<stop offset="1" stop-color="#FCE043"/>
</linearGradient>
</defs>
</svg>
