<svg width="20" height="19" viewBox="0 0 20 19" fill="none" xmlns="http://www.w3.org/2000/svg">
<path d="M19.447 3.16114L13.447 0.128591C13.3081 0.0583166 13.1549 0.0217285 12.9995 0.0217285C12.8441 0.0217285 12.6909 0.0583166 12.552 0.128591L7 2.93572L1.447 0.128591C1.2945 0.051562 1.12506 0.0152196 0.954757 0.0230162C0.784455 0.0308128 0.618953 0.0824894 0.473969 0.173138C0.328985 0.263786 0.209334 0.390397 0.126379 0.540944C0.0434244 0.691491 -7.93497e-05 0.860976 1.08651e-07 1.0333V14.1743C1.08651e-07 14.5575 0.214 14.9072 0.553 15.0791L6.553 18.1116C6.69193 18.1819 6.84515 18.2185 7.0005 18.2185C7.15585 18.2185 7.30907 18.1819 7.448 18.1116L13 15.3045L18.553 18.1106C18.7051 18.1884 18.8744 18.2252 19.0446 18.2176C19.2149 18.21 19.3803 18.1582 19.525 18.0671C19.82 17.8821 20 17.5577 20 17.2069V4.06585C20 3.68274 19.786 3.33298 19.447 3.16114ZM8 4.69055L12 2.66886V13.5496L8 15.5713V4.69055ZM2 2.66886L6 4.69055V15.5713L2 13.5496V2.66886ZM18 15.5713L14 13.5496V2.66886L18 4.69055V15.5713Z" fill="black" fill-opacity="0.25"/>
</svg>
