<svg width="33" height="32" viewBox="0 0 33 32" fill="none" xmlns="http://www.w3.org/2000/svg">
<path d="M21.0001 10C20.4826 10.0009 19.966 10.0427 19.4551 10.125C18.0358 8.68192 16.2273 7.68299 14.2501 7.25L16.8701 4.335C16.9332 4.26604 16.9756 4.18066 16.9924 4.08868C17.0092 3.99669 16.9997 3.90184 16.9651 3.815L15.9651 1.315C15.928 1.22197 15.8639 1.1422 15.781 1.08604C15.6981 1.02988 15.6002 0.999903 15.5001 1H8.50006C8.39992 0.999903 8.30206 1.02988 8.21915 1.08604C8.13624 1.1422 8.07211 1.22197 8.03506 1.315L7.03506 3.815C7.00037 3.90184 6.99089 3.99669 7.00769 4.08868C7.0245 4.18066 7.06691 4.26604 7.13006 4.335L9.75006 7.25C7.22128 7.80379 4.98635 9.27252 3.47466 11.374C1.96296 13.4755 1.28115 16.0614 1.56022 18.635C1.83928 21.2087 3.05954 23.5884 4.98655 25.317C6.91355 27.0456 9.41136 28.0011 12.0001 28C12.5175 27.9991 13.0342 27.9573 13.5451 27.875C14.5149 28.8689 15.6746 29.6577 16.9552 30.1945C18.2359 30.7314 19.6114 31.0053 21.0001 31C23.7848 31 26.4555 29.8938 28.4247 27.9246C30.3938 25.9555 31.5001 23.2848 31.5001 20.5C31.5001 17.7152 30.3938 15.0445 28.4247 13.0754C26.4555 11.1062 23.7848 10 21.0001 10ZM14.8401 2H15.1601L15.7601 3.5H14.2401L14.8401 2ZM15.3801 4.5L13.1151 7.015L13.8701 4.5H15.3801ZM13.7601 2L13.1601 3.5H10.8401L10.2401 2H13.7601ZM12.8301 4.5L12.0751 7.005H11.9251L11.1701 4.5H12.8301ZM8.84006 2H9.16006L9.76006 3.5H8.24006L8.84006 2ZM8.62006 4.5H10.1301L10.8851 7.015L8.62006 4.5ZM12.0001 27C9.5582 27.0069 7.20745 26.0733 5.43573 24.3929C3.66401 22.7125 2.60737 20.4144 2.48514 17.9756C2.36291 15.5368 3.18447 13.1445 4.7793 11.2954C6.37413 9.4463 8.61975 8.28229 11.0501 8.045C11.682 7.985 12.3181 7.985 12.9501 8.045C15.2301 8.27328 17.3497 9.32155 18.9151 10.995C20.5796 12.7513 21.5051 15.0803 21.5001 17.5C21.5065 19.2153 21.0447 20.8999 20.1645 22.3722C19.2843 23.8445 18.0191 25.0487 16.5051 25.855C16.1041 25.5215 15.7419 25.1442 15.4251 24.73C16.7896 24.0761 17.9424 23.0511 18.7515 21.7725C19.5607 20.4938 19.9933 19.0131 20.0001 17.5C19.9977 15.379 19.1541 13.3456 17.6543 11.8458C16.1545 10.346 14.1211 9.50238 12.0001 9.5C9.89722 9.49704 7.87786 10.3225 6.37923 11.7976C4.88061 13.2728 4.02336 15.2789 3.99311 17.3815C3.96287 19.4841 4.76207 21.514 6.21764 23.0316C7.67322 24.5493 9.66801 25.4325 11.7701 25.49C12.0505 26.009 12.3733 26.504 12.7351 26.97C12.4951 26.985 12.2501 27 12.0001 27ZM21.7201 13.535C23.5089 13.7145 25.16 14.5753 26.3314 15.9391C27.5028 17.3029 28.1045 19.0651 28.012 20.8605C27.9194 22.6559 27.1396 24.3468 25.8342 25.5829C24.5288 26.819 22.7978 27.5054 21.0001 27.5C19.7325 27.5041 18.4884 27.1581 17.4051 26.5C19.5548 25.211 21.1718 23.1948 21.9633 20.8165C22.7549 18.4382 22.6686 15.8551 21.7201 13.535ZM14.8751 23.88C14.2993 22.8466 13.9981 21.6829 14.0001 20.5C14.0067 19.1537 14.3986 17.8374 15.1296 16.7068C15.8606 15.5762 16.9001 14.6786 18.1251 14.12C18.7008 15.1534 19.002 16.3171 19.0001 17.5C18.9934 18.8463 18.6015 20.1626 17.8705 21.2932C17.1395 22.4238 16.1 23.3214 14.8751 23.88ZM11.2801 24.465C9.49125 24.2855 7.84008 23.4247 6.66871 22.0609C5.49734 20.6971 4.89558 18.9349 4.98815 17.1395C5.08071 15.3441 5.8605 13.6532 7.16592 12.4171C8.47133 11.181 10.2023 10.4946 12.0001 10.5C13.2676 10.4959 14.5117 10.8419 15.5951 11.5C13.4454 12.789 11.8283 14.8052 11.0368 17.1835C10.2452 19.5618 10.3315 22.1449 11.2801 24.465ZM21.0001 30C18.8853 30.0012 16.8306 29.2963 15.162 27.9971C13.4933 26.6979 12.3062 24.8788 11.7888 22.8283C11.2714 20.7777 11.4535 18.6132 12.306 16.6779C13.1586 14.7425 14.6329 13.1473 16.4951 12.145C16.896 12.4785 17.2582 12.8558 17.5751 13.27C16.2105 13.9239 15.0577 14.9489 14.2486 16.2275C13.4395 17.5062 13.0068 18.9869 13.0001 20.5C13.0024 22.621 13.8461 24.6544 15.3458 26.1542C16.8456 27.654 18.8791 28.4976 21.0001 28.5C23.1029 28.503 25.1223 27.6775 26.6209 26.2024C28.1195 24.7272 28.9768 22.7211 29.007 20.6185C29.0372 18.5159 28.238 16.486 26.7825 14.9684C25.3269 13.4507 23.3321 12.5675 21.2301 12.51C20.9496 11.991 20.6268 11.496 20.2651 11.03C20.5051 11.015 20.7501 11 21.0001 11C23.5196 11 25.936 12.0009 27.7176 13.7825C29.4992 15.5641 30.5001 17.9804 30.5001 20.5C30.5001 23.0196 29.4992 25.4359 27.7176 27.2175C25.936 28.9991 23.5196 30 21.0001 30Z" fill="url(#paint0_linear_2287_10616)"/>
<defs>
<linearGradient id="paint0_linear_2287_10616" x1="1.05006" y1="32.755" x2="30.0706" y2="2.076" gradientUnits="userSpaceOnUse">
<stop stop-color="#FFF200"/>
<stop offset="1" stop-color="#CD118C"/>
</linearGradient>
</defs>
</svg>
