<svg width="25" height="32" viewBox="0 0 25 32" fill="none" xmlns="http://www.w3.org/2000/svg">
<path d="M4.65615 9.69333C4.65615 9.69333 4.3749 10.8 4.28115 11.32C4.1874 11.8267 3.9374 12.32 3.9999 12.7067C4.0624 13.0933 4.45302 13.7733 4.8124 14.3067C5.1874 14.88 5.5624 15.0933 5.57802 15.8533C5.59365 16.1333 5.3749 16.4933 5.67177 16.6C5.96865 16.7067 6.3749 16.68 6.59365 16.6133C6.8124 16.5467 6.84365 15.56 6.84365 15.4267C6.84365 15.28 6.40615 15.2667 6.3124 14.9733C6.21865 14.68 5.57802 13.1467 5.6249 12.8667C5.67177 12.5733 6.21865 11.1467 6.21865 11.1467L4.65615 9.69333Z" fill="#FBD7C7"/>
<path opacity="0.2" d="M13.8437 30.72C16.9844 29.6933 15.1875 28.2267 12.1875 27.7733C10.875 27.5733 9.51562 25.2933 6.23437 27.08C3.59375 28.52 5.98437 29.3733 7.34375 29.9067C9.20312 30.64 10.9219 31.68 13.8437 30.72Z" fill="black"/>
<path d="M6.21875 8.33333C6.42188 8.34666 7.21875 7.52 7.14063 7.16C7.0625 6.78666 5.48438 4.49333 8.23438 4.01333C9.14063 3.85333 10.3125 4.41333 10.4375 5.37333C10.5469 6.17333 10.5 7.36 10.1406 7.50666C9.78125 7.65333 9.54688 7.55999 9.29688 7.81333C9.04688 8.06666 9.03125 8.39999 9.1875 8.75999C9.34375 9.11999 9.76563 9.21333 9.76563 9.21333H6.29688L6.21875 8.33333Z" fill="#FBD7C7"/>
<path d="M8.21871 3.93332C5.45309 4.33332 7.14059 7.25332 7.12496 7.30665C7.40621 7.42665 7.95309 7.42665 8.20309 7.26665C8.48434 7.09332 8.64059 6.47999 8.95309 6.25332C9.26559 6.02665 9.43746 6.23999 9.45309 6.31999C9.46871 6.39999 9.46871 6.49332 9.46871 6.49332L9.68746 6.42665C9.68746 6.42665 9.81246 6.09332 9.82809 5.65332C9.84371 5.19999 9.71871 4.74665 9.76559 4.65332C9.79684 4.57332 9.98434 4.63999 10.0937 4.61332C9.68746 4.06665 8.85934 3.83999 8.21871 3.93332Z" fill="#825012"/>
<path d="M5.98449 28.5733C5.95324 28.92 6.39074 29.2533 6.92199 29.1333C7.46886 29.0133 8.01574 28.6267 8.62511 28.4133C9.32824 28.16 9.92199 28 10.0782 27.6133C10.2345 27.24 10.0001 26.76 8.93761 26.8C7.87511 26.84 7.14074 27.56 7.14074 27.56L5.98449 28.5733Z" fill="#262626"/>
<path d="M6.21875 28.84C6.85938 28.7467 7.73437 28.36 8.0625 28.2C8.40625 28.04 9.70312 27.72 9.89062 27.36C10.0625 27 9.14063 26.6667 8.46875 26.8667C7.79688 27.0667 7.125 27.2267 7.125 27.2267L6.21875 28.84Z" fill="white"/>
<path d="M9.79688 30.12C9.84375 30.3733 9.71875 30.72 10.3125 30.6933C10.8906 30.6667 12.0156 30.48 12.4531 30.4533C12.875 30.4133 14.5 30.2533 14.8281 29.76C15.1406 29.2667 14.8438 28.7733 14.3594 28.7333C13.875 28.6933 13.2656 29.0267 12.7344 28.92C12.2031 28.8267 11.4375 28.56 11.4375 28.56L9.79688 30.12Z" fill="#262626"/>
<path d="M10.1562 30.16C10.5625 30.2 11.4219 30.16 12.1562 30.0667C12.9062 29.9733 14.3906 29.8267 14.7031 29.32C14.9375 28.9333 14.6094 28.6533 13.9844 28.72C13.3437 28.8 13.4687 28.9067 12.9062 28.9067C12.3437 28.92 11.5625 28.68 11.5625 28.68L10.125 30.1467L10.1562 30.16Z" fill="white"/>
<path d="M6.03137 15.12C5.71887 15.5333 5.00012 16.4133 5.46887 18.3333C5.93762 20.2533 6.37512 21.6933 6.07824 22.3867C5.78137 23.08 5.50012 24.12 5.54699 24.7067C5.59387 25.2933 5.54699 25.7867 5.50012 26.1467C5.45324 26.5067 5.28137 28.0933 5.50012 28.52C5.71887 28.9333 6.09387 29.1467 6.71887 29.0133C7.34387 28.88 8.14074 28.3733 8.23449 28.0933C8.46887 27.4533 8.07824 26.1333 8.28137 25.44C8.43762 24.9333 8.60949 24.3733 8.64074 23.9067C8.67199 23.44 8.89074 22.3067 9.23449 20.92C9.59387 19.5333 10.297 17.9467 10.1876 16.8933C10.0782 15.84 6.03137 15.12 6.03137 15.12Z" fill="#28896D"/>
<path opacity="0.2" d="M6.03137 15.12C5.71887 15.5333 5.00012 16.4133 5.46887 18.3333C5.93762 20.2533 6.37512 21.6933 6.07824 22.3867C5.78137 23.08 5.50012 24.12 5.54699 24.7067C5.59387 25.2933 5.54699 25.7867 5.50012 26.1467C5.45324 26.5067 5.28137 28.0933 5.50012 28.52C5.71887 28.9333 6.09387 29.1467 6.71887 29.0133C7.34387 28.88 8.14074 28.3733 8.23449 28.0933C8.46887 27.4533 8.07824 26.1333 8.28137 25.44C8.43762 24.9333 8.60949 24.3733 8.64074 23.9067C8.67199 23.44 8.89074 22.3067 9.23449 20.92C9.59387 19.5333 10.297 17.9467 10.1876 16.8933C10.0782 15.84 6.03137 15.12 6.03137 15.12Z" fill="black"/>
<path d="M7.20304 15.8267C6.85929 16.5867 6.67179 17.7733 7.09366 18.3733C7.51554 18.9733 8.21866 19.7467 8.42179 20.28C8.62491 20.8133 9.34366 21.9333 9.32804 22.3733C9.31241 22.8133 8.98429 24.7867 9.12491 26.1733C9.26554 27.56 9.45304 29.0533 9.40616 29.4133C9.35929 29.7733 9.51554 30.6667 10.078 30.68C10.6405 30.6933 12.1249 30.2 12.5468 29.6C12.8749 29.1467 12.7187 28.9467 12.5468 28.84C12.3749 28.7333 12.1093 28.36 12.0155 27.84C11.9218 27.3333 11.9999 24.6933 12.203 23.96C12.4062 23.2267 12.5155 22.9067 12.3593 22.2133C12.203 21.52 11.6718 18.7067 11.5312 17.84C11.3905 16.9733 11.2812 16.24 11.2812 16.24L7.20304 15.8267Z" fill="#28896D"/>
<path d="M6.40623 8.25334C6.40623 8.25334 5.37498 8 4.78123 8.50667C4.18748 9.01334 4.40623 9.56 4.65623 10.24C4.90623 10.92 6.20311 13.5867 6.12498 14.1733C6.04686 14.7467 5.54686 15.6533 5.57811 15.88C5.60936 16.0933 6.82811 17 8.48436 17.2C10.1406 17.3867 11.1719 17.16 11.1875 17.0133C11.2031 16.8533 11.2344 15.04 11.0469 14.2267C10.8594 13.4 10.8281 12.64 11.1094 11.9333C11.3906 11.24 11.5781 10.5067 11.375 10.08C11.1719 9.65334 10.8594 9.45334 10.375 9.25334C9.89061 9.05334 9.32811 8.98667 9.32811 8.98667C9.32811 8.98667 8.09373 9.26667 7.09373 8.98667C5.85936 8.61334 6.40623 8.25334 6.40623 8.25334Z" fill="#E5E5E5"/>
<path d="M9.04682 11.3733C9.04682 11.3733 9.82807 11.5467 10.3906 11.4667C10.9531 11.3867 11.1718 11.28 11.1718 11.28C11.1718 11.28 10.9843 11.8133 10.9062 12C10.7656 12.4 10.6249 13.1333 10.6093 13.4533C10.5937 13.7733 10.5624 14.1333 10.5624 14.1333C10.5624 14.1333 10.9062 14.4667 11.0781 15C11.2499 15.5333 11.3593 15.9867 11.5312 16.2133C11.7031 16.44 11.8906 16.7067 11.9218 17.1067C11.9531 17.4933 12.0468 18.24 11.7343 18.44C11.4218 18.64 10.8124 18.84 10.5624 18.7467C10.3124 18.64 10.2031 18.4667 10.2499 18.4C10.2968 18.3333 10.4843 18.5733 10.6874 18.3733C10.9062 18.1733 10.8749 18 10.7812 17.6533C10.6874 17.3067 10.8906 17.0533 10.8281 16.9333C10.7656 16.8133 9.3437 15.2667 9.18745 14.5467C9.0312 13.8267 9.04682 11.3733 9.04682 11.3733Z" fill="#FBD7C7"/>
<path opacity="0.2" d="M18.7344 27.48C19.5938 27.4533 19.8125 27.1333 20.0157 26.5067C20.2344 25.88 19.9532 25.7467 20.4688 25.4267C20.9844 25.1067 21.3907 24.7867 21.25 24.3067C20.9844 23.3867 19.8438 22.2933 18.7657 22.2933C17.6875 22.2933 15.6719 23.6533 15.6094 23.7867C15.5469 23.92 15.0782 24.0933 15.5469 24.64C16.2969 25.5067 16.8594 27.5333 18.7344 27.48Z" fill="black"/>
<path d="M16.3751 23.0933C16.3751 23.0933 16.0001 23.4 15.7032 23.5867C15.422 23.7733 15.3907 24.1333 15.4063 24.2533C15.422 24.3733 15.7345 24.6933 16.2657 24.6133C16.797 24.5333 17.2032 24.04 17.5626 23.76C17.922 23.4667 17.922 23.4933 18.1876 23.4533C18.4532 23.4133 18.1876 22.8933 17.8282 22.88C17.4688 22.8667 16.7657 22.5733 16.7657 22.5733C16.7657 22.5733 16.547 22.9333 16.3751 23.0933Z" fill="white"/>
<path d="M16.3751 23.0933C16.3751 23.0933 16.0001 23.4 15.7032 23.5867C15.422 23.7733 15.3907 24.1333 15.4063 24.2533C15.422 24.3733 15.7345 24.6933 16.2657 24.6133C16.797 24.5333 17.2032 24.04 17.5626 23.76C17.922 23.4667 17.922 23.4933 18.1876 23.4533C18.4532 23.4133 18.1876 22.8933 17.8282 22.88C17.4688 22.8667 16.7657 22.5733 16.7657 22.5733C16.7657 22.5733 16.547 22.9333 16.3751 23.0933Z" fill="white"/>
<path d="M17.5781 23.7733C17.9375 23.48 17.9375 23.5067 18.2031 23.4667C18.2344 23.4667 18.2656 23.4533 18.2812 23.4267L17.25 23.2533C17.25 23.2533 17.2969 23.6 16.9687 23.9067C16.6562 24.2133 16.4687 24.3867 16.0781 24.3867C15.7969 24.3867 15.5938 24.3333 15.4375 24.1733V24.2667C15.4531 24.4 15.7656 24.7067 16.2969 24.6267C16.8125 24.5467 17.2187 24.0533 17.5781 23.7733Z" fill="#262626"/>
<path d="M16.0156 11.76C16.0156 11.76 15.4844 13.0133 15.5312 14.48C15.5781 16.0133 15.7812 16.9733 15.9062 17.3733C16.0781 17.9733 16.4375 18.16 16.5156 19.4667C16.5937 20.7733 16.6094 22.1067 16.4844 22.4933C16.3594 22.88 16.0625 23.0267 16.1094 23.12C16.1562 23.2133 16.7031 23.0667 16.9687 23.28C17.2344 23.4933 17.6719 23.64 17.8906 23.64C18.1094 23.6533 18.2031 23.64 18.2031 23.64L17.625 13.2133L16.0156 11.76Z" fill="#2D3134"/>
<path opacity="0.2" d="M16.0156 11.76C16.0156 11.76 15.4844 13.0133 15.5312 14.48C15.5781 16.0133 15.7812 16.9733 15.9062 17.3733C16.0781 17.9733 16.4375 18.16 16.5156 19.4667C16.5937 20.7733 16.6094 22.1067 16.4844 22.4933C16.3594 22.88 16.0625 23.0267 16.1094 23.12C16.1562 23.2133 16.7031 23.0667 16.9687 23.28C17.2344 23.4933 17.6719 23.64 17.8906 23.64C18.1094 23.6533 18.2031 23.64 18.2031 23.64L17.625 13.2133L16.0156 11.76Z" fill="black"/>
<path d="M18.5626 25.8933C18.5626 25.8933 18.297 26.4933 18.297 26.6133C18.297 26.7333 18.2657 27.1333 18.3595 27.2267C18.4376 27.3067 18.8595 27.4267 19.1876 27.3867C19.5314 27.3467 19.8595 27.0667 19.8907 26.96C19.922 26.84 19.8751 26.12 19.8595 26.0133C19.8439 25.9067 19.7814 25.6667 19.7814 25.6667L18.5626 25.8933Z" fill="white"/>
<path d="M19.7969 25.6667L19.5781 25.7067C19.6406 25.96 19.7188 26.5467 19.625 26.7867C19.5 27.0667 19.1562 27.1467 18.8594 27.1467C18.6875 27.1467 18.3906 27.0667 18.3125 26.88C18.3125 27.0267 18.3281 27.1867 18.375 27.24C18.4531 27.32 18.875 27.44 19.2031 27.4C19.5469 27.36 19.875 27.08 19.9063 26.9733C19.9375 26.8533 19.8906 26.1333 19.875 26.0267C19.8594 25.9067 19.7969 25.6667 19.7969 25.6667Z" fill="#262626"/>
<path d="M17.3282 13.3333C17.3282 13.3333 16.8595 14.28 16.7813 15.64C16.7032 17 16.8907 17.9067 16.922 18.2133C16.9376 18.52 17.0001 19.4667 17.2032 19.8267C17.4063 20.1867 17.7813 20.88 17.922 21.7467C18.0626 22.6267 18.1251 24.2 18.1407 24.6C18.1563 25.1333 18.0626 25.5733 18.172 25.8267C18.2813 26.08 18.6407 25.7733 19.0313 25.8667C19.422 25.96 20.0313 26.0533 20.1407 26C20.2501 25.9467 20.0626 25 20.0782 24.4533C20.0938 23.9067 20.047 21.8133 19.9063 20.9333C19.7813 20.0533 19.0313 19.2267 19.1563 18.3333C19.2813 17.44 20.0001 15.56 20.172 15C20.3438 14.44 20.3907 13.64 20.297 12.9067C20.2188 12.16 17.3282 13.3333 17.3282 13.3333Z" fill="#2D3134"/>
<path d="M16.0156 11.08C16.0156 11.08 15.3438 11.4934 15.0938 11.76C14.8438 12.0267 14.7188 12.1467 14.7188 12.3867C14.7188 12.6267 14.8438 12.7734 14.9688 12.7467C15.0938 12.72 14.9688 12.3867 14.9688 12.3867L15.0938 12.1734C15.0938 12.1734 14.9688 12.36 15.0312 12.44C15.0938 12.5067 15.375 12.76 15.4531 12.7067C15.5469 12.6534 15.5156 12.5467 15.5156 12.5467C15.5156 12.5467 15.2813 12.4134 15.3281 12.3334C15.375 12.2667 15.4531 12.2267 15.4531 12.2267C15.4531 12.2267 15.4063 12.4667 15.4531 12.5467C15.5 12.6134 15.7031 12.6 15.7031 12.6L16.0781 11.8667L16.0156 11.08Z" fill="#FBD7C7"/>
<path d="M19.0468 5.33333C18.3281 5.21333 16.9687 5.12 16.4687 5.65333C15.9687 6.18666 16.0937 6.33333 16.0937 6.6C16.0937 6.86666 15.8593 7.30666 15.7187 7.6C15.5781 7.89333 15.3593 8.38666 15.5937 8.69333C15.8281 9.01333 16.2656 9.16 16.2656 9.16C16.2656 9.16 16.1406 10.4 15.9999 10.88C15.8593 11.3467 15.6874 12.1867 15.6249 12.4533C15.5624 12.72 15.8749 13.5067 16.4843 13.7067C17.0937 13.92 18.4843 14.0133 19.3124 13.4933C20.1406 12.9867 20.2968 12.6533 20.2968 12.6533C20.2968 12.6533 19.9999 11.6267 20.0468 11.24C20.0937 10.8533 20.8593 8.89333 20.8593 8.89333L21.4218 7.32L21.6093 7.21333C21.6093 7.21333 21.6562 6.86666 21.4218 6.53333C21.1874 6.2 20.7968 5.84 20.2499 5.69333C19.7031 5.54666 19.6718 5.44 19.0468 5.33333Z" fill="#99CC33"/>
<path d="M17.3907 5.6C17.3907 5.6 16.3126 6.33333 17.0157 6.96C17.7188 7.58667 19.0938 6.4 19.3438 5.90667C19.6094 5.42667 18.2344 4.89333 17.3907 5.6Z" fill="#FBD7C7"/>
<path opacity="0.2" d="M15.5313 8.21335C15.5313 8.21335 15.5157 8.78668 17.25 9.08002C19.8282 9.52002 20.3438 8.69335 20.3438 8.69335C20.3438 8.69335 19.8594 9.84001 17.3438 9.42668C15.1563 9.08001 15.5313 8.21335 15.5313 8.21335Z" fill="#262626"/>
<path d="M18.75 1.83999C17.4844 1.77333 16.875 2.23999 16.6406 2.98666C16.4063 3.70666 17.2656 5.02666 16.3594 5.37333C16.375 5.66666 17.1563 5.97333 17.5 5.65333C17.8438 5.34666 17.9531 5.33333 17.9531 5.33333L18.75 1.83999Z" fill="#825012"/>
<path d="M17.0937 3.18668C16.8593 3.60002 16.7968 5.26668 17.1874 5.53335C17.578 5.80002 18.3749 5.36002 19.1405 5.06668C19.9062 4.77335 19.9999 2.53335 18.8437 2.50668C17.6874 2.48002 17.3437 2.74668 17.0937 3.18668Z" fill="#FBD7C7"/>
<path d="M18.5156 1.86667C18 1.97334 17.4062 2.56 17.5156 3.2C17.6718 4.02667 19.5781 5.64 18.2343 6.16C18.4531 6.77334 19.7187 6.73334 20.4218 6.42667C21.0937 6.12 21.1562 5.82667 21.1406 5.72C21.125 5.61334 20.5468 5.06667 20.5468 4.26667C20.5468 3.46667 20.4687 1.45334 18.5156 1.86667Z" fill="#825012"/>
<path d="M19.9532 7.62667C19.9532 7.62667 20.3907 7.62667 20.7032 7.58667C21.0157 7.54667 21.4375 7.32001 21.4375 7.32001C21.4375 7.32001 21.4688 7.93334 21.5625 8.29334C21.6563 8.65334 21.8125 9.68001 21.875 9.82667C21.9375 9.97334 22.1719 10.0933 21.875 10.6133C21.5782 11.1333 20.3594 12.7333 20.1407 13.16C19.9219 13.5867 19.9375 13.9867 19.8282 14.1067C19.7344 14.2267 19.4375 14.3333 19.4063 14.32C19.3594 14.3067 19.2969 14.3067 19.2969 14.3067C19.2969 14.3067 19.2344 14.36 19.125 14.36C19.0157 14.36 18.9844 14.3067 18.9844 14.3067C18.9844 14.3067 18.9063 14.4133 18.7344 14.4C18.5625 14.3867 18.5782 14.2933 18.5782 14.2933C18.5782 14.2933 18.3282 14.4 18.2032 14.3733C18.0782 14.3467 18.0157 14.24 18.0938 14.2C18.1719 14.16 18.3438 14.1733 18.4688 14.08C18.5938 13.9867 18.7969 13.7067 18.7969 13.7067C18.7969 13.7067 18.75 13.68 18.7657 13.52C18.7813 13.36 18.75 13.1067 18.9219 13.0267C19.1094 12.9467 19.3282 12.9467 19.4532 12.8133C19.8438 12.4133 19.9532 11.72 20.2969 11.12C20.6407 10.52 20.8594 10.2933 20.8594 10.24C20.8594 10.1867 20.4219 9.34667 20.2657 8.88001C20.0938 8.37334 19.9532 7.62667 19.9532 7.62667Z" fill="#FBD7C7"/>
</svg>
