<svg width="32" height="32" viewBox="0 0 32 32" fill="none" xmlns="http://www.w3.org/2000/svg">
<path opacity="0.2" d="M0.293219 31.4533C1.23989 31.9067 4.70655 30.2533 6.53322 29.5333C7.87989 29 9.70655 28.3067 8.89322 27.88C8.33322 27.5867 7.66655 27.8 5.77322 28.48C3.81322 29.1867 -0.506781 31.0667 0.293219 31.4533Z" fill="black"/>
<path d="M9.96007 9.49333C9.90673 9.6 9.80007 10.44 9.96007 10.6533C10.0401 10.76 10.2934 11 10.7067 10.92C11.1201 10.84 11.2534 10.6533 11.4667 10.52C11.6934 10.3867 12.3467 9.74667 12.7334 9.50667C13.1201 9.26667 13.6267 8.98667 13.6267 8.98667C13.6267 8.98667 13.8801 8.18667 14.2667 7.78666C14.6534 7.38666 14.9601 6.81333 15.0534 6.58666C15.1467 6.36 15.4667 5.70666 15.8667 5.44C16.2534 5.18666 16.6134 5.85333 16.3334 6.14666C16.0534 6.44 15.7201 6.58666 15.6801 6.69333C15.6401 6.8 15.2001 7.82666 14.9467 8.36C14.6934 8.89333 14.5201 9.36 14.4267 9.48C14.3467 9.6 12.6134 10.7733 12.2667 11.2667C11.9201 11.7733 11.4134 12.2933 11.3601 12.6533C11.2934 13.0133 11.1067 14.5333 10.8534 15.16C10.6134 15.7867 10.2534 17.0533 10.2934 17.48C10.3334 17.9067 10.5067 18.6 10.5067 19.3333C10.5067 20.0667 10.4934 21.6 10.3867 22.0533C10.2801 22.5067 10.0934 22.9867 10.0267 23.2133C9.96007 23.44 9.0534 25.32 8.72007 26.1333C8.38673 26.9467 8.26673 27.08 8.26673 27.08L8.18673 28.0933C8.18673 28.0933 7.1734 26.9333 7.1734 26.8533C7.18673 26.7733 7.6534 26.5333 7.7734 26.3867C7.8934 26.24 8.04007 25.4533 8.12007 24.8933C8.20007 24.3333 8.50673 23.2533 8.70673 22.84C8.90673 22.4267 8.98673 22.16 8.92007 21.76C8.84007 21.36 8.46673 18.88 8.46673 18.88C8.46673 18.88 8.0534 18.6133 7.86673 18.3867C7.68007 18.16 7.5734 18 7.5734 18C7.5734 18 6.8934 18.84 6.4534 19.2533C6.0134 19.6667 5.48007 20.5067 5.34673 20.6533C5.2134 20.8 5.08007 20.9467 4.90673 20.9867C4.7334 21.0267 4.50673 21.3467 4.38673 21.4533C4.28007 21.56 3.6534 22 3.42673 22.1467C3.20007 22.28 3.16007 22.5333 2.98673 22.6933C2.8134 22.8533 2.6134 22.96 2.5334 23.0267C2.4534 23.0933 2.32007 23.28 2.32007 23.28C2.32007 23.28 2.2534 22.0533 2.46673 21.9067C2.68007 21.76 3.18673 20.7333 3.48007 20.4933C3.76007 20.2667 4.24007 19.9467 4.24007 19.9467C4.24007 19.9467 5.22673 18.4667 5.70673 17.5333C6.18673 16.6 6.56007 15.5333 6.98673 15.1333C7.4134 14.7467 7.76007 14.44 7.76007 14.44C7.76007 14.44 7.64007 13.6 7.46673 13.24C7.2934 12.8667 7.1734 12.4533 7.0534 12.1867C6.9334 11.92 6.60007 11.5067 6.20007 11.2133C5.80007 10.92 4.96007 10.4133 4.46673 10.2267C3.9734 10.04 3.7334 9.92 3.34674 9.37333C2.96007 8.82667 2.04007 7.36 1.96007 7.33333C1.88007 7.30666 1.3734 7.13333 1.06673 7.06666C0.760068 7 0.320068 6.82666 0.320068 6.77333C0.320068 6.72 0.400068 6.54666 0.640068 6.50666C0.880068 6.46666 1.60007 6.50666 1.6534 6.48C1.70673 6.45333 1.8934 6.33333 1.98673 6.2C2.08007 6.06666 2.12007 5.89333 2.24007 5.85333C2.36007 5.81333 2.44007 5.88 2.4134 5.92C2.38673 5.96 2.2534 6.05333 2.2934 6.2C2.3334 6.34666 2.24007 6.72 2.36007 6.86666C2.48007 7.01333 3.2134 7.74666 3.56007 8.10666C3.90673 8.46666 4.3334 9.06666 4.50673 9.16C4.68007 9.25333 5.8134 9.66667 6.42673 10.04C7.0534 10.4133 7.8934 10.6533 8.10673 10.5333C8.32007 10.4133 8.56007 10.2133 8.58673 9.98667C8.60007 9.76 7.30673 9.38666 7.34673 8.41333C7.38673 7.44 8.0534 7.02666 8.62673 6.88C9.68007 6.6 10.3334 7.90666 10.4267 8.62666C10.5201 9.36 9.96007 9.49333 9.96007 9.49333Z" fill="#FBD7C7"/>
<path d="M7.9199 6.8C7.4399 7.01333 6.7999 7.81333 6.98657 8.74667C7.14657 9.56 7.62657 10.0267 8.14657 10.24C8.70657 10.4667 9.57323 10.3333 10.1466 9.92C10.7199 9.50667 10.9599 8.81333 10.9599 8.81333C10.9599 8.81333 10.6132 8.96 10.5332 8.61333C10.4532 8.26667 10.3066 7.22667 9.7999 6.90667C9.1999 6.53333 8.58657 6.50667 7.9199 6.8Z" fill="#825012"/>
<path d="M2.09326 24.2133C2.09326 24.2133 2.35993 23.6 2.47993 23.4533C2.59993 23.3067 2.63993 23.3467 2.63993 23.2133C2.63993 23.08 2.67993 22.8267 2.71993 22.6667C2.74659 22.5067 2.61326 22.1733 2.61326 22.1733L2.09326 24.2133ZM7.63993 27.4667C7.63993 27.4667 7.91993 27.5467 8.18659 27.3333C8.27993 27.2667 8.26659 27.1067 8.26659 27.1067L8.29326 27.0667C8.29326 27.0667 8.39993 27.2667 8.33326 27.4667C8.26659 27.6667 8.26659 28.3467 8.18659 28.4133C8.09326 28.48 8.11993 28.1733 8.01326 27.9867C7.89326 27.8 7.63993 27.4667 7.63993 27.4667ZM7.62659 14.32C7.62659 14.32 6.66659 15.0933 6.06659 15.8533C5.45326 16.64 4.91993 17.96 5.06659 18.28C5.21326 18.6 6.94659 18.6267 7.19993 18.9867C7.43993 19.36 8.27993 20.68 9.79993 19.9733C11.3199 19.2667 11.6533 18.8 11.6533 18.5467C11.6533 18.2933 11.0399 16.36 10.8933 15.72C10.8133 15.3733 11.1866 14.6 11.3466 13.8667C11.4666 13.2667 11.4266 12.6667 11.4266 12.6667C11.4266 12.6667 11.0399 12.2933 10.9333 11.7867C10.8266 11.28 10.8666 10.8667 10.8666 10.8667C10.8666 10.8667 10.4666 10.9467 10.2933 10.8667C9.78659 11.1467 8.33326 11.2 8.13326 10.5467C7.91993 10.56 7.77326 10.5467 7.77326 10.5467C7.77326 10.5467 7.61326 11.0667 7.33326 11.5467C7.17326 11.8133 6.87993 12 6.87993 12C6.87993 12 7.17326 12.5733 7.21326 12.8267C7.31993 13.56 7.62659 14.32 7.62659 14.32Z" fill="#3366CC"/>
<path d="M2.45341 21.8933C2.66675 22.0133 2.73341 22.16 2.64008 22.5867C2.54675 23 2.37341 23.2933 2.30675 23.6533C2.24008 24.0133 2.08008 24.4667 1.81341 24.7067C1.56008 24.92 1.22675 24.9333 0.96008 24.7867C0.613413 24.6 0.426746 24.0267 0.866746 23.4133C1.26675 22.8667 1.52008 22.4667 1.68008 22.2267C1.84008 21.9867 2.20008 21.76 2.45341 21.8933ZM7.18675 26.88C7.10675 26.8667 6.93341 26.92 6.90675 27.08C6.88008 27.2533 6.97341 27.4533 7.08008 27.6C7.18675 27.7467 7.26675 27.8667 7.42675 28.0667C7.60008 28.2667 7.85341 28.5067 7.96008 28.52C8.12008 28.5467 8.18675 28.44 8.18675 28.4C8.20008 28.32 8.14675 28.16 8.06675 28.0133C7.98675 27.88 7.85341 27.7733 7.77341 27.56C7.73341 27.48 7.66675 27.3333 7.50675 27.1467C7.34675 26.96 7.25341 26.8933 7.18675 26.88Z" fill="#262626"/>
<path d="M22.5467 5.06667C21.84 5.10667 21.52 5.44 21.3067 6.08C21.08 6.72 21.2 6.88 21.0933 7.04C21 7.18667 20.84 7.17334 20.6533 7.13334C21.32 7.98667 21.5467 7.26667 21.5467 7.26667C21.5467 7.26667 21.36 6.32 21.5733 6.05334C21.7467 5.84 22 5.77334 22.24 5.84L23.28 5.26667C23.1467 5.22667 22.9467 5.05334 22.5467 5.06667Z" fill="#825012"/>
<path d="M28.2267 15.92C28.2267 15.92 28.1867 15.6 28.4934 15.5333C28.7201 15.48 28.8934 15.52 29.2934 15.9333C29.6934 16.3333 30.0667 16.68 30.1201 17.1867C30.1601 17.6 29.8534 17.8533 29.5734 17.84C29.3467 17.84 29.0267 17.5467 28.8134 17.2C28.5867 16.84 28.2267 15.92 28.2267 15.92ZM23.8667 21.7467C23.9467 21.7067 24.2267 21.64 24.3201 21.8267C24.4134 22.0133 24.3067 22.4933 24.3334 22.7467C24.3601 23 24.4001 23.6267 24.1467 24.12C23.9601 24.5067 23.4934 24.6133 23.2934 24.4533C23.0934 24.28 23.0801 23.84 23.1867 23.6267C23.3067 23.44 23.8667 21.7467 23.8667 21.7467Z" fill="#262626"/>
<path opacity="0.2" d="M22.84 24.6C23.7333 25.0267 25.0933 24.28 26.8133 23.6C28.08 23.1067 32.1067 21.4 31.6133 21.0133C31.1467 20.64 27.88 21.9733 26.1067 22.6133C24.2533 23.28 22.0933 24.2533 22.84 24.6Z" fill="black"/>
<path d="M21.64 8.29333C21.64 8.29333 21.64 8.68 21.3067 8.66666C20.9734 8.65333 20.08 8.54666 19.7067 8.38666C19.3334 8.24 18.2267 7.86666 18.0934 7.73333C17.9734 7.61333 17.6667 7.18666 17.3734 6.93333C17.08 6.68 16.72 6.42666 16.52 6.16C16.2934 5.86666 15.7467 5.36 15.44 5.34666C15.2934 5.34666 15.08 5.54666 15.0934 5.66666C15.1067 5.78666 15.52 6.04 15.6 6.10666C15.68 6.17333 15.88 6.34666 15.8 6.34666C15.72 6.34666 15.3867 6.36 15.3334 6.38666C15.28 6.41333 15.32 6.57333 15.4667 6.57333C15.6134 6.58666 15.92 6.64 15.9734 6.58666C16.04 6.53333 16.1334 6.50666 16.1334 6.50666C16.1334 6.50666 16.4934 7.14666 16.68 7.44C16.8667 7.73333 17.2267 8.28 17.52 8.4C17.8134 8.52 20.04 9.4 20.1334 9.93333C20.2267 10.4533 20.28 11.8133 20.48 12.56C20.68 13.2933 21.3067 15.0133 21.28 15.2133C21.2534 15.4133 21.0534 16.2533 21.08 17.3867C21.0934 18.52 21.0534 19.9067 21.1867 20.0533C21.3067 20.2 22.5734 21.56 22.76 21.9067C22.9467 22.2533 23.1334 22.4133 23.1467 22.6267C23.16 22.84 23.12 23.8267 23.52 23.8533C23.92 23.88 24.2134 22.1333 24.1467 21.8667C24.08 21.6133 23.92 21.6133 23.8 21.6133H23.52C23.52 21.6133 23.28 20.6533 23.0934 20.2533C22.8934 19.84 22.4934 19.4933 22.4934 19.4933C22.4934 19.4933 22.6934 17.68 22.8267 17.36C22.9734 17.0267 23.1334 16.4267 23.1334 16.4267H23.4934C23.4934 16.4267 24 17 24.4267 17.4267C24.8534 17.8533 26.2534 19.44 26.68 19.4133C27.1067 19.3867 27.7334 18.4667 28 18.04C28.2667 17.6133 28.5867 17.1467 28.7467 17.1333C28.9067 17.12 29.2667 17.8267 29.6 17.56C29.9334 17.28 29.5867 16.6 29.3067 16.3067C29.0134 16.0133 28.8934 15.72 28.5067 15.72C28.1334 15.7333 28.1467 16.1067 28.1867 16.28C28.2267 16.4533 28.1467 16.6533 27.9334 16.7333C27.7067 16.8 27.3334 16.9467 27 17.16C26.7334 17.3333 26.5867 17.6133 26.5867 17.6133C26.5867 17.6133 25.5734 16.0933 25.32 15.4933C25.0667 14.8933 24.92 14.32 24.6667 13.9467C24.4134 13.5733 23.6934 13.2667 23.68 13.1067C23.6667 12.9467 23.96 11.0933 24.32 10.6933C24.68 10.2933 25.7467 9.58666 26.3067 9.4C26.8667 9.21333 27.3734 9.17333 27.6267 8.93333C27.88 8.69333 29.2134 7.16 29.4534 7.05333C29.6934 6.94666 29.9734 6.77333 30.12 6.68C30.2667 6.6 30.76 6.2 30.84 6.06666C30.9067 5.93333 30.88 5.50666 30.56 5.46666C30.24 5.42666 29.8134 5.89333 29.6 5.85333C29.3867 5.8 29.2934 5.68 29.2667 5.53333C29.24 5.38666 29.16 5.25333 29.0667 5.24C28.9734 5.21333 28.92 5.25333 28.9867 5.37333C29.0534 5.49333 29.0534 5.69333 29.04 5.8C29.0267 5.90666 29.08 6.16 29.0267 6.30666C28.9734 6.45333 28.9067 6.68 28.5734 6.90666C28.2934 7.10666 27.8934 7.34666 27.48 7.70666C27.0667 8.06666 27.0667 8.18666 26.92 8.25333C26.76 8.32 25.96 8.54666 25.1734 8.89333C24.3867 9.24 23.6667 9.29333 23.3334 9.06666C23 8.84 22.8134 8.57333 22.9734 8.30666C23.1334 8.04 24.1334 7.42666 24.1867 6.58666C24.24 5.74666 23.2134 4.86666 22.1734 5.45333C21.1334 6.04 21.0667 7.72 21.1467 7.97333C21.2134 8.24 21.64 8.29333 21.64 8.29333Z" fill="#FBD7C7"/>
<path d="M22.7599 6.34667C22.9733 6.89333 22.9999 7.26667 23.0933 7.30667C23.1733 7.36 23.3999 7.25333 23.4799 7.36C23.5866 7.49333 23.4799 7.68 23.2399 7.82667C23.0666 7.93333 22.7866 8.08 22.8933 8.28C22.9733 8.41333 23.4399 8.64 23.9733 8.28C24.4933 7.92 24.7466 7 24.5066 6.25333C24.2666 5.50667 23.4399 5.30667 23.3333 5.29333C23.2266 5.26667 23.0133 5.04 22.5733 5.06667C21.8666 5.10667 21.5466 5.44 21.3333 6.08C21.1199 6.72 21.2266 6.88 21.1199 7.04C21.0266 7.18667 20.8666 7.17333 20.6799 7.13333C21.1333 7.73333 21.1733 7.26667 21.1733 7.26667C21.1733 7.26667 21.3733 6.32 21.5866 6.05333C21.8933 5.64 22.5466 5.8 22.7599 6.34667Z" fill="#825012"/>
<path d="M29.04 16.0533C29.04 16.0533 29.3334 16.3867 29.4934 16.5467C29.6534 16.7067 30 17.1467 29.84 17.4933C29.6934 17.8 29.4667 17.7733 29.3067 17.6933C29.08 17.5733 28.8 17.1867 28.8 17.1867C28.8 17.1867 29.04 17.1467 29.12 16.92C29.2 16.6133 29.04 16.0533 29.04 16.0533ZM24.16 22.0133C24.16 22.0133 24.1467 22.56 24.1334 22.7733C24.12 22.9867 24.1334 23.7733 23.8667 24.12C23.6267 24.4267 23.2267 24.48 23.1734 24.12C23.1067 23.72 23.0534 22.7333 23.1467 22.64C23.6934 22.9067 24.16 22.0133 24.16 22.0133ZM20.76 13.8667C20.8667 14.2533 20.4534 16.1733 20.3734 16.6933C20.28 17.2533 20.32 17.4533 20.5734 17.56C20.92 17.7067 21.2134 17.3333 21.88 17.6C23.4 18.2133 24.9067 17.4533 25.6534 16.8C26.4 16.1467 26.28 16 26.28 16C26.28 16 25.6934 14.4533 25.0534 13.96C24.5067 13.5333 23.9334 13.2533 23.9067 13.0533C23.8 12.4267 24.2667 10.9333 24.2667 10.9333C24.2667 10.9333 24.0134 10.6667 23.9067 10.1867C23.8 9.70667 23.8534 9.21333 23.8534 9.21333C23.8534 9.21333 23.6 9.2 23.4267 9.13333C23.2534 9.05333 23.1867 8.98667 23.1867 8.98667C23.1867 8.98667 22.6667 10.9733 21.7867 10.7733C20.9334 10.5867 21.4134 8.58667 21.4134 8.58667C21.4134 8.58667 21.1334 8.62667 20.9867 8.6C20.84 8.57333 20.4934 8.49333 20.4934 8.49333C20.4934 8.49333 20.6667 8.84 20.5334 9.24C20.4 9.64 20.1067 10.1867 20.1067 10.1867C20.1067 10.1867 20.2134 11.3733 20.2534 11.9467C20.2934 12.52 20.6534 13.48 20.76 13.8667Z" fill="#CC291F"/>
<path d="M28.9333 17.2667C28.9333 17.2667 29.1867 17.1867 29.2533 17C29.32 16.8133 29.28 16.5467 29.28 16.5467C29.28 16.5467 29.6533 17.0267 29.4667 17.32C29.2667 17.6133 28.9333 17.2667 28.9333 17.2667ZM23.1733 22.92C23.1733 22.92 23.3067 22.9333 23.4933 22.92C23.6667 22.8933 23.8667 22.72 23.8667 22.72C23.8667 22.72 23.92 23.6933 23.4667 23.7333C23.1067 23.7467 23.1733 22.92 23.1733 22.92Z" fill="#FBD7C7"/>
</svg>
