<svg width="24" height="25" viewBox="0 0 24 25" fill="none" xmlns="http://www.w3.org/2000/svg">
<path fill-rule="evenodd" clip-rule="evenodd" d="M21.0013 12.0772C21.0013 17.0477 16.9718 21.0772 12.0012 21.0772C7.03067 21.0772 3.00122 17.0477 3.00122 12.0772C3.00122 7.10659 7.03067 3.07715 12.0012 3.07715C16.9718 3.07715 21.0013 7.10659 21.0013 12.0772ZM16.1726 14.8347C16.6963 14.0442 17.0012 13.0962 17.0012 12.077C17.0012 9.31562 14.7626 7.07704 12.0012 7.07704C10.982 7.07704 10.034 7.38197 9.24355 7.90559L16.1726 14.8347ZM7.82941 9.31989L14.7583 16.2488C13.968 16.7722 13.0202 17.0771 12.0012 17.0771C9.23975 17.0771 7.00117 14.8385 7.00117 12.077C7.00117 11.0581 7.30599 10.1103 7.82941 9.31989ZM12.0012 5.07703C8.13518 5.07703 5.00117 8.21105 5.00117 12.077C5.00117 15.943 8.13518 19.0771 12.0012 19.0771C15.8672 19.0771 19.0012 15.943 19.0012 12.077C19.0012 8.21105 15.8672 5.07703 12.0012 5.07703Z" fill="#222222"/>
</svg>
