<svg width="16" height="17" viewBox="0 0 16 17" fill="none" xmlns="http://www.w3.org/2000/svg">
<rect y="0.75" width="16" height="16" rx="8" fill="#2CC84E"/>
<g clip-path="url(#clip0_3211_10171)">
<path fill-rule="evenodd" clip-rule="evenodd" d="M5.74005 9.95667L8.61005 5.79867C8.6343 5.76367 8.6654 5.73395 8.70146 5.71131C8.73753 5.68867 8.77781 5.67357 8.81987 5.66694C8.86193 5.6603 8.9049 5.66226 8.94618 5.6727C8.98746 5.68314 9.0262 5.70184 9.06005 5.72767L9.51855 6.07617C9.65605 6.18117 9.68355 6.37617 9.58105 6.51417L6.01005 11.3267C5.98358 11.3624 5.94984 11.3922 5.91104 11.4139C5.87225 11.4357 5.82929 11.449 5.78498 11.453C5.74067 11.4569 5.69603 11.4515 5.65398 11.437C5.61194 11.4224 5.57345 11.3991 5.54105 11.3687L5.51755 11.3467C5.4916 11.3318 5.4673 11.3142 5.44505 11.2942L3.40905 9.46767C3.32733 9.39424 3.27764 9.29171 3.27063 9.18207C3.26362 9.07243 3.29985 8.96441 3.37155 8.88117L3.63355 8.57517C3.67059 8.532 3.71602 8.4968 3.76707 8.47171C3.81812 8.44663 3.87374 8.43217 3.93055 8.42923C3.98736 8.42628 4.04417 8.43491 4.09755 8.45458C4.15092 8.47425 4.19974 8.50456 4.24105 8.54367L5.73905 9.95667H5.74005ZM8.91655 10.2702L11.79 6.10667C11.8143 6.07163 11.8453 6.04187 11.8814 6.01918C11.9174 5.99649 11.9577 5.98134 11.9998 5.97466C12.0418 5.96798 12.0848 5.96989 12.1261 5.98029C12.1674 5.99069 12.2062 6.00936 12.24 6.03517L12.6985 6.38417C12.836 6.48867 12.8635 6.68417 12.761 6.82267L9.18905 11.6337C9.16254 11.6694 9.12877 11.6991 9.08996 11.7208C9.05115 11.7425 9.00817 11.7558 8.96387 11.7597C8.91956 11.7636 8.87493 11.7581 8.8329 11.7436C8.79088 11.729 8.75242 11.7057 8.72005 11.6752L8.70855 11.6637C8.6691 11.6465 8.6325 11.6234 8.60005 11.5952L7.60005 10.7262C7.51614 10.6534 7.46445 10.5504 7.4563 10.4396C7.44815 10.3289 7.48419 10.2194 7.55655 10.1352L7.81505 9.83517C7.85201 9.79208 7.89733 9.75693 7.94825 9.73185C7.99918 9.70677 8.05466 9.69227 8.11135 9.68923C8.16804 9.6862 8.22475 9.69468 8.27807 9.71418C8.33138 9.73368 8.38019 9.76378 8.42155 9.80267L8.91605 10.2692L8.91655 10.2702Z" fill="white"/>
</g>
<defs>
<clipPath id="clip0_3211_10171">
<rect width="12" height="12" fill="white" transform="translate(2 2.75)"/>
</clipPath>
</defs>
</svg>
