<svg width="27" height="34" viewBox="0 0 27 34" fill="none" xmlns="http://www.w3.org/2000/svg">
<rect width="27" height="33" transform="translate(0 0.455566)" fill="white"/>
<path d="M19.0772 12.455L19.0886 12.4556H19.1H21.5C22.3239 12.4556 23 13.1317 23 13.9556V22.9556C23 23.7794 22.3239 24.4556 21.5 24.4556H5.5C4.67614 24.4556 4 23.7794 4 22.9556V13.9556C4 13.1317 4.67614 12.4556 5.5 12.4556H7.9H7.91158L7.92315 12.455C8.19297 12.4425 8.45329 12.3516 8.67224 12.1934C8.89119 12.0353 9.05927 11.8167 9.15591 11.5644L9.1598 11.5543L9.16324 11.544L9.78524 9.68199L9.7858 9.68031C9.79789 9.64369 9.83703 9.58266 9.91243 9.5284C9.98772 9.47422 10.0592 9.45557 10.1 9.45557H16.8863C16.9588 9.46055 17.0285 9.48567 17.0875 9.52819C17.1465 9.57068 17.1924 9.6288 17.2201 9.6959L17.8367 11.5438L17.8401 11.554L17.844 11.5641C17.9405 11.8165 18.1086 12.0353 18.3276 12.1936C18.5467 12.3519 18.8072 12.4427 19.0772 12.455ZM12.5433 15.6459C12.8466 15.5202 13.1717 15.4556 13.5 15.4556C14.163 15.4556 14.7989 15.719 15.2678 16.1878C15.7366 16.6566 16 17.2925 16 17.9556C16 18.6186 15.7366 19.2545 15.2678 19.7233C14.7989 20.1922 14.163 20.4556 13.5 20.4556C13.1717 20.4556 12.8466 20.3909 12.5433 20.2653C12.24 20.1396 11.9644 19.9555 11.7322 19.7233C11.5001 19.4912 11.3159 19.2156 11.1903 18.9123C11.0647 18.609 11 18.2839 11 17.9556C11 17.6273 11.0647 17.3022 11.1903 16.9989C11.3159 16.6955 11.5001 16.4199 11.7322 16.1878C11.9644 15.9557 12.24 15.7715 12.5433 15.6459ZM9.61091 21.8447C10.6424 22.8761 12.0413 23.4556 13.5 23.4556C14.9587 23.4556 16.3576 22.8761 17.3891 21.8447C18.4205 20.8132 19 19.4143 19 17.9556C19 16.4969 18.4205 15.0979 17.3891 14.0665C16.3576 13.035 14.9587 12.4556 13.5 12.4556C12.0413 12.4556 10.6424 13.035 9.61091 14.0665C8.57946 15.0979 8 16.4969 8 17.9556C8 19.4143 8.57946 20.8132 9.61091 21.8447ZM20.1515 15.3041C20.3765 15.5291 20.6817 15.6556 21 15.6556C21.3183 15.6556 21.6235 15.5291 21.8485 15.3041C22.0736 15.0791 22.2 14.7738 22.2 14.4556C22.2 14.1373 22.0736 13.8321 21.8485 13.607C21.6235 13.382 21.3183 13.2556 21 13.2556C20.6817 13.2556 20.3765 13.382 20.1515 13.607C19.9264 13.8321 19.8 14.1373 19.8 14.4556C19.8 14.7738 19.9264 15.0791 20.1515 15.3041Z" fill="url(#paint0_linear_3262_9079)" stroke="url(#paint1_linear_3262_9079)"/>
<defs>
<linearGradient id="paint0_linear_3262_9079" x1="3" y1="17.4556" x2="23" y2="17.4556" gradientUnits="userSpaceOnUse">
<stop stop-color="#FB7BA2"/>
<stop offset="1" stop-color="#FCE043"/>
</linearGradient>
<linearGradient id="paint1_linear_3262_9079" x1="23.5" y1="18.4556" x2="3.5" y2="18.4556" gradientUnits="userSpaceOnUse">
<stop stop-color="#FB7BA2"/>
<stop offset="1" stop-color="#FCE043"/>
</linearGradient>
</defs>
</svg>
