<svg width="27" height="19" viewBox="0 0 27 19" fill="none" xmlns="http://www.w3.org/2000/svg">
<path d="M18.8309 10.5396L19.1734 10.8622L19.5162 10.54L25.0646 5.32383L26.271 6.46334L19.1739 13.1362L16.1955 10.333L17.4035 9.1952L18.8309 10.5396ZM12.5163 4.97234C12.5163 7.24298 10.7068 8.98912 8.22085 8.98912C5.73493 8.98912 3.92535 7.24298 3.92535 4.97234C3.92535 2.70171 5.73493 0.955566 8.22085 0.955566C10.7068 0.955566 12.5163 2.70171 12.5163 4.97234ZM0.5 17.1651C0.5 13.9111 3.32074 11.2125 6.85071 11.2125H9.59099C13.121 11.2125 15.9417 13.9111 15.9417 17.1651V17.9556H0.5V17.1651Z" fill="url(#paint0_linear_3262_9076)" stroke="url(#paint1_linear_3262_9076)"/>
<defs>
<linearGradient id="paint0_linear_3262_9076" x1="0.268484" y1="9.74999" x2="27.6713" y2="9.74999" gradientUnits="userSpaceOnUse">
<stop stop-color="#FB7BA2"/>
<stop offset="1" stop-color="#FCE043"/>
</linearGradient>
<linearGradient id="paint1_linear_3262_9076" x1="27.6713" y1="9.74999" x2="0.268484" y2="9.74999" gradientUnits="userSpaceOnUse">
<stop stop-color="#FB7BA2"/>
<stop offset="1" stop-color="#FCE043"/>
</linearGradient>
</defs>
</svg>
