<svg width="24" height="25" viewBox="0 0 24 25" fill="none" xmlns="http://www.w3.org/2000/svg">
<path fill-rule="evenodd" clip-rule="evenodd" d="M20.5435 7.15751C21.0002 8.26014 21.0002 9.65796 21.0002 12.4536C21.0002 15.2493 21.0002 16.6471 20.5435 17.7497C19.9346 19.2199 18.7665 20.3879 17.2963 20.9969C16.1937 21.4536 14.7959 21.4536 12.0002 21.4536H9.00025C6.17182 21.4536 4.7576 21.4536 3.87892 20.5749C3.00024 19.6963 3.00024 18.282 3.00024 15.4536V12.4536C3.00024 9.65796 3.00024 8.26014 3.45697 7.15751C4.06593 5.68734 5.23398 4.5193 6.70414 3.91034C7.80677 3.45361 9.2046 3.45361 12.0002 3.45361C14.7959 3.45361 16.1937 3.45361 17.2963 3.91034C18.7665 4.5193 19.9346 5.68734 20.5435 7.15751ZM7.99995 10.4551C7.99995 9.90278 8.44767 9.45507 8.99995 9.45507H15C15.5522 9.45507 16 9.90278 16 10.4551C16 11.0074 15.5522 11.4551 15 11.4551H8.99995C8.44767 11.4551 7.99995 11.0074 7.99995 10.4551ZM7.99995 14.455C7.99995 13.9028 8.44767 13.455 8.99995 13.455H12C12.5522 13.455 13 13.9028 13 14.455C13 15.0073 12.5522 15.455 12 15.455H8.99995C8.44767 15.455 7.99995 15.0073 7.99995 14.455Z" fill="url(#paint0_linear_3262_9072)"/>
<path d="M20.5435 7.15751L20.0816 7.34885V7.34885L20.5435 7.15751ZM20.5435 17.7497L21.0055 17.9411L20.5435 17.7497ZM17.2963 20.9969L17.4877 21.4588L17.2963 20.9969ZM3.45697 7.15751L3.91891 7.34885L3.45697 7.15751ZM6.70414 3.91034L6.89549 4.37228L6.70414 3.91034ZM17.2963 3.91034L17.4877 3.4484V3.4484L17.2963 3.91034ZM21.5002 12.4536C21.5002 11.0626 21.5005 9.99435 21.442 9.13664C21.3832 8.27445 21.2633 7.58856 21.0055 6.96617L20.0816 7.34885C20.2805 7.82909 20.389 8.39343 20.4443 9.20472C20.5 10.0205 20.5002 11.0489 20.5002 12.4536H21.5002ZM21.0055 17.9411C21.2633 17.3187 21.3832 16.6328 21.442 15.7706C21.5005 14.9129 21.5002 13.8446 21.5002 12.4536H20.5002C20.5002 13.8583 20.5 14.8867 20.4443 15.7025C20.389 16.5138 20.2805 17.0781 20.0816 17.5584L21.0055 17.9411ZM17.4877 21.4588C19.0804 20.7991 20.3458 19.5337 21.0055 17.9411L20.0816 17.5584C19.5234 18.906 18.4527 19.9767 17.105 20.535L17.4877 21.4588ZM12.0002 21.9536C13.3912 21.9536 14.4595 21.9539 15.3172 21.8954C16.1794 21.8365 16.8653 21.7166 17.4877 21.4588L17.105 20.535C16.6248 20.7339 16.0604 20.8423 15.2491 20.8977C14.4334 20.9533 13.4049 20.9536 12.0002 20.9536V21.9536ZM9.00025 21.9536H12.0002V20.9536H9.00025V21.9536ZM3.52537 20.9285C4.07309 21.4762 4.76942 21.722 5.64181 21.8393C6.49981 21.9547 7.60017 21.9536 9.00025 21.9536V20.9536C7.5719 20.9536 6.55093 20.9526 5.77505 20.8482C5.01356 20.7459 4.56343 20.5523 4.23248 20.2214L3.52537 20.9285ZM2.50024 15.4536C2.50024 16.8537 2.49918 17.9541 2.61454 18.8121C2.73183 19.6844 2.97765 20.3808 3.52537 20.9285L4.23248 20.2214C3.90152 19.8904 3.708 19.4403 3.60562 18.6788C3.50131 17.9029 3.50024 16.882 3.50024 15.4536H2.50024ZM2.50024 12.4536V15.4536H3.50024V12.4536H2.50024ZM2.99503 6.96617C2.73722 7.58856 2.61732 8.27445 2.55849 9.13664C2.49997 9.99435 2.50024 11.0626 2.50024 12.4536H3.50024C3.50024 11.0489 3.50051 10.0205 3.55617 9.20472C3.61153 8.39343 3.71999 7.82909 3.91891 7.34885L2.99503 6.96617ZM6.5128 3.4484C4.92012 4.10811 3.65474 5.37349 2.99503 6.96617L3.91891 7.34885C4.47712 6.0012 5.54783 4.93049 6.89549 4.37228L6.5128 3.4484ZM12.0002 2.95361C10.6093 2.95361 9.54098 2.95334 8.68328 3.01186C7.82108 3.07069 7.13519 3.19059 6.5128 3.4484L6.89549 4.37228C7.37572 4.17336 7.94006 4.0649 8.75135 4.00954C9.56712 3.95388 10.5956 3.95361 12.0002 3.95361V2.95361ZM17.4877 3.4484C16.8653 3.19059 16.1794 3.07069 15.3172 3.01186C14.4595 2.95334 13.3912 2.95361 12.0002 2.95361V3.95361C13.4049 3.95361 14.4334 3.95388 15.2491 4.00954C16.0604 4.0649 16.6248 4.17336 17.105 4.37228L17.4877 3.4484ZM21.0055 6.96617C20.3458 5.37349 19.0804 4.10811 17.4877 3.4484L17.105 4.37228C18.4527 4.93049 19.5234 6.0012 20.0816 7.34885L21.0055 6.96617ZM8.99995 8.95507C8.17152 8.95507 7.49995 9.62664 7.49995 10.4551H8.49995C8.49995 10.1789 8.72381 9.95507 8.99995 9.95507V8.95507ZM15 8.95507H8.99995V9.95507H15V8.95507ZM16.5 10.4551C16.5 9.62664 15.8284 8.95507 15 8.95507V9.95507C15.2761 9.95507 15.5 10.1789 15.5 10.4551H16.5ZM15 11.9551C15.8284 11.9551 16.5 11.2835 16.5 10.4551H15.5C15.5 10.7312 15.2761 10.9551 15 10.9551V11.9551ZM8.99995 11.9551H15V10.9551H8.99995V11.9551ZM7.49995 10.4551C7.49995 11.2835 8.17152 11.9551 8.99995 11.9551V10.9551C8.72381 10.9551 8.49995 10.7312 8.49995 10.4551H7.49995ZM8.99995 12.955C8.17152 12.955 7.49995 13.6266 7.49995 14.455H8.49995C8.49995 14.1789 8.72381 13.955 8.99995 13.955V12.955ZM12 12.955H8.99995V13.955H12V12.955ZM13.5 14.455C13.5 13.6266 12.8284 12.955 12 12.955V13.955C12.2761 13.955 12.5 14.1789 12.5 14.455H13.5ZM12 15.955C12.8284 15.955 13.5 15.2835 13.5 14.455H12.5C12.5 14.7312 12.2761 14.955 12 14.955V15.955ZM8.99995 15.955H12V14.955H8.99995V15.955ZM7.49995 14.455C7.49995 15.2835 8.17153 15.955 8.99995 15.955V14.955C8.72381 14.955 8.49995 14.7312 8.49995 14.455H7.49995Z" fill="url(#paint1_linear_3262_9072)"/>
<defs>
<linearGradient id="paint0_linear_3262_9072" x1="3.5001" y1="12.9155" x2="21.5001" y2="12.9155" gradientUnits="userSpaceOnUse">
<stop stop-color="#FB7BA2"/>
<stop offset="1" stop-color="#FCE043"/>
</linearGradient>
<linearGradient id="paint1_linear_3262_9072" x1="21.5001" y1="12.9155" x2="3.5001" y2="12.9155" gradientUnits="userSpaceOnUse">
<stop stop-color="#FB7BA2"/>
<stop offset="1" stop-color="#FCE043"/>
</linearGradient>
</defs>
</svg>
