<svg width="13" height="12" viewBox="0 0 13 12" fill="none" xmlns="http://www.w3.org/2000/svg">
<path d="M11.8464 5.51712L11.5838 5.74904C11.5451 5.78831 11.4986 5.81917 11.4474 5.83969C11.3962 5.86022 11.3413 5.86997 11.2861 5.86834C11.231 5.86671 11.1768 5.85373 11.1269 5.83021C11.0769 5.8067 11.0324 5.77315 10.996 5.73166C10.9597 5.69017 10.9322 5.64163 10.9155 5.58907C10.8987 5.53651 10.8929 5.48105 10.8985 5.42616C10.9041 5.37127 10.921 5.31812 10.948 5.27003C10.9751 5.22194 11.0117 5.17994 11.0557 5.14665L11.3183 4.91725C11.3183 4.91725 11.3183 4.91725 11.3183 4.91373L10.8831 4.87608C10.8303 4.87157 10.779 4.85671 10.732 4.83236C10.685 4.808 10.6433 4.77463 10.6092 4.73415C10.5751 4.69366 10.5493 4.64686 10.5333 4.59641C10.5173 4.54596 10.5113 4.49285 10.5159 4.44011C10.5204 4.38737 10.5352 4.33604 10.5596 4.28904C10.5839 4.24205 10.6173 4.20031 10.6578 4.16621C10.6983 4.13212 10.7451 4.10633 10.7955 4.09032C10.846 4.07431 10.8991 4.06839 10.9518 4.0729L11.3886 4.11055C11.5463 4.1237 11.6966 4.18315 11.8206 4.28144C11.9447 4.37973 12.0369 4.51248 12.0858 4.66302C12.1346 4.81356 12.1379 4.97517 12.0952 5.12757C12.0526 5.27998 11.9658 5.41637 11.8459 5.51963L11.8464 5.51712ZM8.79933 7.67566L8.9429 8.29863C8.95476 8.35002 8.97663 8.39856 9.00726 8.4415C9.03789 8.48443 9.07667 8.52091 9.1214 8.54886C9.16612 8.5768 9.21591 8.59566 9.26793 8.60436C9.31994 8.61307 9.37316 8.61144 9.42455 8.59957C9.47593 8.58771 9.52448 8.56583 9.56741 8.53521C9.61034 8.50458 9.64682 8.4658 9.67477 8.42107C9.70271 8.37634 9.72158 8.32655 9.73028 8.27454C9.73898 8.22252 9.73735 8.1693 9.72549 8.11792L9.58242 7.49194L9.97698 7.14757C10.0573 7.07755 10.1064 6.97849 10.1137 6.87221C10.1209 6.76592 10.0857 6.66111 10.0156 6.58083C9.9456 6.50055 9.84655 6.45138 9.74027 6.44413C9.63398 6.43688 9.52917 6.47215 9.44889 6.54218L9.05434 6.88704C8.94398 6.98298 8.8619 7.10722 8.81696 7.24637C8.77203 7.38553 8.76593 7.53431 8.79933 7.67667V7.67566ZM6.90184 2.34306V9.05261L6.91539 9.06014L7.51174 9.42258C7.60281 9.47783 7.66819 9.56699 7.69352 9.67045C7.71884 9.77392 7.70203 9.8832 7.64678 9.97426C7.59153 10.0653 7.50237 10.1307 7.39891 10.156C7.29545 10.1814 7.18616 10.1645 7.0951 10.1093L6.50025 9.74686L3.94014 11.303C3.80489 11.3845 3.64862 11.4244 3.49086 11.4175C3.33309 11.4107 3.18084 11.3575 3.05314 11.2646C2.92543 11.1718 2.82794 11.0433 2.77286 10.8953C2.71777 10.7473 2.70753 10.5864 2.74342 10.4326L3.41858 7.49595L1.15414 5.51712C1.0342 5.41386 0.947446 5.27747 0.904762 5.12506C0.862078 4.97266 0.86537 4.81105 0.914226 4.66051C0.963082 4.50997 1.05532 4.37722 1.17937 4.27893C1.30341 4.18064 1.45373 4.12119 1.61145 4.10804L4.59623 3.85002L5.76133 1.07102C5.82218 0.925204 5.9248 0.800647 6.05629 0.713035C6.18778 0.625423 6.34225 0.578674 6.50025 0.578674C6.65825 0.578674 6.81272 0.625423 6.94421 0.713035C7.0757 0.800647 7.17833 0.925204 7.23917 1.07102L8.40778 3.85002L8.94691 3.89671C9.05342 3.90589 9.15191 3.95701 9.22073 4.03882C9.28955 4.12063 9.32305 4.22643 9.31386 4.33293C9.30467 4.43944 9.25355 4.53794 9.17175 4.60676C9.08994 4.67557 8.98415 4.70907 8.87764 4.69989L8.33751 4.6532C8.19183 4.64036 8.05242 4.58799 7.93433 4.50174C7.81623 4.41549 7.72392 4.29863 7.66736 4.16376L6.90184 2.34306ZM6.08511 9.06215L6.09867 9.05462V2.34306L5.33565 4.16125C5.27909 4.29612 5.18678 4.41298 5.06869 4.49923C4.95059 4.58548 4.81118 4.63785 4.66551 4.65069L1.68122 4.90821C1.68108 4.90988 1.68108 4.91156 1.68122 4.91323L3.94667 6.88805C4.05676 6.98395 4.13863 7.10805 4.18348 7.247C4.22832 7.38595 4.23444 7.5345 4.20117 7.67667L3.52249 10.6153L6.08511 9.06215ZM10.0965 9.72729C10.0846 9.6759 10.0626 9.62736 10.032 9.58444C10.0013 9.54152 9.96252 9.50506 9.91777 9.47713C9.87302 9.44921 9.82321 9.43038 9.77119 9.42171C9.71916 9.41303 9.66593 9.4147 9.61455 9.42659C9.56316 9.43849 9.51462 9.4604 9.4717 9.49105C9.42878 9.52171 9.39232 9.56052 9.3644 9.60527C9.33648 9.65002 9.31764 9.69983 9.30897 9.75186C9.3003 9.80389 9.30196 9.85712 9.31386 9.9085L9.47952 10.6183L8.9178 10.277C8.87271 10.2496 8.82266 10.2313 8.77052 10.2233C8.71838 10.2152 8.66517 10.2175 8.61392 10.23C8.56267 10.2426 8.51438 10.265 8.47182 10.2962C8.42926 10.3274 8.39326 10.3667 8.36587 10.4117C8.33848 10.4568 8.32024 10.5069 8.31219 10.559C8.30414 10.6112 8.30643 10.6644 8.31895 10.7156C8.33147 10.7669 8.35395 10.8152 8.38513 10.8577C8.41631 10.9003 8.45556 10.9363 8.50065 10.9637L9.06438 11.306C9.19962 11.3875 9.3559 11.4274 9.51366 11.4205C9.67143 11.4137 9.82368 11.3605 9.95138 11.2677C10.0791 11.1748 10.1766 11.0463 10.2317 10.8983C10.2867 10.7503 10.297 10.5894 10.2611 10.4356L10.0965 9.72729Z" fill="#FEB700"/>
</svg>
