<svg width="33" height="22" viewBox="0 0 33 22" fill="none" xmlns="http://www.w3.org/2000/svg">
<path d="M7.5603 16.2771L8.39288 20.0042" stroke="#373449" stroke-linecap="round" stroke-linejoin="round"/>
<path d="M16.5181 15.6756C21.4771 15.6756 25.4972 14.8854 25.4972 13.9106C25.4972 12.9357 21.4771 12.1455 16.5181 12.1455C11.5591 12.1455 7.53906 12.9357 7.53906 13.9106C7.53906 14.8854 11.5591 15.6756 16.5181 15.6756Z" stroke="#373449" stroke-miterlimit="4.005" stroke-linecap="round" stroke-linejoin="round"/>
<path d="M15.9665 15.5657V19.4754C15.7281 20.2115 15.1194 20.3381 14.4831 20.3924C13.8474 20.4466 13.1157 19.0523 14.8299 18.9277M17.178 15.5657V19.4754C17.4164 20.2115 18.0251 20.3381 18.6615 20.3924C19.2971 20.4466 20.0288 19.0523 18.3146 18.9277" stroke="#373449" stroke-miterlimit="4.005"/>
<path d="M1.52734 11.6659L2.4646 16.8516H6.81646M2.91163 16.9147L2.66566 21M6.54872 16.9897L7.15122 20.8966M31.5537 10.4236L30.6164 15.6092H26.2649M30.1694 15.672L30.4157 19.758M26.5327 15.7477L25.9302 19.6542" stroke="#373449" stroke-miterlimit="4.005" stroke-linecap="round" stroke-linejoin="round"/>
<path d="M4.75845 9.6892C6.35256 9.6892 7.64484 8.35455 7.64484 6.70818C7.64484 5.06181 6.35256 3.72717 4.75845 3.72717C3.16435 3.72717 1.87207 5.06181 1.87207 6.70818C1.87207 8.35455 3.16435 9.6892 4.75845 9.6892Z" stroke="#373449" stroke-linecap="round" stroke-linejoin="round"/>
<path d="M5.55347 9.62073L9.33185 13.5455M8.1728 16.1893L9.00538 19.9164" stroke="#373449" stroke-linecap="round" stroke-linejoin="round"/>
<path d="M4.19278 9.6322C3.57404 11.5196 1.93791 14.8132 3.23238 15.864C4.79734 17.1342 7.1638 15.4248 7.36866 17.1966C8.18811 16.9672 8.17464 17.1966 8.99409 17.0396C8.67626 14.4304 5.89939 14.643 5.52905 13.8374C4.94901 12.575 5.82649 11.7962 5.37013 9.6322C4.96421 9.75458 4.60008 9.69214 4.19278 9.6322Z" fill="#2BBDA8" stroke="#373449"/>
<path d="M5.10474 6.57507L5.11234 6.57864M7.06319 6.57507L7.07079 6.57864" stroke="#373449" stroke-width="2" stroke-miterlimit="4.067" stroke-linecap="round"/>
<path d="M0.5 8.83069C1.70776 9.78868 1.80034 8.00258 1.87427 6.59717M5.72555 8.33831C5.88412 8.45927 6.07447 8.58307 6.39092 8.33831" stroke="#373449" stroke-linecap="round"/>
<path d="M3.97778 9.71643L9.01816 13.9202" stroke="#373449" stroke-linecap="round" stroke-linejoin="round"/>
<path d="M29.4533 8.24315C31.0474 8.24315 32.3397 6.90851 32.3397 5.26215C32.3397 3.61578 31.0474 2.28113 29.4533 2.28113C27.8592 2.28113 26.5669 3.61578 26.5669 5.26215C26.5669 6.90851 27.8592 8.24315 29.4533 8.24315Z" stroke="#373449" stroke-linecap="round" stroke-linejoin="round"/>
<path d="M29.4128 8.20715L29.3316 14.593L25.8365 14.6369L24.3828 18.3883" stroke="#373449" stroke-linecap="round"/>
<path d="M29.382 8.43017L22.9355 13.8138M29.5077 8.42981L31.8597 10.0482L32.4998 13.0175" stroke="#373449" stroke-linecap="round" stroke-linejoin="round"/>
<path d="M29.5363 2.20188C29.5101 1.68738 29.8438 1.37126 30.1686 1.29419M29.4811 2.20188C29.4918 1.90217 29.3588 1.61031 29.0337 1.53289" stroke="#373449" stroke-linecap="round"/>
<path d="M27.8208 5.61572L27.8284 5.61928M29.7796 5.61572L29.7872 5.61928" stroke="#373449" stroke-width="2" stroke-miterlimit="4.067" stroke-linecap="round"/>
<path d="M28.5298 7.20771C28.6887 7.32831 29.4031 7.43605 29.7192 7.19165" stroke="#373449" stroke-linecap="round"/>
<path d="M16.1633 4.99637C17.1192 4.17146 18.1473 3.1371 17.9518 1.8423C17.7559 0.548206 16.6107 0.904287 15.9014 1.8423C15.2464 0.860044 14.295 1.3881 13.982 1.8423C13.669 2.29721 16.2403 4.58141 16.2403 4.58141M10.3784 10.3782L11.2355 11.7994L12.1476 10.3451" fill="#FF5A67"/>
<path d="M16.1633 4.99637C17.1192 4.17146 18.1473 3.1371 17.9518 1.8423C17.7559 0.548206 16.6107 0.904287 15.9014 1.8423C15.2464 0.860044 14.295 1.3881 13.982 1.8423C13.669 2.29721 16.2403 4.58141 16.2403 4.58141M10.3784 10.3782L11.2355 11.7994L12.1476 10.3451" stroke="#373449" stroke-linecap="round" stroke-linejoin="round"/>
<path d="M11.2627 11.7208V13.6625M10.6526 13.6454H11.8731" stroke="#373449" stroke-linecap="round" stroke-linejoin="round"/>
<path d="M20.4111 10.3783L21.2686 11.7994L22.1806 10.3451" fill="#FF5A67"/>
<path d="M20.4111 10.3783L21.2686 11.7994L22.1806 10.3451" stroke="#373449" stroke-linecap="round" stroke-linejoin="round"/>
<path d="M21.2956 11.7208V13.6625M20.6855 13.6454H21.9061" stroke="#373449" stroke-linecap="round" stroke-linejoin="round"/>
</svg>
