<svg width="20" height="15" viewBox="0 0 20 15" fill="none" xmlns="http://www.w3.org/2000/svg">
<path d="M19 0.043457H1C0.734784 0.043457 0.48043 0.149957 0.292893 0.339528C0.105357 0.529099 0 0.786212 0 1.05431V5.0977H0.893C1.889 5.0977 2.813 5.78609 2.973 6.77976C3.02174 7.06991 3.00726 7.36732 2.93056 7.65123C2.85387 7.93514 2.71681 8.19871 2.52894 8.42355C2.34108 8.64839 2.10694 8.82908 1.84287 8.95302C1.57879 9.07695 1.29115 9.14114 1 9.1411H0V13.1845C0 13.4526 0.105357 13.7097 0.292893 13.8993C0.48043 14.0888 0.734784 14.1953 1 14.1953H19C19.2652 14.1953 19.5196 14.0888 19.7071 13.8993C19.8946 13.7097 20 13.4526 20 13.1845V9.1411H19C18.7089 9.14114 18.4212 9.07695 18.1571 8.95302C17.8931 8.82908 17.6589 8.64839 17.4711 8.42355C17.2832 8.19871 17.1461 7.93514 17.0694 7.65123C16.9927 7.36732 16.9783 7.06991 17.027 6.77976C17.187 5.78609 18.111 5.0977 19.107 5.0977H20V1.05431C20 0.786212 19.8946 0.529099 19.7071 0.339528C19.5196 0.149957 19.2652 0.043457 19 0.043457ZM9 12.1736H7V10.152H9V12.1736ZM9 8.13025H7V6.10855H9V8.13025ZM9 4.08685H7V2.06516H9V4.08685Z" fill="black" fill-opacity="0.25"/>
</svg>
