<svg width="49" height="49" viewBox="0 0 49 49" fill="none" xmlns="http://www.w3.org/2000/svg">
<g filter="url(#filter0_d_2287_12158)">
<path d="M24.5 36.1259C30.8417 36.1259 35.9826 30.985 35.9826 24.6433C35.9826 18.3016 30.8417 13.1607 24.5 13.1607C18.1583 13.1607 13.0174 18.3016 13.0174 24.6433C13.0174 30.985 18.1583 36.1259 24.5 36.1259Z" stroke="url(#paint0_linear_2287_12158)" stroke-width="2.73336"/>
<path d="M24.5009 13.3274C24.5009 13.0018 24.5009 12.839 24.6079 12.7379C24.715 12.6368 24.8713 12.6457 25.1839 12.6635C27.0528 12.77 28.8743 13.3126 30.5009 14.2517C32.3251 15.305 33.84 16.8198 34.8932 18.644C35.9464 20.4683 36.5009 22.5376 36.5009 24.644C36.5009 26.7505 35.9464 28.8198 34.8932 30.644C33.84 32.4683 32.3251 33.9831 30.5009 35.0364C28.6767 36.0896 26.6073 36.644 24.5009 36.644C22.3945 36.644 20.3251 36.0896 18.5009 35.0363C16.8743 34.0972 15.4937 32.7911 14.4669 31.2258C14.2952 30.964 14.2093 30.8331 14.2434 30.6898C14.2774 30.5466 14.4184 30.4652 14.7004 30.3024L24.1592 24.8413C24.326 24.745 24.4094 24.6969 24.4551 24.6176C24.5009 24.5383 24.5009 24.4421 24.5009 24.2495V13.3274Z" fill="url(#paint1_linear_2287_12158)" stroke="url(#paint2_linear_2287_12158)"/>
</g>
<defs>
<filter id="filter0_d_2287_12158" x="-3.5" y="0.643066" width="56" height="56" filterUnits="userSpaceOnUse" color-interpolation-filters="sRGB">
<feFlood flood-opacity="0" result="BackgroundImageFix"/>
<feColorMatrix in="SourceAlpha" type="matrix" values="0 0 0 0 0 0 0 0 0 0 0 0 0 0 0 0 0 0 127 0" result="hardAlpha"/>
<feOffset dy="4"/>
<feGaussianBlur stdDeviation="2"/>
<feComposite in2="hardAlpha" operator="out"/>
<feColorMatrix type="matrix" values="0 0 0 0 0 0 0 0 0 0 0 0 0 0 0 0 0 0 0.25 0"/>
<feBlend mode="normal" in2="BackgroundImageFix" result="effect1_dropShadow_2287_12158"/>
<feBlend mode="normal" in="SourceGraphic" in2="effect1_dropShadow_2287_12158" result="shape"/>
</filter>
<linearGradient id="paint0_linear_2287_12158" x1="12" y1="24.6436" x2="37.5" y2="24.6436" gradientUnits="userSpaceOnUse">
<stop stop-color="#FB7BA2"/>
<stop offset="1" stop-color="#FCE043"/>
</linearGradient>
<linearGradient id="paint1_linear_2287_12158" x1="11.5" y1="24.6431" x2="36.5" y2="24.6431" gradientUnits="userSpaceOnUse">
<stop stop-color="#FCE043"/>
<stop offset="1" stop-color="#FB7BA2"/>
</linearGradient>
<linearGradient id="paint2_linear_2287_12158" x1="11" y1="24.6431" x2="38" y2="24.6431" gradientUnits="userSpaceOnUse">
<stop stop-color="#FB7BA2"/>
<stop offset="1" stop-color="#FCE043"/>
</linearGradient>
</defs>
</svg>
