<svg width="16" height="17" viewBox="0 0 16 17" fill="none" xmlns="http://www.w3.org/2000/svg">
<rect y="0.379883" width="16" height="16" rx="8" fill="#5F5F5F"/>
<g clip-path="url(#clip0_3211_10183)">
<path fill-rule="evenodd" clip-rule="evenodd" d="M5.74005 9.58655L8.61005 5.42855C8.6343 5.39355 8.6654 5.36383 8.70146 5.34119C8.73753 5.31855 8.77781 5.30345 8.81987 5.29682C8.86193 5.29018 8.9049 5.29214 8.94618 5.30258C8.98746 5.31302 9.0262 5.33172 9.06005 5.35755L9.51855 5.70605C9.65605 5.81105 9.68355 6.00605 9.58105 6.14405L6.01005 10.9566C5.98358 10.9923 5.94984 11.022 5.91104 11.0438C5.87225 11.0656 5.82929 11.0789 5.78498 11.0829C5.74067 11.0868 5.69603 11.0814 5.65398 11.0668C5.61194 11.0523 5.57345 11.029 5.54105 10.9986L5.51755 10.9766C5.4916 10.9617 5.4673 10.9441 5.44505 10.9241L3.40905 9.09755C3.32733 9.02412 3.27764 8.92159 3.27063 8.81195C3.26362 8.70231 3.29985 8.59429 3.37155 8.51105L3.63355 8.20505C3.67059 8.16188 3.71602 8.12668 3.76707 8.1016C3.81812 8.07651 3.87374 8.06206 3.93055 8.05911C3.98736 8.05616 4.04417 8.06479 4.09755 8.08446C4.15092 8.10413 4.19974 8.13444 4.24105 8.17355L5.73905 9.58655H5.74005ZM8.91655 9.90005L11.79 5.73655C11.8143 5.70151 11.8453 5.67175 11.8814 5.64906C11.9174 5.62637 11.9577 5.61123 11.9998 5.60454C12.0418 5.59786 12.0848 5.59978 12.1261 5.61018C12.1674 5.62058 12.2062 5.63924 12.24 5.66505L12.6985 6.01405C12.836 6.11855 12.8635 6.31405 12.761 6.45255L9.18905 11.2636C9.16254 11.2993 9.12877 11.329 9.08996 11.3507C9.05115 11.3724 9.00817 11.3857 8.96387 11.3896C8.91956 11.3935 8.87493 11.388 8.8329 11.3734C8.79088 11.3589 8.75242 11.3356 8.72005 11.3051L8.70855 11.2936C8.6691 11.2764 8.6325 11.2533 8.60005 11.2251L7.60005 10.3561C7.51614 10.2833 7.46445 10.1803 7.4563 10.0695C7.44815 9.95877 7.48419 9.8493 7.55655 9.76505L7.81505 9.46505C7.85201 9.42196 7.89733 9.38682 7.94825 9.36173C7.99918 9.33665 8.05466 9.32215 8.11135 9.31912C8.16804 9.31608 8.22475 9.32456 8.27807 9.34406C8.33138 9.36356 8.38019 9.39366 8.42155 9.43255L8.91605 9.89905L8.91655 9.90005Z" fill="white"/>
</g>
<defs>
<clipPath id="clip0_3211_10183">
<rect width="12" height="12" fill="white" transform="translate(2 2.37988)"/>
</clipPath>
</defs>
</svg>
