<svg width="24" height="25" viewBox="0 0 24 25" fill="none" xmlns="http://www.w3.org/2000/svg">
<path d="M17.0011 4.49854H17.2011C18.9925 4.49854 19.8881 4.49854 20.4446 5.05503C21.0011 5.61153 21.0011 6.5072 21.0011 8.29854V8.49854M17.0011 20.4986H17.2011C18.9925 20.4986 19.8881 20.4986 20.4446 19.9421C21.0011 19.3856 21.0011 18.4899 21.0011 16.6986V16.4986M7.00111 4.49854H6.80111C5.00977 4.49854 4.1141 4.49854 3.5576 5.05503C3.0011 5.61153 3.0011 6.5072 3.0011 8.29854V8.49854M7.00111 20.4986H6.80111C5.00977 20.4986 4.1141 20.4986 3.5576 19.9421C3.0011 19.3856 3.0011 18.4899 3.0011 16.6986V16.4986" stroke="black" stroke-width="2" stroke-linecap="round"/>
<path fill-rule="evenodd" clip-rule="evenodd" d="M18.8155 12.4976C18.8155 11.9613 18.6899 11.7438 18.4385 11.3088C17.584 9.83003 15.6567 7.49756 12.0006 7.49756C8.34454 7.49756 6.41722 9.83003 5.5627 11.3088C5.31135 11.7438 5.18567 11.9613 5.18567 12.4976C5.18567 13.0339 5.31135 13.2514 5.5627 13.6863C6.41722 15.1651 8.34454 17.4976 12.0006 17.4976C15.6567 17.4976 17.584 15.1651 18.4385 13.6863C18.6899 13.2514 18.8155 13.0339 18.8155 12.4976ZM12.0006 15.4976C13.6574 15.4976 15.0006 14.1544 15.0006 12.4976C15.0006 10.8407 13.6574 9.49755 12.0006 9.49755C10.3437 9.49755 9.00057 10.8407 9.00057 12.4976C9.00057 14.1544 10.3437 15.4976 12.0006 15.4976Z" fill="black"/>
</svg>
