<svg width="37" height="36" viewBox="0 0 37 36" fill="none" xmlns="http://www.w3.org/2000/svg">
<rect x="0.5" width="36" height="36" rx="18" fill="url(#paint0_linear_4933_3306)"/>
<path opacity="0.9" d="M25.5 13V10C25.5 9.73478 25.3946 9.48043 25.2071 9.29289C25.0196 9.10536 24.7652 9 24.5 9H11.5C10.9696 9 10.4609 9.21071 10.0858 9.58579C9.71071 9.96086 9.5 10.4696 9.5 11C9.5 11.5304 9.71071 12.0391 10.0858 12.4142C10.4609 12.7893 10.9696 13 11.5 13H26.5C26.7652 13 27.0196 13.1054 27.2071 13.2929C27.3946 13.4804 27.5 13.7348 27.5 14V18M27.5 18H24.5C23.9696 18 23.4609 18.2107 23.0858 18.5858C22.7107 18.9609 22.5 19.4696 22.5 20C22.5 20.5304 22.7107 21.0391 23.0858 21.4142C23.4609 21.7893 23.9696 22 24.5 22H27.5C27.7652 22 28.0196 21.8946 28.2071 21.7071C28.3946 21.5196 28.5 21.2652 28.5 21V19C28.5 18.7348 28.3946 18.4804 28.2071 18.2929C28.0196 18.1054 27.7652 18 27.5 18Z" stroke="white" stroke-width="2" stroke-linecap="round" stroke-linejoin="round"/>
<path d="M9.5 11V25C9.5 25.5304 9.71071 26.0391 10.0858 26.4142C10.4609 26.7893 10.9696 27 11.5 27H26.5C26.7652 27 27.0196 26.8946 27.2071 26.7071C27.3946 26.5196 27.5 26.2652 27.5 26V22" stroke="white" stroke-width="2" stroke-linecap="round" stroke-linejoin="round"/>
<defs>
<linearGradient id="paint0_linear_4933_3306" x1="18.5" y1="0" x2="18.5" y2="36" gradientUnits="userSpaceOnUse">
<stop stop-color="#FC819D"/>
<stop offset="1" stop-color="#FDDC48"/>
</linearGradient>
</defs>
</svg>
