<svg width="36" height="37" viewBox="0 0 36 37" fill="none" xmlns="http://www.w3.org/2000/svg">
<path d="M30 3.5H12C11.2044 3.5 10.4413 3.81607 9.87868 4.37868C9.31607 4.94129 9 5.70435 9 6.5V24.5C9 25.2956 9.31607 26.0587 9.87868 26.6213C10.4413 27.1839 11.2044 27.5 12 27.5H30C30.7956 27.5 31.5587 27.1839 32.1213 26.6213C32.6839 26.0587 33 25.2956 33 24.5V6.5C33 5.70435 32.6839 4.94129 32.1213 4.37868C31.5587 3.81607 30.7956 3.5 30 3.5ZM21 7.25C21.9946 7.25 22.9484 7.64509 23.6517 8.34835C24.3549 9.05161 24.75 10.0054 24.75 11C24.75 11.9946 24.3549 12.9484 23.6517 13.6517C22.9484 14.3549 21.9946 14.75 21 14.75C20.0054 14.75 19.0516 14.3549 18.3483 13.6517C17.6451 12.9484 17.25 11.9946 17.25 11C17.25 10.0054 17.6451 9.05161 18.3483 8.34835C19.0516 7.64509 20.0054 7.25 21 7.25ZM28.5 23H13.5V22.625C13.5 19.8515 16.881 17 21 17C25.119 17 28.5 19.8515 28.5 22.625V23Z" fill="url(#paint0_linear_2287_14344)"/>
<path d="M6 12.5H3V30.5C3 32.1545 4.3455 33.5 6 33.5H24V30.5H6V12.5Z" fill="url(#paint1_linear_2287_14344)"/>
<defs>
<linearGradient id="paint0_linear_2287_14344" x1="21" y1="3.5" x2="21" y2="27.5" gradientUnits="userSpaceOnUse">
<stop stop-color="#FB7BA2"/>
<stop offset="1" stop-color="#FCE043"/>
</linearGradient>
<linearGradient id="paint1_linear_2287_14344" x1="13.5" y1="12.5" x2="13.5" y2="33.5" gradientUnits="userSpaceOnUse">
<stop stop-color="#FB7BA2"/>
<stop offset="1" stop-color="#FCE043"/>
</linearGradient>
</defs>
</svg>
