<svg width="37" height="37" viewBox="0 0 37 37" fill="none" xmlns="http://www.w3.org/2000/svg">
<g clip-path="url(#clip0_2287_14369)">
<path fill-rule="evenodd" clip-rule="evenodd" d="M36.5 18.5C36.5 8.55957 28.4404 0.5 18.5 0.5C8.55957 0.5 0.5 8.55957 0.5 18.5C0.5 28.4404 8.55957 36.5 18.5 36.5C28.4404 36.5 36.5 28.4404 36.5 18.5ZM20.6533 22.3496H15.5293V21.8369C15.5293 20.9668 15.623 20.2578 15.8223 19.7129C16.0215 19.165 16.3145 18.6729 16.7041 18.2188C17.0967 17.7676 17.9785 16.9795 19.3438 15.8428C20.0703 15.248 20.4365 14.7061 20.4365 14.2139C20.4365 13.7129 20.2871 13.332 19.9971 13.0566C19.7041 12.7842 19.2617 12.6465 18.667 12.6465C18.0254 12.6465 17.501 12.8604 17.085 13.2793C16.666 13.7012 16.3994 14.4424 16.2822 15.4941L11.0439 14.8438C11.2227 12.9189 11.9229 11.3691 13.1387 10.2002C14.3604 9.02246 16.2295 8.43945 18.7461 8.43945C20.709 8.43945 22.291 8.84961 23.4951 9.66699C25.1357 10.7744 25.9502 12.251 25.9502 14.0908C25.9502 14.8584 25.7363 15.5967 25.3174 16.3057C24.8955 17.0205 24.0312 17.8848 22.7246 18.9072C21.8193 19.6338 21.2451 20.208 21.0078 20.6445C20.7705 21.0781 20.6533 21.6494 20.6533 22.3496ZM15.3477 23.7178H20.8438V28.5605H15.3477V23.7178Z" fill="url(#paint0_linear_2287_14369)"/>
</g>
<defs>
<linearGradient id="paint0_linear_2287_14369" x1="18.5" y1="0.5" x2="18.5" y2="36.5" gradientUnits="userSpaceOnUse">
<stop stop-color="#FB7BA2"/>
<stop offset="1" stop-color="#FCE043"/>
</linearGradient>
<clipPath id="clip0_2287_14369">
<rect width="36" height="36" fill="white" transform="translate(0.5 0.5)"/>
</clipPath>
</defs>
</svg>
