<svg width="36" height="37" viewBox="0 0 36 37" fill="none" xmlns="http://www.w3.org/2000/svg">
<g clip-path="url(#clip0_2287_14363)">
<path d="M17.9999 0.5C22.9703 0.5 27.4705 2.51495 30.7276 5.7721C33.985 9.02947 36 13.5295 36 18.4999C36 23.4703 33.985 27.9705 30.7278 31.2276C27.4705 34.485 22.9703 36.5 17.9999 36.5C13.0295 36.5 8.52947 34.485 5.2721 31.2276C2.01495 27.9705 0 23.4703 0 18.4999C0 13.5295 2.01495 9.02968 5.2721 5.7721C8.52968 2.51495 13.0295 0.5 17.9999 0.5Z" fill="url(#paint0_linear_2287_14363)"/>
<path d="M24.0652 25.0926H19.424L17.6941 21.1686H16.7869V25.0926H12.5677V11.9075H19.213C22.2368 11.9075 23.7488 13.4476 23.7488 16.5275C23.7488 18.6371 23.0948 20.0296 21.7868 20.7047L24.0652 25.0926ZM16.7869 15.2829V17.92H17.7574C18.2636 17.92 18.633 17.8672 18.8648 17.7616C19.0969 17.6563 19.213 17.4136 19.213 17.0339V16.1689C19.213 15.7892 19.0969 15.5467 18.8648 15.4411C18.633 15.3357 18.2636 15.2829 17.7574 15.2829H16.7869Z" fill="white"/>
</g>
<defs>
<linearGradient id="paint0_linear_2287_14363" x1="18" y1="0.5" x2="18" y2="36.5" gradientUnits="userSpaceOnUse">
<stop stop-color="#FB7BA2"/>
<stop offset="1" stop-color="#FCE043"/>
</linearGradient>
<clipPath id="clip0_2287_14363">
<rect width="36" height="36" fill="white" transform="translate(0 0.5)"/>
</clipPath>
</defs>
</svg>
