<svg width="36" height="37" viewBox="0 0 36 37" fill="none" xmlns="http://www.w3.org/2000/svg">
<path d="M33.9552 15.7791L29.7 15.0836C29.4509 14.2297 29.1103 13.4089 28.6841 12.632L31.1681 9.09176C31.369 8.80592 31.3344 8.4164 31.0874 8.16872L28.2874 5.37008C28.0375 5.12096 27.6444 5.08856 27.3578 5.2952L23.8709 7.80152C23.0868 7.36808 22.2588 7.02392 21.3998 6.77408L20.6575 2.53616C20.597 2.192 20.2982 1.94 19.9483 1.94H15.9883C15.6355 1.94 15.3346 2.1956 15.2777 2.54408L14.5894 6.75896C13.7254 7.00736 12.8959 7.34792 12.1147 7.7756L8.63712 5.2916C8.34984 5.0864 7.95888 5.11952 7.70904 5.36792L4.9104 8.16656C4.66344 8.41352 4.62888 8.80232 4.82976 9.08816L7.27704 12.5895C6.84144 13.3779 6.4944 14.2124 6.24168 15.0807L2.04336 15.7798C1.69632 15.8374 1.44144 16.1384 1.44144 16.4898V20.4498C1.44144 20.799 1.692 21.0978 2.03544 21.159L6.23376 21.9034C6.48504 22.7696 6.83208 23.6041 7.26912 24.3946L4.7916 27.86C4.58712 28.1458 4.61952 28.5382 4.86792 28.7881L7.66728 31.5896C7.91424 31.8366 8.30376 31.8711 8.5896 31.6702L12.096 29.2143C12.883 29.647 13.7146 29.9905 14.5764 30.2396L15.2791 34.4595C15.336 34.8058 15.6362 35.06 15.9883 35.06H19.9483C20.2975 35.06 20.5963 34.8094 20.6568 34.466L21.4092 30.2252C22.2725 29.971 23.0998 29.6254 23.8788 29.192L27.4104 31.6695C27.697 31.8718 28.0858 31.8366 28.3334 31.5896L31.1328 28.7881C31.3819 28.5382 31.4143 28.1444 31.2077 27.8578L28.6891 24.3608C29.1161 23.5832 29.4552 22.761 29.7022 21.907L33.9631 21.159C34.308 21.0985 34.5586 20.799 34.5586 20.4498V16.4898C34.5593 16.137 34.3037 15.836 33.9552 15.7791ZM18 23.54C15.2165 23.54 12.96 21.2835 12.96 18.5C12.96 15.7165 15.2165 13.46 18 13.46C20.7835 13.46 23.04 15.7165 23.04 18.5C23.04 21.2835 20.7835 23.54 18 23.54Z" fill="url(#paint0_linear_2287_14349)"/>
<defs>
<linearGradient id="paint0_linear_2287_14349" x1="18" y1="1.94" x2="18" y2="35.06" gradientUnits="userSpaceOnUse">
<stop stop-color="#FB7BA2"/>
<stop offset="1" stop-color="#FCE043"/>
</linearGradient>
</defs>
</svg>
