<svg width="36" height="37" viewBox="0 0 36 37" fill="none" xmlns="http://www.w3.org/2000/svg">
<g clip-path="url(#clip0_2287_14359)">
<path d="M2.60064 12.93C3.48624 9.571 5.4252 6.61061 8.06472 4.42493C10.8533 2.11553 14.4266 0.663803 18.3679 0.512655C23.0465 0.334089 27.3593 2.02484 30.5489 4.90439C33.7378 7.78253 35.8027 11.8481 35.9863 16.4163C36.0554 18.1309 35.8567 19.79 35.429 21.3542C35.0819 22.6179 34.5815 23.8367 33.9386 24.9846C33.6481 24.5433 33.2711 24.1624 32.8294 23.8637C32.3877 23.565 31.8899 23.3544 31.3646 23.2439C31.8074 22.4017 32.1638 21.5054 32.4209 20.5697C32.773 19.2818 32.9364 17.9256 32.881 16.5344C32.7312 12.7992 31.045 9.4768 28.4422 7.12803C25.8394 4.77855 22.315 3.39853 18.4896 3.54476C15.2734 3.66849 12.3545 4.85448 10.075 6.74348C7.99128 8.46938 6.44184 10.7823 5.688 13.4045L7.056 13.6162C7.49952 13.6829 7.80408 14.0893 7.73496 14.5216C7.70544 14.7114 7.60824 14.8745 7.47216 14.9927L3.82608 18.1633C3.48984 18.455 2.97432 18.4262 2.67552 18.0979C2.62512 18.043 2.5848 17.984 2.55312 17.9214L0.1116 13.8594C-0.1152 13.4812 0.0151202 12.9947 0.40176 12.7725C0.5724 12.6748 0.76464 12.6453 0.94608 12.6748L2.60064 12.93ZM7.90128 33.1572V23.5287C12.767 23.5287 13.5929 23.3142 17.9784 26.0089H21.4243C22.9838 26.0996 23.801 27.6441 22.2847 28.6586C21.0773 29.524 19.4825 29.4748 17.8481 29.3314C16.7206 29.2765 16.673 30.7557 17.8481 30.7606C18.257 30.7915 18.6998 30.698 19.0865 30.698C21.1248 30.6952 22.8053 30.3142 23.8334 28.7415L24.349 27.5661L29.4746 25.0858C32.0386 24.2619 33.863 26.8799 31.9723 28.7029C28.2593 31.3399 24.4526 33.5094 20.5589 35.262C17.7307 36.9415 14.9018 36.8838 12.0758 35.262L7.90128 33.1572ZM0.30528 22.6028H6.56568V34.1245H0.30528V22.6028ZM18.517 24.2338C17.4456 23.2868 17.3254 21.6734 18.2621 20.5837C19.2211 19.4673 20.9246 19.3225 22.068 20.2589C23.2106 21.1954 23.3597 22.8594 22.4006 23.9751C22.2927 24.1001 22.1734 24.2154 22.0442 24.3196C20.9052 24.0981 19.6402 24.2317 18.517 24.2338ZM11.3011 21.7761L14.2042 8.44337L25.7954 10.9883L25.4678 12.492L17.1864 10.674L17.0784 10.6473C16.2749 10.4793 15.4829 10.9805 15.3115 11.7665L15.1531 12.4927L15.1286 12.4878L14.4 15.9495L13.0982 21.9307C12.5388 21.8421 11.957 21.7978 11.3011 21.7761ZM14.2337 22.1824L16.5211 11.6772L28.1117 14.2222L25.789 24.8932L24.2827 25.6222C24.1531 25.4535 24.0048 25.296 23.8399 25.1519L25.4542 17.4729C24.5088 17.2662 23.9126 16.3453 24.125 15.4264L19.5408 14.4239C19.3291 15.347 18.3866 15.9284 17.4456 15.7217L15.948 22.8411C15.3324 22.5515 14.7773 22.3392 14.2337 22.1824Z" fill="url(#paint0_linear_2287_14359)"/>
</g>
<defs>
<linearGradient id="paint0_linear_2287_14359" x1="17.9999" y1="0.499786" x2="17.9999" y2="36.5001" gradientUnits="userSpaceOnUse">
<stop stop-color="#FB7BA2"/>
<stop offset="1" stop-color="#FCE043"/>
</linearGradient>
<clipPath id="clip0_2287_14359">
<rect width="36" height="36" fill="white" transform="translate(0 0.5)"/>
</clipPath>
</defs>
</svg>
